<svg xmlns="http://www.w3.org/2000/svg" viewBox="0 0 175 181" width="175" height="181">
	<defs>
		<clipPath clipPathUnits="userSpaceOnUse" id="cp1">
			<path d="M-1012 -564L655 -564L655 1103L-1012 1103Z" />
		</clipPath>
	</defs>
	<style>
		tspan { white-space:pre }
		.shp0 { fill: #fd4a35 } 
		.shp1 { fill: #0c0c0c } 
		.shp2 { fill: #90e2f9 } 
		.shp3 { fill: #3cb6e6 } 
		.shp4 { fill: #ffffff } 
		.shp5 { fill: #ffc951 } 
		.shp6 { fill: #fff8d5 } 
	</style>
	<g id="Page 1" clip-path="url(#cp1)">
		<path id="Path 111" fill-rule="evenodd" class="shp0" d="M45.6 141.25L33.24 150.38L25.48 142.66L38.17 125.49C35.84 122.27 33.85 118.83 32.23 115.2L11.02 117.59L8.19 107.03L27.75 98.51C27.33 94.6 27.33 90.62 27.75 86.62L8.19 78.1L9.61 72.8L11.04 67.52L32.23 69.92C33.85 66.23 35.84 62.79 38.16 59.62L25.48 42.47L33.24 34.72L50.39 47.41C53.61 45.08 57.05 43.08 60.69 41.46L58.29 20.26L68.87 17.42L77.39 36.98C81.28 36.56 85.26 36.55 89.26 37L97.78 17.42L108.36 20.26L105.96 41.46C109.65 43.1 113.09 45.08 116.25 47.39L133.41 34.72L141.16 42.47L128.47 59.62C130.81 62.84 132.8 66.28 134.42 69.92L155.63 67.52L158.46 78.1L138.9 86.62C139.32 90.51 139.32 94.49 138.9 98.5L158.46 107.03L157.03 112.31L155.63 117.59L134.42 115.2C132.8 118.88 130.78 122.32 128.47 125.49L141.16 142.65L133.41 150.38L116.25 137.71C113.04 140.04 109.58 142.04 105.96 143.65L108.36 164.86L97.78 167.69L89.26 148.14C85.37 148.55 81.39 148.57 77.39 148.14L68.87 167.69L58.29 164.86L59.42 154.86M77.27 119.91C91.81 123.14 106.48 114.36 110.38 99.81C114.4 84.86 105.52 69.5 90.58 65.5C75.64 61.49 60.27 70.37 56.27 85.32C53.49 95.66 56.88 106.2 64.19 113.04" />
		<path id="Path 112" fill-rule="evenodd" class="shp1" d="M68.87 169.05C68.76 169.05 68.64 169.03 68.52 169L57.94 166.17C57.29 165.99 56.86 165.37 56.94 164.71L58.07 154.71C58.15 153.97 58.8 153.44 59.57 153.52C60.31 153.6 60.85 154.27 60.76 155.02L59.76 163.85L68.1 166.08L76.15 147.6C76.39 147.06 76.96 146.74 77.54 146.79C81.34 147.21 85.24 147.21 89.11 146.79C89.72 146.74 90.27 147.06 90.5 147.6L98.55 166.08L106.89 163.85L104.62 143.8C104.55 143.22 104.87 142.66 105.41 142.41C108.93 140.85 112.31 138.89 115.46 136.61C115.94 136.26 116.58 136.27 117.06 136.62L133.28 148.6L139.38 142.51L127.39 126.3C127.03 125.82 127.03 125.17 127.38 124.69C129.69 121.52 131.65 118.15 133.18 114.65C133.42 114.11 133.98 113.78 134.57 113.85L154.62 116.12L156.85 107.8L138.36 99.74C137.82 99.5 137.5 98.94 137.56 98.36C137.97 94.46 137.97 90.56 137.56 86.77C137.49 86.18 137.82 85.62 138.36 85.38L156.85 77.33L154.62 68.99L134.57 71.26C133.99 71.33 133.42 71.01 133.18 70.47C131.62 66.95 129.66 63.57 127.38 60.42C127.03 59.94 127.03 59.3 127.39 58.82L139.38 42.6L133.28 36.5L117.06 48.48C116.58 48.83 115.93 48.83 115.45 48.48C112.37 46.23 108.99 44.29 105.42 42.7C104.88 42.46 104.55 41.9 104.62 41.31L106.89 21.27L98.55 19.03L90.5 37.54C90.26 38.08 89.72 38.41 89.11 38.34C85.31 37.91 81.41 37.91 77.54 38.32C76.94 38.38 76.38 38.06 76.15 37.52L68.1 19.03L59.76 21.27L62.03 41.31C62.1 41.9 61.77 42.46 61.24 42.7C57.74 44.25 54.36 46.2 51.18 48.5C50.71 48.85 50.06 48.85 49.59 48.49L33.37 36.5L27.26 42.6L39.25 58.82C39.6 59.3 39.6 59.95 39.25 60.43C36.96 63.56 35.02 66.94 33.47 70.46C33.24 71 32.66 71.33 32.08 71.26L12.04 68.99L9.8 77.33L28.29 85.38C28.83 85.62 29.15 86.17 29.09 86.76C28.69 90.66 28.69 94.56 29.09 98.37C29.16 98.96 28.83 99.52 28.29 99.75L9.8 107.8L12.03 116.12L32.08 113.85C32.66 113.78 33.23 114.11 33.47 114.65C35.02 118.14 36.97 121.52 39.27 124.7C39.61 125.17 39.61 125.82 39.26 126.3L27.27 142.52L33.37 148.6L44.8 140.16C45.4 139.72 46.25 139.85 46.69 140.45C47.13 141.05 47.01 141.9 46.4 142.34L34.04 151.47C33.5 151.87 32.76 151.81 32.28 151.34L24.53 143.62C24.05 143.15 24 142.4 24.39 141.85L36.5 125.47C34.53 122.66 32.82 119.7 31.41 116.66L11.17 118.94C10.46 119.03 9.89 118.59 9.71 117.94L6.88 107.38C6.71 106.73 7.04 106.05 7.65 105.79L26.3 97.66C26.01 94.31 26.01 90.89 26.3 87.47L7.65 79.34C7.04 79.08 6.71 78.4 6.88 77.75L9.73 67.16C9.91 66.52 10.52 66.09 11.19 66.17L31.4 68.46C32.82 65.39 34.52 62.43 36.48 59.64L24.39 43.27C24 42.73 24.05 41.98 24.52 41.51L32.28 33.76C32.76 33.28 33.51 33.23 34.04 33.63L50.41 45.73C53.22 43.77 56.18 42.06 59.23 40.64L56.94 20.41C56.86 19.75 57.29 19.12 57.94 18.95L68.52 16.11C69.17 15.94 69.85 16.27 70.11 16.88L78.24 35.53C81.65 35.23 85.06 35.23 88.41 35.55L96.54 16.88C96.8 16.27 97.48 15.94 98.13 16.11L108.71 18.95C109.36 19.12 109.78 19.75 109.71 20.41L107.42 40.64C110.53 42.08 113.49 43.78 116.24 45.71L132.6 33.63C133.14 33.23 133.89 33.29 134.37 33.76L142.12 41.51C142.59 41.98 142.65 42.74 142.25 43.28L130.15 59.64C132.1 62.44 133.81 65.4 135.24 68.46L155.47 66.17C156.13 66.09 156.76 66.52 156.93 67.17L159.77 77.75C159.94 78.4 159.61 79.08 159 79.34L140.35 87.47C140.65 90.81 140.65 94.23 140.35 97.65L159 105.79C159.62 106.06 159.94 106.73 159.77 107.38L156.93 117.94C156.76 118.59 156.15 119.02 155.47 118.94L135.25 116.66C133.84 119.71 132.13 122.67 130.15 125.48L142.25 141.84C142.65 142.38 142.59 143.13 142.12 143.6L134.36 151.34C133.89 151.81 133.14 151.87 132.6 151.47L116.24 139.38C113.44 141.34 110.48 143.04 107.42 144.48L109.71 164.71C109.78 165.37 109.36 165.99 108.71 166.17L98.13 169C97.48 169.17 96.8 168.85 96.54 168.23L88.41 149.58C85.01 149.88 81.6 149.89 78.24 149.58L70.11 168.23C69.9 168.74 69.4 169.05 68.87 169.05ZM83.4 121.94C81.28 121.94 79.13 121.71 76.97 121.23C76.25 121.07 75.79 120.34 75.95 119.61C76.11 118.88 76.84 118.42 77.56 118.59C91.54 121.69 105.37 113.29 109.07 99.46C110.92 92.58 109.98 85.4 106.41 79.23C102.85 73.06 97.11 68.65 90.23 66.81C83.35 64.96 76.18 65.91 70.01 69.46C63.84 73.03 59.42 78.78 57.58 85.67C55.01 95.19 57.9 105.3 65.12 112.05C65.66 112.56 65.69 113.42 65.18 113.97C64.67 114.51 63.82 114.54 63.27 114.03C55.32 106.59 52.14 95.46 54.96 84.96C56.99 77.38 61.85 71.04 68.65 67.12C75.45 63.2 83.36 62.16 90.94 64.2C98.51 66.22 104.84 71.08 108.76 77.87C112.69 84.67 113.73 92.59 111.69 100.17C108.18 113.26 96.41 121.94 83.4 121.94Z" />
		<path id="Path 113" class="shp2" d="M80.4 111.66L50.31 173.86C43.89 187.11 22.74 174.91 31.01 162.72L69.84 105.55C71.18 107.06 72.78 108.4 74.62 109.46C76.47 110.52 78.41 111.25 80.4 111.66Z" />
		<path id="Path 114" fill-rule="evenodd" class="shp1" d="M41.49 180.96C36.49 180.96 31.38 177.9 29.06 173.52C27.07 169.78 27.37 165.67 29.89 161.96L68.72 104.79C68.96 104.44 69.34 104.22 69.76 104.2C70.17 104.17 70.58 104.34 70.86 104.65C72.14 106.11 73.64 107.33 75.3 108.29C77 109.26 78.8 109.95 80.66 110.33C81.07 110.41 81.42 110.68 81.61 111.05C81.8 111.43 81.8 111.87 81.61 112.25L51.53 174.45C49.49 178.65 45.93 180.96 41.49 180.96ZM70.02 107.69L32.13 163.48C29.66 167.12 30.4 170.26 31.45 172.25C33.29 175.73 37.51 178.25 41.49 178.25C43.86 178.25 47.1 177.39 49.09 173.27L78.45 112.57C76.9 112.11 75.39 111.46 73.95 110.64C72.53 109.82 71.21 108.83 70.02 107.69Z" />
		<path id="Path 115" class="shp3" d="M100.13 83.2C103.65 88.91 104 96.34 100.42 102.56C95.21 111.58 83.65 114.67 74.62 109.46C65.59 104.25 62.49 92.7 67.7 83.66C71.29 77.45 77.91 74.04 84.61 74.23L83.53 75.44L76.52 83.18L78.34 91.52L88.29 97.26L96.42 94.67L99.64 84.73L100.13 83.2Z" />
		<path id="Path 116" fill-rule="evenodd" class="shp1" d="M84.05 113.35C80.51 113.35 77.02 112.41 73.95 110.64C64.29 105.06 60.96 92.66 66.53 82.99C70.12 76.74 76.85 72.87 84.08 72.87L84.65 72.88C85.18 72.89 85.65 73.21 85.86 73.69C86.07 74.18 85.98 74.74 85.62 75.13L77.99 83.57L79.54 90.65L88.45 95.79L95.35 93.59L98.84 82.79C99 82.28 99.44 81.92 99.96 81.85C100.48 81.79 101 82.04 101.28 82.49C105.19 88.83 105.31 96.78 101.6 103.24C97.99 109.48 91.27 113.35 84.05 113.35ZM81.39 75.78C76.18 76.59 71.54 79.72 68.88 84.34C64.05 92.72 66.93 103.46 75.3 108.29C77.96 109.83 80.99 110.64 84.05 110.64C90.3 110.64 96.13 107.29 99.25 101.89C101.93 97.23 102.31 91.67 100.4 86.77L97.71 95.09C97.58 95.5 97.25 95.83 96.84 95.96L88.7 98.55C88.34 98.66 87.94 98.62 87.61 98.43L77.66 92.7C77.34 92.51 77.1 92.19 77.02 91.81L75.2 83.47C75.1 83.04 75.22 82.59 75.51 82.27L81.39 75.78Z" />
		<path id="Path 117" class="shp4" d="M43.32 163.67C45.23 164.77 45.89 167.22 44.8 169.14C43.69 171.05 41.24 171.71 39.32 170.6C37.41 169.5 36.75 167.05 37.86 165.14C38.95 163.23 41.4 162.56 43.32 163.67Z" />
		<path id="Path 118" fill-rule="evenodd" class="shp1" d="M41.32 172.49C40.38 172.49 39.46 172.24 38.64 171.77C37.41 171.06 36.52 169.91 36.15 168.52C35.78 167.14 35.97 165.69 36.69 164.46C38.1 162 41.52 161.07 44 162.5C45.23 163.21 46.12 164.36 46.49 165.75C46.86 167.13 46.68 168.57 45.97 169.81C45.01 171.46 43.23 172.49 41.32 172.49ZM41.32 164.49C40.38 164.49 39.5 165 39.04 165.81C38.68 166.43 38.58 167.14 38.77 167.82C38.95 168.5 39.38 169.07 39.99 169.42C41.25 170.15 42.92 169.67 43.62 168.45C43.97 167.85 44.06 167.14 43.88 166.45C43.69 165.77 43.26 165.2 42.65 164.85C42.24 164.61 41.78 164.49 41.32 164.49ZM95 48.96C96.52 49.37 97.43 50.94 97.03 52.48C96.61 53.99 95.05 54.92 93.52 54.5C91.99 54.08 91.09 52.52 91.5 50.99C91.9 49.46 93.48 48.55 95 48.96Z" />
		<path id="Path 119" fill-rule="evenodd" class="shp1" d="M94.27 54.77C94 54.77 93.73 54.73 93.47 54.66C92.69 54.45 92.03 53.94 91.63 53.24C91.23 52.54 91.13 51.72 91.34 50.94C91.68 49.62 92.89 48.69 94.26 48.69C94.52 48.69 94.79 48.72 95.04 48.79C96.65 49.23 97.61 50.9 97.19 52.53C96.83 53.85 95.62 54.77 94.27 54.77ZM94.26 49.03C93.04 49.03 91.97 49.85 91.67 51.03C91.48 51.72 91.57 52.45 91.92 53.07C92.28 53.69 92.86 54.14 93.56 54.33C93.8 54.4 94.03 54.43 94.27 54.43C95.47 54.43 96.54 53.61 96.87 52.44C97.24 51 96.38 49.51 94.95 49.12C94.73 49.06 94.5 49.03 94.26 49.03Z" />
		<path id="Path 120" fill-rule="evenodd" class="shp1" d="M94.27 55.95C93.89 55.95 93.52 55.9 93.16 55.8C92.07 55.51 91.16 54.8 90.6 53.82C90.04 52.85 89.9 51.71 90.2 50.63C90.76 48.45 93.12 47.06 95.34 47.65C97.58 48.25 98.92 50.57 98.34 52.82C97.83 54.67 96.16 55.95 94.27 55.95ZM94.26 50.22C93.58 50.22 92.98 50.67 92.81 51.33C92.7 51.73 92.76 52.13 92.95 52.48C93.15 52.83 93.48 53.08 93.87 53.19C94.7 53.41 95.51 52.91 95.72 52.12C95.93 51.31 95.46 50.49 94.64 50.26C94.52 50.23 94.39 50.22 94.26 50.22ZM115.23 60.64C116.36 61.77 116.36 63.57 115.23 64.7C114.11 65.82 112.31 65.82 111.18 64.7C110.06 63.57 110.06 61.77 111.18 60.64C112.31 59.52 114.11 59.52 115.23 60.64Z" />
		<path id="Path 121" fill-rule="evenodd" class="shp1" d="M113.21 65.71C112.4 65.71 111.64 65.39 111.06 64.82C109.89 63.64 109.89 61.7 111.06 60.52C111.64 59.94 112.4 59.63 113.21 59.63C114.02 59.63 114.78 59.94 115.35 60.52C115.93 61.09 116.25 61.86 116.25 62.67C116.25 63.48 115.93 64.24 115.35 64.82C114.78 65.39 114.02 65.71 113.21 65.71ZM113.21 59.97C112.49 59.97 111.81 60.25 111.3 60.76C110.26 61.81 110.26 63.53 111.3 64.59C111.81 65.09 112.49 65.37 113.21 65.37C113.93 65.37 114.6 65.09 115.11 64.58C115.62 64.07 115.91 63.39 115.91 62.67C115.91 61.95 115.62 61.27 115.11 60.76C114.6 60.25 113.93 59.97 113.21 59.97Z" />
		<path id="Path 122" fill-rule="evenodd" class="shp1" d="M113.21 66.89C112.09 66.89 111.03 66.46 110.23 65.67C108.59 64.01 108.59 61.33 110.22 59.68C111.84 58.08 114.6 58.09 116.19 59.68C116.99 60.48 117.43 61.54 117.43 62.67C117.43 63.79 116.99 64.86 116.18 65.66C115.39 66.45 114.34 66.89 113.21 66.89ZM113.21 61.16C112.81 61.16 112.42 61.31 112.13 61.6C111.55 62.2 111.55 63.15 112.15 63.75C112.7 64.3 113.7 64.31 114.27 63.75C114.56 63.45 114.72 63.07 114.72 62.67C114.72 62.27 114.56 61.89 114.27 61.59C113.99 61.31 113.61 61.16 113.21 61.16ZM126.91 80.87C127.32 82.42 126.42 83.98 124.89 84.38C123.36 84.8 121.8 83.9 121.39 82.36C120.98 80.83 121.89 79.27 123.41 78.85C124.95 78.45 126.51 79.36 126.91 80.87Z" />
		<path id="Path 123" fill-rule="evenodd" class="shp1" d="M124.14 84.65C122.78 84.65 121.58 83.73 121.22 82.41C120.8 80.79 121.76 79.13 123.37 78.69C123.63 78.62 123.89 78.59 124.15 78.59C125.52 78.59 126.72 79.51 127.07 80.83C127.29 81.62 127.18 82.44 126.77 83.15C126.37 83.84 125.72 84.34 124.94 84.54C124.67 84.61 124.4 84.65 124.14 84.65ZM124.15 78.93C123.92 78.93 123.68 78.95 123.46 79.01C122.03 79.4 121.17 80.89 121.55 82.32C121.87 83.49 122.93 84.31 124.14 84.31C124.37 84.31 124.61 84.28 124.85 84.22C125.54 84.03 126.12 83.59 126.48 82.97C126.84 82.35 126.94 81.62 126.74 80.91C126.44 79.74 125.37 78.93 124.15 78.93Z" />
		<path id="Path 124" fill-rule="evenodd" class="shp1" d="M124.14 85.84C122.25 85.84 120.58 84.55 120.08 82.72C119.49 80.47 120.82 78.16 123.06 77.55C125.34 76.95 127.64 78.34 128.22 80.53C128.51 81.62 128.36 82.76 127.8 83.74C127.24 84.71 126.32 85.4 125.24 85.69C124.88 85.79 124.51 85.84 124.14 85.84ZM124.15 80.11C124.02 80.11 123.89 80.13 123.76 80.16C122.97 80.38 122.48 81.21 122.7 82.02C122.91 82.79 123.73 83.3 124.53 83.07C124.94 82.97 125.26 82.72 125.45 82.38C125.66 82.03 125.71 81.62 125.6 81.22C125.42 80.56 124.83 80.11 124.15 80.11ZM126.91 104.23C126.51 105.76 124.95 106.68 123.41 106.26C121.89 105.86 120.98 104.28 121.39 102.75C121.8 101.22 123.36 100.32 124.89 100.74C126.42 101.14 127.32 102.72 126.91 104.23Z" />
		<path id="Path 125" fill-rule="evenodd" class="shp1" d="M124.16 106.53C123.9 106.53 123.63 106.5 123.37 106.43C122.6 106.22 121.95 105.73 121.54 105.03C121.13 104.33 121.01 103.5 121.22 102.71C121.58 101.39 122.78 100.47 124.14 100.47C124.41 100.47 124.67 100.5 124.94 100.57C125.72 100.78 126.37 101.28 126.78 101.99C127.18 102.69 127.29 103.5 127.07 104.27C126.72 105.6 125.53 106.53 124.16 106.53ZM124.14 100.8C122.93 100.8 121.87 101.62 121.55 102.8C121.36 103.5 121.46 104.23 121.83 104.86C122.19 105.48 122.77 105.92 123.46 106.1C123.69 106.16 123.93 106.19 124.16 106.19C125.37 106.19 126.44 105.37 126.74 104.19C126.93 103.5 126.84 102.78 126.48 102.15C126.12 101.53 125.54 101.09 124.85 100.9C124.62 100.84 124.38 100.8 124.14 100.8Z" />
		<path id="Path 126" fill-rule="evenodd" class="shp1" d="M124.16 107.72C123.79 107.72 123.42 107.67 123.06 107.57C121.99 107.29 121.08 106.6 120.52 105.63C119.94 104.65 119.79 103.51 120.07 102.41C120.68 100.2 123.05 98.83 125.25 99.43C126.33 99.71 127.24 100.41 127.81 101.4C128.37 102.38 128.51 103.51 128.21 104.59C127.74 106.42 126.07 107.72 124.16 107.72ZM124.14 101.99C123.47 101.99 122.87 102.45 122.69 103.11C122.59 103.5 122.65 103.91 122.85 104.26C123.05 104.61 123.38 104.85 123.76 104.95C124.64 105.19 125.39 104.68 125.6 103.89C125.71 103.49 125.66 103.09 125.46 102.74C125.26 102.4 124.93 102.15 124.55 102.05C124.4 102.01 124.27 101.99 124.14 101.99ZM115.23 124.46C114.11 125.59 112.31 125.59 111.18 124.46C110.06 123.35 110.06 121.54 111.18 120.43C112.31 119.3 114.11 119.3 115.23 120.43C116.36 121.54 116.36 123.35 115.23 124.46Z" />
		<path id="Path 127" fill-rule="evenodd" class="shp1" d="M113.21 125.48C112.4 125.48 111.64 125.16 111.06 124.58C110.49 124.01 110.17 123.25 110.17 122.44C110.17 121.64 110.49 120.88 111.06 120.31C111.64 119.73 112.4 119.41 113.21 119.41C114.02 119.41 114.78 119.73 115.35 120.31C115.93 120.88 116.25 121.64 116.25 122.44C116.25 123.25 115.93 124.01 115.34 124.58C114.78 125.16 114.02 125.48 113.21 125.48ZM113.21 119.75C112.49 119.75 111.81 120.04 111.3 120.55C110.79 121.05 110.51 121.73 110.51 122.44C110.51 123.16 110.79 123.84 111.3 124.34C111.81 124.86 112.49 125.14 113.21 125.14C113.93 125.14 114.6 124.86 115.11 124.34C115.62 123.83 115.91 123.16 115.91 122.44C115.91 121.73 115.62 121.06 115.11 120.55C114.6 120.03 113.93 119.75 113.21 119.75Z" />
		<path id="Path 128" fill-rule="evenodd" class="shp1" d="M113.21 126.66C112.08 126.66 111.02 126.22 110.22 125.41C109.43 124.63 108.99 123.57 108.99 122.44C108.99 121.32 109.43 120.26 110.23 119.47C111.82 117.87 114.61 117.86 116.19 119.48C116.98 120.26 117.43 121.32 117.43 122.44C117.43 123.57 116.98 124.63 116.17 125.43C115.4 126.22 114.34 126.66 113.21 126.66ZM113.21 120.94C112.81 120.94 112.43 121.1 112.14 121.39C111.85 121.67 111.7 122.05 111.7 122.44C111.7 122.85 111.85 123.22 112.14 123.5C112.72 124.09 113.7 124.09 114.26 123.51C114.56 123.21 114.72 122.84 114.72 122.44C114.72 122.05 114.56 121.68 114.28 121.4C113.98 121.09 113.61 120.94 113.21 120.94ZM95 136.14C93.48 136.56 91.9 135.66 91.5 134.13C91.09 132.6 91.99 131.03 93.52 130.62C95.05 130.21 96.61 131.12 97.03 132.65C97.43 134.18 96.52 135.75 95 136.14Z" />
		<path id="Path 129" fill-rule="evenodd" class="shp1" d="M94.24 136.42C92.87 136.42 91.68 135.49 91.34 134.17C91.13 133.39 91.23 132.57 91.63 131.87C92.04 131.17 92.69 130.67 93.47 130.46C93.73 130.39 93.99 130.35 94.25 130.35C95.62 130.35 96.83 131.28 97.19 132.6C97.4 133.4 97.29 134.22 96.87 134.92C96.47 135.61 95.81 136.1 95.04 136.31C94.78 136.38 94.51 136.42 94.24 136.42ZM94.25 130.69C94.02 130.69 93.79 130.72 93.56 130.78C92.86 130.97 92.28 131.42 91.92 132.04C91.57 132.66 91.48 133.39 91.67 134.08C91.97 135.26 93.03 136.07 94.24 136.07C94.48 136.07 94.72 136.04 94.95 135.98C95.64 135.8 96.22 135.36 96.58 134.75C96.95 134.12 97.05 133.39 96.86 132.69C96.55 131.51 95.47 130.69 94.25 130.69Z" />
		<path id="Path 130" fill-rule="evenodd" class="shp1" d="M94.24 137.6C92.33 137.6 90.67 136.31 90.19 134.47C89.9 133.4 90.05 132.26 90.6 131.29C91.16 130.31 92.07 129.61 93.17 129.31C95.41 128.72 97.74 130.1 98.34 132.29C98.63 133.4 98.47 134.54 97.9 135.52C97.33 136.49 96.42 137.17 95.34 137.45C94.99 137.55 94.62 137.6 94.24 137.6ZM94.25 131.88C94.12 131.88 93.99 131.9 93.86 131.93C93.48 132.03 93.15 132.28 92.95 132.63C92.76 132.98 92.7 133.38 92.81 133.77C93.02 134.57 93.85 135.05 94.63 134.84C95.04 134.73 95.36 134.49 95.56 134.15C95.77 133.8 95.82 133.39 95.72 132.99C95.54 132.34 94.94 131.88 94.25 131.88ZM39.74 104.23C39.32 102.72 40.22 101.14 41.75 100.74C43.28 100.32 44.85 101.22 45.27 102.75C45.68 104.28 44.76 105.86 43.23 106.26C41.7 106.68 40.14 105.76 39.74 104.23Z" />
		<path id="Path 131" fill-rule="evenodd" class="shp1" d="M42.48 106.53C41.12 106.53 39.92 105.6 39.57 104.27C39.36 103.5 39.46 102.69 39.87 101.98C40.27 101.28 40.93 100.78 41.71 100.57C41.97 100.5 42.24 100.47 42.51 100.47C43.87 100.47 45.07 101.39 45.43 102.71C45.64 103.49 45.54 104.31 45.13 105.01C44.72 105.72 44.06 106.22 43.27 106.43C43.02 106.5 42.75 106.53 42.48 106.53ZM42.51 100.8C42.27 100.8 42.03 100.84 41.8 100.9C41.1 101.08 40.52 101.53 40.16 102.15C39.8 102.77 39.71 103.5 39.9 104.19C40.21 105.37 41.27 106.19 42.48 106.19C42.72 106.19 42.95 106.16 43.19 106.1C43.89 105.92 44.47 105.47 44.84 104.84C45.2 104.22 45.29 103.49 45.1 102.8C44.78 101.62 43.71 100.8 42.51 100.8Z" />
		<path id="Path 132" fill-rule="evenodd" class="shp1" d="M42.48 107.72C40.58 107.72 38.92 106.43 38.43 104.57C38.13 103.51 38.28 102.37 38.84 101.39C39.41 100.41 40.32 99.71 41.41 99.43C41.76 99.33 42.14 99.28 42.51 99.28C44.4 99.28 46.07 100.56 46.57 102.4C46.87 103.49 46.72 104.63 46.15 105.61C45.58 106.59 44.67 107.29 43.57 107.57C43.22 107.67 42.85 107.72 42.48 107.72ZM42.51 101.99C42.38 101.99 42.24 102.01 42.11 102.04C41.71 102.15 41.39 102.39 41.19 102.74C40.99 103.09 40.94 103.49 41.04 103.87C41.26 104.68 42.09 105.17 42.87 104.96C43.28 104.85 43.61 104.6 43.81 104.25C44.01 103.9 44.06 103.5 43.96 103.11C43.78 102.45 43.18 101.99 42.51 101.99ZM39.74 80.87C40.14 79.36 41.7 78.45 43.23 78.85C44.76 79.27 45.68 80.83 45.27 82.36C44.85 83.9 43.28 84.8 41.75 84.38C40.22 83.98 39.32 82.42 39.74 80.87Z" />
		<path id="Path 133" fill-rule="evenodd" class="shp1" d="M42.51 84.65C42.24 84.65 41.97 84.61 41.71 84.54C40.93 84.34 40.28 83.84 39.87 83.15C39.47 82.45 39.36 81.62 39.57 80.82C39.92 79.51 41.13 78.59 42.5 78.59C42.76 78.59 43.02 78.62 43.27 78.69C44.06 78.9 44.72 79.4 45.12 80.1C45.54 80.81 45.64 81.62 45.43 82.41C45.07 83.73 43.87 84.65 42.51 84.65ZM42.5 78.93C41.28 78.93 40.21 79.74 39.9 80.91C39.71 81.62 39.81 82.35 40.17 82.98C40.53 83.59 41.1 84.03 41.8 84.22C42.03 84.28 42.27 84.31 42.51 84.31C43.72 84.31 44.78 83.49 45.1 82.32C45.29 81.62 45.2 80.9 44.83 80.27C44.47 79.65 43.89 79.21 43.19 79.01C42.96 78.95 42.73 78.93 42.5 78.93Z" />
		<path id="Path 134" fill-rule="evenodd" class="shp1" d="M42.51 85.84C42.14 85.84 41.76 85.79 41.4 85.69C40.32 85.4 39.41 84.71 38.85 83.74C38.28 82.77 38.13 81.62 38.43 80.52C39.01 78.34 41.37 76.96 43.57 77.54C44.67 77.84 45.58 78.54 46.15 79.51C46.72 80.49 46.87 81.63 46.57 82.72C46.07 84.55 44.4 85.84 42.51 85.84ZM42.5 80.11C41.82 80.11 41.22 80.57 41.05 81.22C40.94 81.62 40.99 82.04 41.19 82.38C41.39 82.72 41.71 82.97 42.1 83.07C42.99 83.31 43.74 82.8 43.96 82C44.06 81.62 44.01 81.22 43.81 80.87C43.6 80.52 43.27 80.27 42.87 80.16C42.76 80.13 42.63 80.11 42.5 80.11ZM51.42 60.64C52.53 59.52 54.34 59.52 55.47 60.64C56.58 61.77 56.58 63.57 55.47 64.7C54.34 65.82 52.53 65.82 51.42 64.7C50.29 63.57 50.29 61.77 51.42 60.64Z" />
		<path id="Path 135" fill-rule="evenodd" class="shp1" d="M53.44 65.71C52.63 65.71 51.87 65.39 51.3 64.82C50.72 64.24 50.4 63.48 50.4 62.67C50.4 61.86 50.72 61.09 51.3 60.52C51.87 59.94 52.63 59.63 53.44 59.63C54.24 59.63 55.01 59.94 55.59 60.52C56.76 61.7 56.76 63.64 55.59 64.82C55.01 65.39 54.24 65.71 53.44 65.71ZM53.44 59.97C52.72 59.97 52.04 60.25 51.54 60.76C51.02 61.27 50.74 61.95 50.74 62.67C50.74 63.39 51.02 64.07 51.54 64.58C52.04 65.09 52.72 65.37 53.44 65.37C54.15 65.37 54.83 65.09 55.35 64.58C56.39 63.53 56.39 61.81 55.35 60.75C54.83 60.25 54.15 59.97 53.44 59.97Z" />
		<path id="Path 136" fill-rule="evenodd" class="shp1" d="M53.44 66.89C52.31 66.89 51.25 66.45 50.46 65.66C49.66 64.86 49.21 63.79 49.21 62.67C49.21 61.54 49.66 60.48 50.46 59.68C52.04 58.1 54.81 58.09 56.42 59.67C58.05 61.33 58.05 64.01 56.44 65.65C55.62 66.46 54.56 66.89 53.44 66.89ZM53.44 61.16C53.04 61.16 52.66 61.31 52.38 61.59C52.08 61.89 51.92 62.27 51.92 62.67C51.92 63.07 52.08 63.45 52.37 63.75C52.94 64.31 53.94 64.31 54.52 63.74C55.1 63.15 55.1 62.19 54.5 61.59C54.22 61.31 53.84 61.16 53.44 61.16ZM71.64 48.96C73.16 48.55 74.75 49.46 75.15 50.99C75.57 52.52 74.64 54.08 73.13 54.5C71.6 54.92 70.03 53.99 69.62 52.48C69.2 50.94 70.12 49.37 71.64 48.96Z" />
		<path id="Path 137" fill-rule="evenodd" class="shp1" d="M72.38 54.77C71.02 54.77 69.82 53.85 69.46 52.53C69.02 50.91 69.98 49.24 71.59 48.79C71.85 48.72 72.11 48.69 72.37 48.69C73.75 48.69 74.96 49.62 75.31 50.94C75.75 52.55 74.79 54.21 73.18 54.66C72.92 54.73 72.65 54.77 72.38 54.77ZM72.37 49.03C72.14 49.03 71.91 49.06 71.68 49.12C70.25 49.51 69.4 51 69.78 52.44C70.1 53.61 71.17 54.43 72.38 54.43C72.62 54.43 72.86 54.4 73.09 54.33C74.52 53.94 75.37 52.46 74.98 51.03C74.67 49.85 73.6 49.03 72.37 49.03Z" />
		<path id="Path 138" fill-rule="evenodd" class="shp1" d="M72.38 55.95C70.49 55.95 68.81 54.67 68.31 52.84C67.7 50.59 69.04 48.26 71.28 47.65C73.58 47.05 75.88 48.45 76.46 50.64C77.06 52.86 75.74 55.19 73.49 55.8C73.13 55.9 72.75 55.95 72.38 55.95ZM72.37 50.22C72.24 50.22 72.11 50.23 71.98 50.27C71.19 50.48 70.71 51.32 70.93 52.13C71.14 52.91 71.98 53.41 72.77 53.19C73.58 52.97 74.06 52.14 73.84 51.35C73.66 50.67 73.06 50.22 72.37 50.22Z" />
		<path id="Path 264" class="shp3" d="M82.72 20.98C122.19 20.98 154.2 52.97 154.2 92.45C154.2 131.92 122.19 163.93 82.72 163.93C43.24 163.93 11.23 131.92 11.23 92.45C11.23 52.97 43.24 20.98 82.72 20.98Z" />
		<path id="Path 265" fill-rule="evenodd" class="shp1" d="M82.72 165.28C42.56 165.28 9.88 132.61 9.88 92.45C9.88 52.3 42.56 19.63 82.72 19.63C122.88 19.63 155.55 52.3 155.55 92.45C155.55 132.61 122.88 165.28 82.72 165.28ZM82.72 22.34C44.05 22.34 12.59 53.79 12.59 92.45C12.59 131.12 44.05 162.58 82.72 162.58C121.39 162.58 152.84 131.12 152.84 92.45C152.84 53.79 121.39 22.34 82.72 22.34Z" />
		<path id="Path 266" class="shp5" d="M82.72 41.68C110.74 41.68 133.48 64.42 133.48 92.45C133.48 120.5 110.74 143.23 82.72 143.23C54.67 143.23 31.95 120.5 31.95 92.45C31.95 64.42 54.67 41.68 82.72 41.68Z" />
		<path id="Path 267" fill-rule="evenodd" class="shp1" d="M82.72 144.58C53.98 144.58 30.59 121.2 30.59 92.45C30.59 63.71 53.98 40.33 82.72 40.33C111.46 40.33 134.83 63.71 134.83 92.45C134.83 121.2 111.46 144.58 82.72 144.58ZM82.72 43.04C55.47 43.04 33.3 65.2 33.3 92.45C33.3 119.71 55.47 141.87 82.72 141.87C109.96 141.87 132.12 119.71 132.12 92.45C132.12 65.2 109.96 43.04 82.72 43.04Z" />
		<path id="Path 268" class="shp6" d="M82.72 60.73C100.24 60.73 114.45 74.92 114.45 92.45C114.45 109.99 100.24 124.18 82.72 124.18C65.2 124.18 50.98 109.99 50.98 92.45C50.98 74.92 65.2 60.73 82.72 60.73Z" />
		<path id="Path 269" fill-rule="evenodd" class="shp1" d="M82.72 125.53C64.47 125.53 49.62 110.69 49.62 92.45C49.62 74.21 64.47 59.37 82.72 59.37C100.97 59.37 115.81 74.21 115.81 92.45C115.81 110.69 100.97 125.53 82.72 125.53ZM82.72 62.08C65.97 62.08 52.34 75.71 52.34 92.45C52.34 109.2 65.97 122.82 82.72 122.82C99.47 122.82 113.1 109.2 113.1 92.45C113.1 75.71 99.47 62.08 82.72 62.08Z" />
		<path id="Path 270" class="shp0" d="M82.72 77.43C91.01 77.43 97.75 84.15 97.75 92.45C97.75 100.76 91.01 107.49 82.72 107.49C74.42 107.49 67.67 100.76 67.67 92.45C67.67 84.15 74.42 77.43 82.72 77.43Z" />
		<path id="Path 271" fill-rule="evenodd" class="shp1" d="M82.72 108.84C73.68 108.84 66.32 101.49 66.32 92.45C66.32 83.42 73.68 76.07 82.72 76.07C86.76 76.07 90.45 77.53 93.31 79.96L165.15 8.11C165.68 7.58 166.54 7.58 167.06 8.11C167.59 8.64 167.59 9.5 167.06 10.03L95.22 81.87C97.65 84.73 99.11 88.42 99.11 92.45C99.11 101.49 91.76 108.84 82.72 108.84ZM82.72 78.78C75.17 78.78 69.03 84.91 69.03 92.45C69.03 100 75.17 106.13 82.72 106.13C90.26 106.13 96.4 100 96.4 92.45C96.4 89.17 95.24 86.16 93.3 83.8L83.68 93.41C83.42 93.68 83.07 93.81 82.72 93.81C82.38 93.81 82.03 93.68 81.77 93.41C81.24 92.89 81.24 92.02 81.77 91.5L91.38 81.88C89.02 79.94 86.01 78.78 82.72 78.78Z" />
		<path id="Path 272" class="shp3" d="M153.05 1.76L158.47 16.71L173.42 22.13L166.29 29.24L151.35 23.81L145.93 8.87L153.05 1.76Z" />
		<path id="Path 273" fill-rule="evenodd" class="shp1" d="M166.29 30.59C166.14 30.59 165.98 30.56 165.83 30.51L150.89 25.09C150.51 24.95 150.21 24.65 150.08 24.28L144.65 9.33C144.47 8.84 144.6 8.28 144.97 7.91L152.09 0.81C152.42 0.48 152.89 0.35 153.34 0.44C153.79 0.54 154.16 0.87 154.32 1.3L159.52 15.65L173.88 20.86C174.31 21.01 174.64 21.39 174.74 21.84C174.84 22.29 174.7 22.76 174.37 23.09L167.25 30.2C166.99 30.45 166.64 30.59 166.29 30.59ZM152.41 22.76L165.94 27.67L170.95 22.68L158.01 17.98C157.63 17.84 157.33 17.55 157.19 17.17L152.5 4.22L147.49 9.22L152.41 22.76Z" />
		<path id="Path 330" class="shp5" d="M82.33 64.51C98.06 64.51 110.83 77.27 110.83 93C110.83 108.74 98.06 121.5 82.33 121.5C66.6 121.5 53.83 108.74 53.83 93C53.83 77.27 66.6 64.51 82.33 64.51Z" />
		<path id="Path 331" fill-rule="evenodd" class="shp1" d="M82.33 122.85C65.87 122.85 52.48 109.46 52.48 93C52.48 76.54 65.87 63.15 82.33 63.15C98.79 63.15 112.18 76.54 112.18 93C112.18 109.46 98.79 122.85 82.33 122.85ZM82.33 65.86C67.36 65.86 55.19 78.04 55.19 93C55.19 107.97 67.36 120.15 82.33 120.15C97.3 120.15 109.47 107.97 109.47 93C109.47 78.04 97.3 65.86 82.33 65.86Z" />
		<path id="Path 332" fill-rule="evenodd" class="shp0" d="M24.99 35.66C28.21 32.44 33.43 32.44 36.65 35.66C39.5 38.52 39.83 42.93 37.64 46.15C37.35 46.56 37.02 46.95 36.65 47.34C33.43 50.55 28.21 50.55 24.99 47.34C21.77 44.1 21.77 38.9 24.99 35.66ZM82.33 11.92C86.87 11.92 90.58 15.61 90.58 20.16C90.58 24.2 87.67 27.53 83.85 28.25C83.37 28.36 82.85 28.4 82.33 28.4C77.78 28.4 74.07 24.72 74.07 20.16C74.07 15.61 77.78 11.92 82.33 11.92ZM139.68 35.66C142.89 38.9 142.89 44.1 139.68 47.34C136.83 50.17 132.41 50.5 129.19 48.31C128.79 48.02 128.39 47.69 128.02 47.34C124.78 44.1 124.78 38.9 128.02 35.66C131.24 32.44 136.44 32.44 139.68 35.66ZM163.42 93C163.42 97.56 159.73 101.25 155.18 101.25C151.15 101.25 147.8 98.36 147.06 94.55C146.98 94.04 146.93 93.54 146.93 93C146.93 88.45 150.63 84.76 155.18 84.76C159.73 84.76 163.42 88.45 163.42 93ZM139.68 150.35C136.44 153.56 131.24 153.56 128.02 150.35C125.17 147.5 124.83 143.08 127.03 139.88C127.31 139.46 127.65 139.06 128.02 138.69C131.24 135.47 136.44 135.47 139.68 138.69C142.89 141.91 142.89 147.13 139.68 150.35ZM82.33 174.1C77.78 174.1 74.07 170.4 74.07 165.86C74.07 161.82 76.97 158.47 80.81 157.75C81.29 157.65 81.81 157.62 82.33 157.62C86.87 157.62 90.58 161.3 90.58 165.86C90.58 170.4 86.87 174.1 82.33 174.1ZM24.99 150.35C21.77 147.13 21.77 141.91 24.99 138.69C27.84 135.84 32.26 135.52 35.46 137.7C35.87 138 36.28 138.32 36.65 138.69C39.86 141.91 39.86 147.13 36.65 150.35C33.43 153.56 28.21 153.56 24.99 150.35ZM1.23 93C1.23 88.45 4.92 84.76 9.49 84.76C13.51 84.76 16.86 87.66 17.59 91.48C17.69 91.98 17.72 92.49 17.72 93C17.72 97.56 14.03 101.25 9.49 101.25C4.92 101.25 1.23 97.56 1.23 93ZM36.65 47.34L62.18 72.87M82.33 28.4L82.33 64.51M128.02 47.34L102.48 72.87M146.93 93L110.83 93M128.02 138.69L102.48 113.16M82.33 157.62L82.33 121.5M36.65 138.69L62.18 113.16M17.72 93L53.83 93" />
		<path id="Path 333" fill-rule="evenodd" class="shp1" d="M82.33 65.86C81.58 65.86 80.97 65.25 80.97 64.51L80.97 29.66C76.31 29.01 72.72 25 72.72 20.16C72.72 14.87 77.03 10.57 82.33 10.57C87.62 10.57 91.93 14.87 91.93 20.16C91.93 24.77 88.64 28.73 84.1 29.59C83.97 29.61 83.83 29.64 83.69 29.66L83.69 64.51C83.69 65.25 83.08 65.86 82.33 65.86ZM82.33 13.27C78.52 13.27 75.43 16.37 75.43 20.16C75.43 23.96 78.52 27.05 82.33 27.05C82.77 27.05 83.19 27.01 83.57 26.93C86.86 26.31 89.22 23.47 89.22 20.16C89.22 16.37 86.13 13.27 82.33 13.27ZM62.18 74.22C61.84 74.22 61.49 74.09 61.22 73.83L36.58 49.19C34.92 50.44 32.92 51.1 30.82 51.1C28.25 51.1 25.84 50.11 24.03 48.3C20.3 44.55 20.3 38.45 24.03 34.7C24.03 34.7 24.03 34.7 24.03 34.7C25.84 32.89 28.25 31.89 30.82 31.89C33.39 31.89 35.79 32.89 37.61 34.7C40.86 37.98 41.35 43.11 38.76 46.91C38.67 47.03 38.59 47.15 38.5 47.27L63.14 71.91C63.67 72.44 63.67 73.3 63.14 73.83C62.87 74.09 62.53 74.22 62.18 74.22ZM25.95 36.61C23.27 39.31 23.27 43.69 25.95 46.38C28.54 48.98 33.09 48.98 35.69 46.38C35.69 46.38 35.69 46.38 35.69 46.38L35.69 46.38C35.99 46.07 36.28 45.74 36.52 45.38C38.38 42.66 38.03 38.97 35.69 36.61C33.09 34.02 28.55 34.02 25.95 36.61ZM102.48 74.22C102.14 74.22 101.79 74.09 101.52 73.83C101 73.3 101 72.44 101.52 71.91L126.17 47.27C123.34 43.49 123.64 38.12 127.06 34.7C130.8 30.97 136.88 30.97 140.63 34.7C140.63 34.7 140.63 34.7 140.64 34.71C144.36 38.45 144.36 44.55 140.64 48.29C137.37 51.55 132.23 52.02 128.42 49.43C128.31 49.35 128.2 49.27 128.09 49.18L103.44 73.83C103.18 74.09 102.83 74.22 102.48 74.22ZM128.98 46.38C129.27 46.66 129.62 46.96 129.97 47.2C132.68 49.05 136.38 48.71 138.72 46.38C141.39 43.69 141.39 39.31 138.72 36.62C136.02 33.94 131.65 33.94 128.98 36.62C126.29 39.31 126.29 43.69 128.97 46.38C128.97 46.38 128.98 46.38 128.98 46.38ZM9.49 102.6C4.19 102.6 -0.12 98.3 -0.12 93C-0.12 87.71 4.19 83.41 9.49 83.41C14.1 83.41 18.06 86.7 18.92 91.23C18.94 91.37 18.97 91.51 18.99 91.65L53.83 91.65C54.58 91.65 55.19 92.26 55.19 93C55.19 93.75 54.58 94.36 53.83 94.36L18.98 94.36C18.32 99.01 14.32 102.6 9.49 102.6ZM9.49 86.11C5.69 86.11 2.59 89.21 2.59 93C2.59 96.8 5.69 99.89 9.49 99.89C13.28 99.89 16.36 96.8 16.36 93C16.36 92.51 16.33 92.11 16.26 91.74C15.64 88.48 12.8 86.11 9.49 86.11ZM155.18 102.6C150.58 102.6 146.61 99.32 145.74 94.8C145.71 94.65 145.69 94.5 145.67 94.36L110.83 94.36C110.08 94.36 109.47 93.75 109.47 93C109.47 92.26 110.08 91.65 110.83 91.65L145.67 91.65C146.33 87 150.34 83.41 155.18 83.41C160.47 83.41 164.77 87.71 164.77 93C164.77 98.3 160.47 102.6 155.18 102.6ZM155.18 86.11C151.37 86.11 148.28 89.21 148.28 93C148.28 93.46 148.33 93.89 148.4 94.32C149.02 97.54 151.87 99.89 155.18 99.89C158.97 99.89 162.06 96.8 162.06 93C162.06 89.21 158.97 86.11 155.18 86.11ZM133.84 154.1C131.38 154.1 128.93 153.17 127.06 151.3C123.79 148.04 123.31 142.91 125.91 139.11C125.99 138.99 126.08 138.87 126.17 138.76L101.52 114.12C101 113.59 101 112.73 101.52 112.2C102.05 111.67 102.91 111.67 103.44 112.2L128.09 136.84C131.83 134.03 137.21 134.32 140.63 137.73C142.45 139.55 143.44 141.95 143.44 144.52C143.44 147.09 142.45 149.5 140.63 151.31C140.63 151.31 140.63 151.31 140.63 151.31C138.76 153.17 136.3 154.1 133.84 154.1ZM128.97 139.65C128.67 139.95 128.39 140.29 128.14 140.65C126.28 143.37 126.63 147.05 128.98 149.39C131.66 152.07 136.02 152.07 138.72 149.39C140.02 148.09 140.73 146.36 140.73 144.52C140.73 142.68 140.02 140.95 138.72 139.65C136.03 136.97 131.66 136.97 128.98 139.64C128.98 139.64 128.98 139.65 128.98 139.65C128.98 139.65 128.97 139.65 128.97 139.65ZM30.82 154.11C28.25 154.11 25.85 153.12 24.04 151.31C22.22 149.5 21.22 147.09 21.22 144.52C21.22 141.96 22.22 139.55 24.04 137.73C27.29 134.47 32.41 133.99 36.22 136.58C36.35 136.67 36.46 136.76 36.58 136.85L61.22 112.2C61.75 111.67 62.61 111.67 63.14 112.2C63.67 112.73 63.67 113.59 63.14 114.12L38.5 138.76C39.74 140.41 40.41 142.41 40.41 144.52C40.41 147.09 39.42 149.5 37.6 151.31C35.79 153.12 33.39 154.11 30.82 154.11ZM30.84 137.62C29.06 137.62 27.28 138.31 25.95 139.65C24.65 140.95 23.93 142.68 23.93 144.52C23.93 146.36 24.65 148.09 25.95 149.39L25.95 149.39C28.54 151.99 33.09 151.99 35.69 149.39C36.99 148.09 37.71 146.36 37.71 144.52C37.71 142.68 36.99 140.95 35.69 139.65C35.69 139.65 35.69 139.65 35.69 139.64C35.37 139.33 35.02 139.06 34.66 138.8C33.51 138.01 32.17 137.62 30.84 137.62ZM82.33 175.46C77.03 175.46 72.72 171.15 72.72 165.86C72.72 161.25 76.02 157.27 80.56 156.42C80.69 156.4 80.83 156.37 80.97 156.35L80.97 121.5C80.97 120.75 81.58 120.15 82.33 120.15C83.08 120.15 83.69 120.75 83.69 121.5L83.69 156.36C88.34 157.02 91.93 161.03 91.93 165.86C91.93 171.15 87.62 175.46 82.33 175.46ZM82.33 158.97C81.84 158.97 81.43 159.01 81.08 159.08C77.79 159.7 75.43 162.55 75.43 165.86C75.43 169.66 78.52 172.75 82.33 172.75C86.13 172.75 89.22 169.66 89.22 165.86C89.22 162.06 86.13 158.97 82.33 158.97Z" />
		<path id="Path 334" class="shp3" d="M97.9 78.38C91.55 79.3 86.2 78.53 82.33 75.27C77.66 78.38 72.45 79.45 66.67 78.38C66.67 103.81 64.69 98.23 82.33 114.21C100.66 97.51 97.9 103.24 97.9 78.38Z" />
	</g>
</svg>