<svg xmlns="http://www.w3.org/2000/svg" viewBox="0 0 927 792" width="927" height="792">
	<defs>
		<clipPath clipPathUnits="userSpaceOnUse" id="cp1">
			<path d="M-37 -104L963 -104L963 896L-37 896Z" />
		</clipPath>
		<clipPath clipPathUnits="userSpaceOnUse" id="cp2">
			<path d="M513.46 491.01C512.84 493.36 513.05 497.19 513.84 499.48C523.86 529.04 536.59 551.38 548.21 574.66C555.13 588.49 552.56 588.32 556 594.57C555.6 594.84 555.79 595.36 555.36 595.62C553.67 602.33 552.49 609.08 550.8 615.8C549.18 607.73 546.99 598.72 543.14 591.44C543.91 586.73 544.66 581.96 544.19 577.21C543.74 572.46 541.9 567.66 538.26 564.58C536.38 563 533.83 562.04 531.29 561.87C527.5 561.59 524.16 564.35 523.6 568.09C523.07 571.65 522.58 575.97 521.59 578.92C518.57 588.04 516.07 592.19 516.07 592.51C516.07 601.44 521.59 599.98 525.62 635.87C528.74 663.82 564.74 682.29 584.34 702.47L605.23 768.17C629.48 758.45 652.67 746.02 674.93 731.57L658.34 672.96L658.58 584.55C659.54 580.98 660.31 567.86 662.37 558.72C665.83 543.4 652.16 524.93 651.2 524.33C647.37 521.93 639.21 521.97 639.21 521.97C639.21 521.97 631.27 512.84 624.08 509.95C616.91 507.08 608.76 508.04 608.76 508.04C608.76 508.04 599.66 500.38 590.57 497.02C581.47 493.68 575.24 499.91 575.24 499.91L566.3 513.84C563.67 517.95 564.03 523.45 567.52 526.88C571.8 531.09 577.28 529.12 580.04 529.12C583.87 529.12 585.3 524.8 585.3 524.8C585.3 524.8 586.24 547.31 585.3 550.18L585.28 550.2C584.3 553.07 577.15 559.77 577.15 559.77L553.22 528.09C546.29 518.94 536.47 502.99 531.67 492.55C530.96 491.03 530.11 489.59 528.97 488.35C526.98 486.09 523.89 484.59 520.95 484.59C517.73 484.59 514.68 486.4 513.46 491.01Z" />
		</clipPath>
		<clipPath clipPathUnits="userSpaceOnUse" id="cp3">
			<path d="M360.85 491.65C358.94 496.51 353.23 506.03 353.23 506.03L342.64 535.01C343.04 541.55 339.28 573.91 339.28 573.91L335.47 572.18L329.33 553.18L333.99 533.72C333.99 533.72 344.14 522.53 342.44 515.96C340.75 509.41 332.09 511.32 332.09 511.32L314.75 532.03L309.66 532.03L297.61 547.27C294.36 557.11 292.71 567.37 292.71 577.66C292.71 584.4 293.42 591.18 294.85 597.84L297.61 610.7L297.61 693.82C297.61 693.82 289.37 707.14 289.37 708.4C289.37 708.97 285.97 719.48 281.22 732.58C301.95 744.78 319.82 754.22 332.47 759.2C338.42 761.56 344.43 763.8 350.47 765.94C358.07 744.61 366.95 721.77 371.85 716.44C381.56 705.87 400.59 685.56 400.59 685.56C400.59 685.56 422.23 650.83 424.75 639.27C426.85 629.79 431.92 612.59 433.68 606.68C434.08 605.35 434.25 603.94 434.17 602.55C434.02 599.42 433.72 593.37 433.72 588.02C433.72 580.4 438.23 572.78 437.4 568.84C436.54 564.88 430.92 565.46 430.92 565.46C412.02 566.57 409.47 596.19 409.47 596.19L402.71 616.48L400.59 585.96L400.8 546.63C400.8 546.63 406.52 508.98 403.97 503.08C401.45 497.15 396.16 497.36 396.16 497.36C385.16 494.6 384.52 510.46 384.52 510.46L375.23 542.82L371.42 577.72L368.25 576.03C368.25 576.03 366.76 539.01 367.4 538.39C368.04 537.75 371.85 512.79 371.85 512.79C371.85 512.79 373.95 508.15 376.49 502.22C379.02 496.29 376.49 491.65 376.49 491.65C374.59 487.75 371.79 486.3 369.06 486.3C365.44 486.3 361.94 488.87 360.85 491.65Z" />
		</clipPath>
		<clipPath clipPathUnits="userSpaceOnUse" id="cp4">
			<path d="M768.15 530.23C768.15 572.99 786.38 608.24 809.88 613.23C811.75 613.61 813.67 613.83 815.6 613.83C837.13 613.83 855.32 588.57 861.12 553.97C862.38 546.46 863.06 538.48 863.06 530.23C863.06 484.07 841.81 467.74 815.6 467.74C789.4 467.74 768.15 484.07 768.15 530.23Z" />
		</clipPath>
	</defs>
	<style>
		tspan { white-space:pre }
		.shp0 { fill: #92e3a9 } 
		.shp1 { opacity: 0.698;fill: #ffffff } 
		.shp2 { opacity: 0.2;fill: #263238 } 
		.shp3 { opacity: 0.2;fill: #000000 } 
		.shp4 { fill: #ffffff;stroke: #263238;stroke-width: 2 } 
		.shp5 { fill: #263238;stroke: #ffffff;stroke-width: 2 } 
		.shp6 { opacity: 0.2;fill: #ffffff } 
		.shp7 { fill: #92e3a9;stroke: #263238;stroke-linecap:round;stroke-linejoin:round;stroke-width: 2 } 
		.shp8 { fill: #263238 } 
		.shp9 { fill: #ffffff } 
		.shp10 { opacity: 0.502;fill: #ffffff } 
		.shp11 { fill: none;stroke: #263238;stroke-width: 2 } 
		.shp12 { fill: none;stroke: #263238;stroke-linecap:round;stroke-linejoin:round;stroke-width: 2 } 
		.shp13 { fill: #ffffff;stroke: #263238;stroke-linecap:round;stroke-linejoin:round;stroke-width: 2 } 
		.shp14 { fill: #757575;stroke: #263238;stroke-linecap:round;stroke-linejoin:round;stroke-width: 2 } 
		.shp15 { fill: #999999;stroke: #263238;stroke-linecap:round;stroke-linejoin:round;stroke-width: 2 } 
		.shp16 { fill: #bfbfbf;stroke: #263238;stroke-linecap:round;stroke-linejoin:round;stroke-width: 2 } 
		.shp17 { opacity: 0.102;fill: #ffffff } 
	</style>
	<g id="Page 1" clip-path="url(#cp1)">
		<path id="Path 1" class="shp0" d="M926.44 387.66C926.44 406.88 924.34 426.02 919.78 444.62C918.28 450.74 916.48 456.84 914.42 462.84C913.82 464.56 913.22 466.28 912.58 467.98C912.06 469.38 911.52 470.78 910.98 472.16C910.82 472.54 910.68 472.92 910.52 473.3C909.94 474.74 909.36 476.18 908.74 477.6C908.64 477.82 908.54 478.06 908.44 478.3C907.84 479.7 907.22 481.1 906.6 482.48C906.32 483.1 906.04 483.7 905.76 484.3C905.2 485.54 904.62 486.76 904.02 487.98C903.4 489.28 902.76 490.56 902.12 491.84C901.88 492.3 901.66 492.76 901.42 493.2C900.86 494.3 900.28 495.4 899.72 496.5C899.26 497.36 898.8 498.2 898.34 499.04C896.22 502.96 894 506.82 891.68 510.64C890.74 512.2 889.78 513.76 888.8 515.3C888.58 515.68 888.34 516.06 888.1 516.44C886.98 518.2 885.84 519.96 884.68 521.72C883.74 523.14 882.8 524.56 881.82 525.98C880.98 527.22 880.14 528.44 879.28 529.68C879.1 529.94 878.92 530.2 878.72 530.46C877.84 531.74 876.92 533.02 876.02 534.3C874.9 535.88 873.76 537.42 872.62 538.98C872.38 539.3 872.16 539.62 871.92 539.92C870.62 541.7 869.28 543.46 867.96 545.2C867.16 546.24 866.36 547.3 865.54 548.32C864.1 550.22 862.62 552.1 861.12 553.98C859.7 555.78 858.26 557.56 856.8 559.34C856.64 559.54 856.48 559.72 856.32 559.92C854.88 561.7 853.44 563.46 851.96 565.22C851.54 565.76 851.08 566.3 850.64 566.82C849.3 568.44 847.94 570.06 846.58 571.66C842.66 576.3 838.7 580.9 834.72 585.46C826.62 594.78 818.34 604.04 809.9 613.24C802.88 620.84 795.76 628.4 788.5 635.82C753.66 671.6 715.94 704.98 674.92 731.58C669.82 734.88 664.68 738.1 659.48 741.16C657.58 742.28 655.68 743.4 653.78 744.5C653.46 744.68 653.12 744.88 652.8 745.06C650.84 746.18 648.88 747.28 646.9 748.36C644.88 749.48 642.86 750.58 640.82 751.64C639.9 752.12 638.98 752.6 638.06 753.08C634.08 755.16 630.06 757.16 626 759.08C623.82 760.12 621.64 761.12 619.44 762.1C617.42 763.02 615.38 763.92 613.34 764.8C612.5 765.16 611.68 765.52 610.84 765.86C608.98 766.66 607.1 767.42 605.22 768.18C601.6 769.64 597.94 771.04 594.26 772.36C592.86 772.88 591.44 773.38 590.02 773.88C589.22 774.16 588.42 774.42 587.62 774.7C586.3 775.14 584.98 775.58 583.66 776C582.52 776.38 581.36 776.74 580.22 777.1C580.18 777.12 580.14 777.12 580.1 777.14C577.84 777.84 575.58 778.52 573.32 779.18C569.74 780.22 566.16 781.18 562.56 782.1C560.18 782.7 557.8 783.26 555.4 783.8C553.14 784.32 550.88 784.8 548.6 785.28C548.42 785.32 548.24 785.36 548.06 785.38C545.7 785.86 543.32 786.32 540.94 786.74C539.72 786.96 538.52 787.16 537.3 787.36C536.08 787.56 534.86 787.76 533.62 787.94C532.52 788.12 531.4 788.28 530.3 788.42C528.96 788.62 527.6 788.8 526.26 788.98C512.04 790.8 497.78 791.56 483.52 791.4C482.66 791.4 481.82 791.38 480.96 791.36C468.04 791.12 455.12 790.12 442.26 788.46C441.32 788.34 440.38 788.22 439.44 788.08C437.82 787.86 436.2 787.64 434.58 787.4C433.32 787.2 432.06 787 430.8 786.8C425.46 785.96 420.16 785 414.86 783.92C413.68 783.7 412.52 783.46 411.36 783.2C407.8 782.46 404.22 781.66 400.68 780.82C398.3 780.26 395.94 779.68 393.58 779.08C392.4 778.78 391.22 778.48 390.04 778.16C388.86 777.86 387.68 777.54 386.5 777.22C381.8 775.96 377.12 774.6 372.46 773.18C367.04 771.54 361.66 769.8 356.3 767.96C354.36 767.3 352.4 766.62 350.46 765.94C344.44 763.8 338.42 761.54 332.48 759.2C331.42 758.78 330.34 758.34 329.22 757.88C328.36 757.52 327.5 757.14 326.6 756.74C326.02 756.48 325.44 756.22 324.84 755.94C320.96 754.18 316.74 752.12 312.2 749.8C311.44 749.4 310.66 749 309.88 748.6C307.1 747.14 304.2 745.6 301.22 743.96C294.96 740.52 288.26 736.72 281.22 732.58C201.2 685.5 78.7 597.14 49.94 563.64C48.48 561.94 47.06 560.22 45.64 558.48C44.54 557.12 43.44 555.74 42.38 554.34C41.4 553.08 40.44 551.82 39.5 550.52C38.66 549.4 37.84 548.26 37.04 547.1C36.28 546.04 35.52 544.96 34.78 543.88C34.74 543.8 34.68 543.72 34.62 543.64C33.72 542.3 32.82 540.96 31.94 539.6C31.1 538.3 30.26 537 29.46 535.68C29.06 535.06 28.68 534.42 28.3 533.78C27.4 532.3 26.52 530.82 25.66 529.34C25.66 529.32 25.66 529.32 25.64 529.3C24.72 527.66 23.8 526.02 22.9 524.36C21.34 521.46 19.84 518.54 18.44 515.58C18.08 514.82 17.72 514.04 17.36 513.28C14.52 507.2 12.02 501 9.88 494.7C9.1 492.5 8.4 490.28 7.72 488.06C6.86 485.2 6.08 482.32 5.36 479.44C5.22 478.86 5.08 478.3 4.96 477.72C4.6 476.22 4.26 474.7 3.96 473.18C3.5 471.06 3.12 468.94 2.76 466.8C2.68 466.28 2.58 465.76 2.52 465.24C2.34 464.14 2.18 463.04 2.04 461.92C1.86 460.6 1.7 459.26 1.56 457.94C1.5 457.48 1.46 457.04 1.42 456.6C1.3 455.46 1.22 454.32 1.12 453.2C1.12 453.1 1.12 453 1.1 452.92C1 451.56 0.92 450.22 0.88 448.88C0.86 448.74 0.86 448.62 0.86 448.5C0.8 447.08 0.76 445.66 0.74 444.24C0.73 443.71 0.75 443.18 0.74 442.65C0.74 441.82 0.74 440.99 0.75 440.16C0.78 438.07 0.84 435.98 0.96 433.9C1.04 432.54 1.14 431.18 1.26 429.84C1.5 427.16 1.82 424.48 2.22 421.82C2.42 420.46 2.64 419.1 2.9 417.76C3.38 415.06 3.96 412.36 4.64 409.66C6.44 402.56 8.74 395.72 11.54 389.16C13.66 384.1 16.06 379.24 18.72 374.48C18.92 374.08 19.16 373.66 19.4 373.26C30.18 354.28 44.84 337.44 61.36 321.84C63.12 320.16 64.9 318.52 66.72 316.9C68.62 315.16 70.54 313.46 72.48 311.74C72.6 311.64 72.72 311.52 72.84 311.42C75.94 308.7 79.08 306.02 82.26 303.36C87.16 299.26 92.14 295.24 97.16 291.24C97.32 291.1 97.5 290.98 97.66 290.84C101.96 287.44 106.3 284.06 110.62 280.7C117.42 275.44 124.24 270.2 130.92 264.98C132.7 263.6 134.46 262.22 136.2 260.84C138.14 259.32 140.04 257.8 141.94 256.28C159.86 241.92 175.3 226.64 189.66 211C192.44 207.96 195.2 204.9 197.94 201.82C199.24 200.34 200.54 198.88 201.82 197.4C220.08 176.6 237.06 155.56 255.96 135.7C260.46 130.96 265.06 126.3 269.8 121.72C273.8 117.9 277.86 114.14 282.08 110.46C286.9 106.22 291.86 102.08 297.06 98.08C304.16 92.56 311.64 87.26 319.64 82.2C321.6 80.94 323.54 79.72 325.5 78.52C524.92 -45.42 671.7 -4.96 769.62 78.52C777 84.78 784.12 91.32 790.94 98.08C795.1 102.1 799.12 106.26 803.02 110.46C803.46 110.9 803.86 111.36 804.28 111.84C807.02 114.76 809.68 117.7 812.28 120.66C813.06 121.54 813.82 122.42 814.58 123.3C815.72 124.62 816.86 125.94 817.98 127.28C819.36 128.9 820.72 130.54 822.08 132.18C822.94 133.22 823.78 134.26 824.62 135.3C830.08 142.02 835.28 148.84 840.24 155.7C841.24 157.06 842.22 158.44 843.2 159.82C850.04 169.42 856.4 179.12 862.3 188.76C863.14 190.14 863.98 191.52 864.8 192.88C865.64 194.26 866.46 195.64 867.26 197.02C868.06 198.38 868.86 199.76 869.64 201.12C870.44 202.5 871.22 203.86 871.98 205.22C872.74 206.58 873.5 207.96 874.26 209.32C875.04 210.68 875.78 212.04 876.48 213.38C877.22 214.74 877.94 216.1 878.66 217.44C879.38 218.78 880.08 220.14 880.78 221.48C881.46 222.82 882.16 224.16 882.84 225.48C883.52 226.82 884.18 228.16 884.84 229.48C887.46 234.76 889.94 239.98 892.3 245.12C893.46 247.72 894.62 250.3 895.72 252.84C900.7 264.28 904.96 275.22 908.44 285.4C908.46 285.44 908.48 285.5 908.48 285.54C908.82 286.52 909.14 287.48 909.46 288.44C909.8 289.44 910.12 290.42 910.44 291.4C910.68 292.16 910.94 292.9 911.16 293.66C911.52 294.78 911.88 295.9 912.22 297.04C912.6 298.26 912.96 299.48 913.3 300.7C913.96 302.94 914.6 305.18 915.2 307.44C915.72 309.34 916.22 311.24 916.7 313.16C916.8 313.52 916.9 313.86 916.98 314.22C917.06 314.52 917.12 314.82 917.2 315.12C917.48 316.24 917.76 317.36 918.02 318.5C918.74 321.48 919.4 324.48 920.02 327.48C920.36 329.12 920.7 330.74 921 332.38C921.06 332.68 921.12 332.98 921.18 333.3C921.48 334.84 921.76 336.38 922.02 337.92C922.38 339.98 922.72 342.06 923.02 344.12C923.28 345.68 923.5 347.26 923.72 348.84C923.74 349.06 923.78 349.3 923.82 349.54C923.96 350.58 924.1 351.64 924.22 352.7C924.34 353.58 924.44 354.46 924.54 355.32C924.9 358.5 925.22 361.66 925.48 364.84C925.54 365.56 925.6 366.28 925.66 367C925.74 368.2 925.82 369.42 925.9 370.62C925.98 371.96 926.06 373.3 926.12 374.66C926.18 375.7 926.22 376.72 926.26 377.76C926.32 379.28 926.36 380.82 926.38 382.34C926.42 384.1 926.44 385.88 926.44 387.66Z" />
		<path id="Path 2" class="shp1" d="M926.44 387.66C926.44 406.88 924.34 426.02 919.78 444.62C918.28 450.74 916.48 456.84 914.42 462.84C913.82 464.56 913.22 466.28 912.58 467.98C912.06 469.38 911.52 470.78 910.98 472.16C910.82 472.54 910.68 472.92 910.52 473.3C909.94 474.74 909.36 476.18 908.74 477.6C908.64 477.82 908.54 478.06 908.44 478.3C907.84 479.7 907.22 481.1 906.6 482.48C906.32 483.1 906.04 483.7 905.76 484.3C905.2 485.54 904.62 486.76 904.02 487.98C903.4 489.28 902.76 490.56 902.12 491.84C901.88 492.3 901.66 492.76 901.42 493.2C900.86 494.3 900.28 495.4 899.72 496.5C899.26 497.36 898.8 498.2 898.34 499.04C896.22 502.96 894 506.82 891.68 510.64C890.74 512.2 889.78 513.76 888.8 515.3C888.58 515.68 888.34 516.06 888.1 516.44C886.98 518.2 885.84 519.96 884.68 521.72C883.74 523.14 882.8 524.56 881.82 525.98C880.98 527.22 880.14 528.44 879.28 529.68C879.1 529.94 878.92 530.2 878.72 530.46C877.84 531.74 876.92 533.02 876.02 534.3C874.9 535.88 873.76 537.42 872.62 538.98C872.38 539.3 872.16 539.62 871.92 539.92C870.62 541.7 869.28 543.46 867.96 545.2C867.16 546.24 866.36 547.3 865.54 548.32C864.1 550.22 862.62 552.1 861.12 553.98C859.7 555.78 858.26 557.56 856.8 559.34C856.64 559.54 856.48 559.72 856.32 559.92C854.88 561.7 853.44 563.46 851.96 565.22C851.54 565.76 851.08 566.3 850.64 566.82C849.3 568.44 847.94 570.06 846.58 571.66C842.66 576.3 838.7 580.9 834.72 585.46C826.62 594.78 818.34 604.04 809.9 613.24C802.88 620.84 795.76 628.4 788.5 635.82C753.66 671.6 715.94 704.98 674.92 731.58C669.82 734.88 664.68 738.1 659.48 741.16C657.58 742.28 655.68 743.4 653.78 744.5C653.46 744.68 653.12 744.88 652.8 745.06C650.84 746.18 648.88 747.28 646.9 748.36C644.88 749.48 642.86 750.58 640.82 751.64C639.9 752.12 638.98 752.6 638.06 753.08C634.08 755.16 630.06 757.16 626 759.08C623.82 760.12 621.64 761.12 619.44 762.1C617.42 763.02 615.38 763.92 613.34 764.8C612.5 765.16 611.68 765.52 610.84 765.86C608.98 766.66 607.1 767.42 605.22 768.18C601.6 769.64 597.94 771.04 594.26 772.36C592.86 772.88 591.44 773.38 590.02 773.88C589.22 774.16 588.42 774.42 587.62 774.7C586.3 775.14 584.98 775.58 583.66 776C582.52 776.38 581.36 776.74 580.22 777.1C580.18 777.12 580.14 777.12 580.1 777.14C577.84 777.84 575.58 778.52 573.32 779.18C569.74 780.22 566.16 781.18 562.56 782.1C560.18 782.7 557.8 783.26 555.4 783.8C553.14 784.32 550.88 784.8 548.6 785.28C548.42 785.32 548.24 785.36 548.06 785.38C545.7 785.86 543.32 786.32 540.94 786.74C539.72 786.96 538.52 787.16 537.3 787.36C536.08 787.56 534.86 787.76 533.62 787.94C532.52 788.12 531.4 788.28 530.3 788.42C528.96 788.62 527.6 788.8 526.26 788.98C512.04 790.8 497.78 791.56 483.52 791.4C482.66 791.4 481.82 791.38 480.96 791.36C468.04 791.12 455.12 790.12 442.26 788.46C441.32 788.34 440.38 788.22 439.44 788.08C437.82 787.86 436.2 787.64 434.58 787.4C433.32 787.2 432.06 787 430.8 786.8C425.46 785.96 420.16 785 414.86 783.92C413.68 783.7 412.52 783.46 411.36 783.2C407.8 782.46 404.22 781.66 400.68 780.82C398.3 780.26 395.94 779.68 393.58 779.08C392.4 778.78 391.22 778.48 390.04 778.16C388.86 777.86 387.68 777.54 386.5 777.22C381.8 775.96 377.12 774.6 372.46 773.18C367.04 771.54 361.66 769.8 356.3 767.96C354.36 767.3 352.4 766.62 350.46 765.94C344.44 763.8 338.42 761.54 332.48 759.2C331.42 758.78 330.34 758.34 329.22 757.88C328.36 757.52 327.5 757.14 326.6 756.74C326.02 756.48 325.44 756.22 324.84 755.94C320.96 754.18 316.74 752.12 312.2 749.8C311.44 749.4 310.66 749 309.88 748.6C307.1 747.14 304.2 745.6 301.22 743.96C294.96 740.52 288.26 736.72 281.22 732.58C201.2 685.5 78.7 597.14 49.94 563.64C48.48 561.94 47.06 560.22 45.64 558.48C44.54 557.12 43.44 555.74 42.38 554.34C41.4 553.08 40.44 551.82 39.5 550.52C38.66 549.4 37.84 548.26 37.04 547.1C36.28 546.04 35.52 544.96 34.78 543.88C34.74 543.8 34.68 543.72 34.62 543.64C33.72 542.3 32.82 540.96 31.94 539.6C31.1 538.3 30.26 537 29.46 535.68C29.06 535.06 28.68 534.42 28.3 533.78C27.4 532.3 26.52 530.82 25.66 529.34C25.66 529.32 25.66 529.32 25.64 529.3C24.72 527.66 23.8 526.02 22.9 524.36C21.34 521.46 19.84 518.54 18.44 515.58C18.08 514.82 17.72 514.04 17.36 513.28C14.52 507.2 12.02 501 9.88 494.7C9.1 492.5 8.4 490.28 7.72 488.06C6.86 485.2 6.08 482.32 5.36 479.44C5.22 478.86 5.08 478.3 4.96 477.72C4.6 476.22 4.26 474.7 3.96 473.18C3.5 471.06 3.1 468.94 2.76 466.8C2.68 466.28 2.58 465.76 2.52 465.24C2.34 464.14 2.18 463.04 2.04 461.92C1.86 460.6 1.7 459.26 1.56 457.94C1.5 457.48 1.46 457.04 1.42 456.6C1.3 455.46 1.22 454.32 1.12 453.2C1.12 453.1 1.12 453 1.1 452.92C1 451.56 0.92 450.22 0.88 448.88C0.86 448.74 0.86 448.62 0.86 448.5C0.8 447.08 0.76 445.66 0.74 444.24C0.68 440.78 0.76 437.34 0.96 433.9C1.04 432.54 1.14 431.18 1.26 429.84C1.5 427.16 1.82 424.48 2.22 421.82C2.42 420.46 2.64 419.1 2.9 417.76C3.38 415.06 3.96 412.36 4.64 409.66C6.44 402.56 8.74 395.72 11.54 389.16C13.66 384.1 16.06 379.24 18.72 374.48C18.92 374.08 19.16 373.66 19.4 373.26C30.18 354.28 44.84 337.44 61.36 321.84C62.3 320.94 63.24 320.06 64.2 319.18L66.72 316.9C68.62 315.16 70.54 313.46 72.48 311.74C72.6 311.64 72.72 311.52 72.84 311.42C75.94 308.7 79.08 306.02 82.26 303.36C87.16 299.26 92.14 295.24 97.16 291.24C97.32 291.1 97.5 290.98 97.66 290.84C101.96 287.44 106.3 284.06 110.62 280.7C112.8 279.02 114.96 277.34 117.14 275.66C121.76 272.1 126.38 268.54 130.92 264.98C132.7 263.6 134.46 262.22 136.2 260.84C138.14 259.32 140.04 257.8 141.94 256.28C159.86 241.92 175.3 226.64 189.66 211C192.44 207.96 195.2 204.9 197.94 201.82C199.24 200.34 200.54 198.88 201.82 197.4C220.08 176.6 237.06 155.56 255.96 135.7C260.46 130.96 265.06 126.3 269.8 121.72C273.8 117.9 277.86 114.14 282.08 110.46C286.9 106.22 291.86 102.08 297.06 98.08C304.16 92.56 311.64 87.26 319.64 82.2C321.6 80.94 323.54 79.72 325.5 78.52C524.92 -45.42 671.7 -4.96 769.62 78.52C777 84.78 784.12 91.32 790.94 98.08C795.1 102.1 799.12 106.26 803.02 110.46C803.46 110.9 803.86 111.36 804.28 111.84C807.02 114.76 809.68 117.7 812.28 120.66C813.06 121.54 813.82 122.42 814.58 123.3C815.72 124.62 816.86 125.94 817.98 127.28C819.36 128.9 820.72 130.54 822.08 132.18C822.94 133.22 823.78 134.26 824.62 135.3C830.08 142.02 835.28 148.84 840.24 155.7C841.24 157.06 842.22 158.44 843.2 159.82C850.04 169.42 856.4 179.12 862.3 188.76C863.14 190.14 863.98 191.52 864.8 192.88C865.64 194.26 866.46 195.64 867.26 197.02C868.06 198.38 868.86 199.76 869.64 201.12C870.44 202.5 871.22 203.86 871.98 205.22C872.74 206.58 873.5 207.96 874.26 209.32C875.04 210.68 875.78 212.04 876.48 213.38C877.22 214.74 877.94 216.1 878.66 217.44C879.38 218.78 880.08 220.14 880.78 221.48C881.46 222.82 882.16 224.16 882.84 225.48C883.52 226.82 884.18 228.16 884.84 229.48C887.48 234.76 889.96 239.98 892.3 245.12C893.46 247.72 894.62 250.3 895.72 252.84C900.7 264.28 904.96 275.22 908.44 285.4C908.46 285.44 908.48 285.5 908.48 285.54C908.82 286.52 909.14 287.48 909.46 288.44C909.8 289.44 910.12 290.42 910.44 291.4C910.68 292.16 910.94 292.9 911.16 293.66C911.52 294.78 911.88 295.9 912.22 297.04C912.6 298.26 912.96 299.48 913.3 300.7C913.96 302.94 914.6 305.18 915.2 307.44C915.72 309.34 916.22 311.24 916.7 313.16C916.8 313.52 916.9 313.86 916.98 314.22C917.06 314.52 917.12 314.82 917.2 315.12C917.48 316.24 917.76 317.36 918.02 318.5C918.74 321.48 919.4 324.48 920.02 327.48C920.36 329.12 920.7 330.74 921 332.38C921.06 332.68 921.12 332.98 921.18 333.3C921.48 334.84 921.76 336.38 922.02 337.92C922.38 339.98 922.72 342.06 923.02 344.12C923.28 345.68 923.5 347.26 923.72 348.84C923.74 349.06 923.78 349.3 923.82 349.54C923.96 350.58 924.1 351.64 924.22 352.7C924.34 353.58 924.44 354.46 924.54 355.32C924.9 358.5 925.22 361.66 925.48 364.84C925.54 365.56 925.6 366.28 925.66 367C925.74 368.2 925.82 369.42 925.9 370.62C925.98 371.96 926.06 373.3 926.12 374.66C926.18 375.7 926.22 376.72 926.26 377.76C926.32 379.28 926.36 380.82 926.38 382.34C926.42 384.1 926.44 385.88 926.44 387.66Z" />
		<path id="Path 3" class="shp2" d="M27.28 420.52C26.88 420.26 26.98 420.08 27.28 420.52Z" />
		<path id="Path 4" class="shp3" d="M214.34 402.88C212.3 416.48 202.26 427.54 189.2 431.82L184.24 433.44C166.4 458.7 135.12 469.48 108.46 453.82L100.66 449.24L78.82 423.28C78.74 423.3 78.64 423.32 78.56 423.34C71.64 424.78 63.82 423.72 58.7 418.84C57.88 423.12 52.3 425.64 48.56 423.44C44.82 421.24 44.34 415.12 47.68 412.34C43.28 416.22 36.48 414.44 32.24 410.2C32.06 398.62 33.28 387.04 36.14 375.62C37.94 368.52 40.24 361.68 43.04 355.12C45.16 350.06 47.56 345.2 50.22 340.44C50.42 340.04 50.66 339.62 50.9 339.22C54.84 332.26 59.3 325.6 64.2 319.18L66.72 316.9C68.62 315.16 70.54 313.46 72.48 311.74C72.6 311.64 72.72 311.52 72.84 311.42C75.94 308.7 79.08 306.02 82.26 303.36C87.16 299.26 92.14 295.24 97.16 291.24C97.32 291.1 97.5 290.98 97.66 290.84C101.96 287.44 106.3 284.06 110.62 280.7C112.8 279.02 114.96 277.34 117.14 275.66C118.46 275.82 119.74 276.12 120.98 276.56C126.32 278.42 127.24 283.32 130.94 286.68C135.86 291.18 140.58 283.62 148.16 283.86C171.46 284.58 162.42 308.48 173.8 305.48C222.94 292.52 214.68 355.38 193.32 369.18C205.92 379.62 216.78 386.52 214.34 402.88Z" />
		<path id="Path 5" class="shp4" d="M191.55 380.78C191.55 425.98 154.45 462.63 108.67 462.63C62.9 462.63 25.8 425.98 25.8 380.78C25.8 335.57 62.9 298.92 108.67 298.92C154.45 298.92 191.55 335.57 191.55 380.78Z" />
		<path id="Path 6" class="shp5" d="M184.24 377.46C184.24 418.68 150.41 452.1 108.67 452.1C66.94 452.1 33.11 418.68 33.11 377.46C33.11 336.25 66.94 302.83 108.67 302.83C150.41 302.83 184.24 336.25 184.24 377.46Z" />
		<path id="Path 7" class="shp0" d="M27.47 406.88C22.71 409.84 21.35 419.79 25.1 424.1C28.86 428.38 36.02 425.07 37.49 418.36C38.18 420.24 40.39 420.54 41.53 418.92C42.33 417.76 42.36 415.95 41.8 414.71C41.45 414.41 41.58 414.19 41.8 414.71C44.24 416.65 48.43 414.54 49.02 410.4C47.24 421.4 57.23 431 64.6 425.41C62.43 430.08 65.27 436.23 69.08 437.4C72.88 438.59 76.97 436.34 80.61 433.85C84.25 431.36 87.97 428.51 91.95 428.34C95.42 428.17 98.64 430.13 101.94 431.29C112.46 434.96 124.77 430.1 132.82 419.07C138.14 428.17 151.24 424.82 154.75 413.49C155.49 418.8 159.12 422.84 163.17 422.89C167.22 422.94 171.31 419.01 172.69 413.74L172.69 413.81C172.78 418.83 177.26 421.28 180.46 418.05C184.55 413.94 187.08 406.37 185.07 400.31C190.52 400.09 195.8 393.77 196.62 386.45C197.46 379.13 193.77 371.78 188.51 370.34C197.53 366.59 204.6 354.3 204.94 341.76C205.26 329.23 198.83 317.58 189.96 314.65C186.59 313.54 182.64 313.76 179.79 316.78C178.74 309.64 175.5 303.26 170.72 300.06C163.12 294.92 152.54 298.44 146.88 308C149.64 303.06 149.82 295.92 147.31 291.23C144.8 286.57 139.81 284.7 135.57 286.9C134.66 279.25 128.74 273.8 122.96 275.29C117.19 276.77 112.52 284.96 113.01 292.71C112.48 286.47 105.11 284.93 102.46 290.16C102.68 290.63 102.34 290.35 102.46 290.16C98.78 282.44 91.3 278.48 84.36 280.73C76.98 283.15 70.78 292.42 69.83 302.53C64.74 297.89 57.31 298.09 51.84 303.03C46.37 307.95 43.22 317.32 44.18 325.69C38.43 320.02 28.77 323.11 24.83 331.87C20.89 340.64 23.61 353.05 30.26 356.71C25.67 357.41 21.64 363.49 21.63 369.66C21.65 375.84 25.69 381.1 30.29 380.94C25.65 381.34 21.28 386.81 20.61 393.04C19.93 399.29 23.03 405.51 27.47 406.88Z" />
		<path id="Path 8" class="shp6" d="M103.66 378.2C101.35 376.26 98.39 375.32 95.57 376.21C92.74 377.1 90.15 380.02 89.5 383.64C88.86 387.26 90.53 391.25 93.31 391.94C96.68 392.78 100.14 389.01 103.58 389.42C104.81 389.56 105.93 390.24 107.13 390.58C112.06 391.96 117.05 387.53 121.25 383.36C122.72 381.89 124.23 380.38 125.23 378.37C126.24 376.37 126.64 373.73 125.77 371.8C124.55 369.1 121.55 368.88 119.04 369.4C114.01 370.44 109.12 373.31 105.11 377.59C105.26 376.58 105.41 375.57 105.56 374.56L103.66 378.2ZM175.9 368.35C174.58 367.23 173.21 366.09 171.62 365.71C170.03 365.33 168.14 365.88 167.1 367.59C165.67 369.94 166.48 373.43 168.21 375.11C169.94 376.79 172.27 377.15 174.48 377.45C176.76 377.77 179.65 377.69 180.82 375.05C181.68 373.12 181.06 370.68 179.86 369.29C178.66 367.89 177.01 367.29 175.41 366.73L175.9 368.35ZM62.81 327.49C58.17 330.22 54.53 335.85 53.34 342.12C52.98 344.01 52.99 346.36 54.25 347.28C55.15 347.92 56.32 347.56 57.36 347.18C61.79 345.58 66.22 343.98 70.64 342.38C68.52 343.54 66.34 344.74 64.62 346.77C62.9 348.79 61.72 351.84 62.22 354.6C62.81 357.84 65.59 359.69 68.24 359.48C70.9 359.26 73.39 357.43 75.59 355.33C77.92 353.09 80.23 350.03 80.33 346.42C80.44 342.81 76.94 339.68 74.73 342.13C79.79 340.08 84.65 336.99 89.05 333.03C90.65 331.6 92.22 330 93.25 327.89C94.27 325.78 94.66 323.05 93.79 321C89.46 310.82 83.48 326.5 80.68 328.04C75.36 330.95 69.56 323.51 62.81 327.49ZM41.47 373.38C40.97 375.45 41.24 377.9 42.52 379.14C43.8 380.39 46.12 379.81 46.76 377.78C43.79 379.14 40.62 380.68 38.72 383.96C36.83 387.23 37.18 392.74 40.09 393.78C41.91 394.44 43.89 393.17 45.6 391.89C50.45 388.26 55.08 384.14 59.45 379.59C58.07 383.53 61.15 387.71 64.43 387.87C67.7 388.02 70.81 385.57 73.67 383.22C77.18 380.33 81.21 376 80.4 371.03C79.69 366.71 75.33 365.04 71.94 366.53C68.54 368.02 65.94 371.64 63.52 375.11C65.43 371.56 62.9 366.61 59.66 366.25C56.52 365.9 53.33 368.54 51.32 371.62C55.03 368.82 55.98 362.08 51.08 361.6C47.89 361.29 42.31 369.93 41.47 373.38ZM142.53 352.17C139.78 351.02 136.26 353.53 135.45 357.23C134.64 360.93 136.71 364.97 139.63 365.36C137.47 365.73 135.38 367.23 133.96 369.43C133.17 370.65 132.56 372.19 132.71 373.7C132.93 375.95 134.79 377.32 136.59 377.3C138.38 377.27 140.11 376.19 141.76 375.14C139.98 375.46 138.1 375.84 136.67 377.32C135.24 378.8 134.57 381.78 135.81 383.3C136.84 384.58 138.58 384.25 140.02 383.65C143.26 382.3 146.3 379.97 148.79 376.91C150.57 379.38 153.25 381.08 155.96 380.36C158.67 379.63 161.03 375.82 160.24 372.56C159.69 370.23 157.77 368.86 155.84 368.68C153.91 368.5 151.96 369.3 150.09 370.18C152.02 368.34 154.07 366.3 154.81 363.42C155.56 360.55 154.13 356.83 151.8 357.2C149.18 357.62 147.76 362.24 145.67 363.99C143.18 361.11 148.06 354.49 142.53 352.17ZM95.73 341.2C92.71 343.95 91.59 349.07 91.71 353.62C91.85 358.65 93.55 363.93 97.14 365.73C101.86 368.1 107.92 362.67 108.92 356.07C109.91 349.47 106.67 343.01 102.1 340.23C102.1 340.23 98.75 338.45 95.73 341.2ZM129.16 333.72C129.56 334.15 129.97 334.57 130.37 335C128.4 331.85 124.13 331.68 121.68 334.65C119.22 337.62 119.11 343.09 121.45 345.79C123.78 348.48 128.07 347.83 130.17 344.45C133.58 346.28 138.14 345.21 140.63 341.33C143.12 337.45 142.69 330.98 139.43 328.79C136.17 326.6 131.08 330.5 131.34 335.3C130.88 334.65 130.41 334 129.94 333.35L129.16 333.72ZM165.82 339.04C163.4 342.15 160.89 345.46 159.95 349.59C159.01 353.72 160.34 358.82 163.53 359.66C166.7 360.5 169.79 356.96 171.67 353.36C173.37 350.1 174.7 346.09 173.82 342.56C172.94 339.03 168.92 337.15 166.84 340.04L165.82 339.04ZM113.25 317.67C112.1 314.33 108.32 313.36 105.79 315.49C103.26 317.63 102.26 322.14 103.29 325.55C104.31 328.97 107.07 331.15 109.98 331.38C113.59 331.67 117.93 327.68 117.2 323.21C118.71 325.73 121.49 326.6 124.07 326.12C126.64 325.64 129.05 324.01 131.32 322.23C134.39 319.82 137.69 316.17 137.46 311.75C137.27 308.22 134.63 305.65 131.85 305.5C129.08 305.33 126.31 307.15 124.15 309.59C122.45 311.51 121.02 313.83 119.19 315.54C117.36 317.24 114.89 318.24 112.98 317.03L113.25 317.67Z" />
		<path id="Path 9" class="shp7" d="M715.7 635.82L254.37 635.82L254.37 441.52L715.7 441.52L715.7 635.82Z" />
		<path id="Path 10" class="shp4" d="M307.41 477.31L264.01 477.31L264.01 453.28L307.41 453.28L307.41 477.31Z" />
		<path id="Path 11" class="shp4" d="M705.03 594.44L636.66 594.44L636.66 570.41L705.03 570.41L705.03 594.44Z" />
		<path id="Path 12" class="shp4" d="M705.03 507.31L662.83 507.31L662.83 483.28L705.03 483.28L705.03 507.31Z" />
		<path id="Path 13" class="shp4" d="M307.41 564.81L264.01 564.81L264.01 540.78L307.41 540.78L307.41 564.81Z" />
		<path id="Path 14" class="shp4" d="M299.14 535.87L264 535.87L264 511.84L299.14 511.84L299.14 535.87Z" />
		<path id="Path 15" class="shp4" d="M288.03 506.59L264 506.59L264 482.56L288.03 482.56L288.03 506.59Z" />
		<path id="Path 16" class="shp4" d="M318.7 506.59L294.67 506.59L294.67 482.56L318.7 482.56L318.7 506.59Z" />
		<path id="Path 17" class="shp4" d="M349.37 506.59L325.34 506.59L325.34 482.56L349.37 482.56L349.37 506.59Z" />
		<path id="Path 18" class="shp4" d="M380.03 506.59L356.01 506.59L356.01 482.56L380.03 482.56L380.03 506.59Z" />
		<path id="Path 19" class="shp4" d="M410.7 506.59L386.67 506.59L386.67 482.56L410.7 482.56L410.7 506.59Z" />
		<path id="Path 20" class="shp4" d="M441.37 506.59L417.34 506.59L417.34 482.56L441.37 482.56L441.37 506.59Z" />
		<path id="Path 21" class="shp4" d="M472.04 506.59L448.01 506.59L448.01 482.56L472.04 482.56L472.04 506.59Z" />
		<path id="Path 22" class="shp4" d="M502.7 506.59L478.68 506.59L478.68 482.56L502.7 482.56L502.7 506.59Z" />
		<path id="Path 23" class="shp4" d="M533.37 506.59L509.34 506.59L509.34 482.56L533.37 482.56L533.37 506.59Z" />
		<path id="Path 24" class="shp4" d="M564.04 506.59L540.01 506.59L540.01 482.56L564.04 482.56L564.04 506.59Z" />
		<path id="Path 25" class="shp4" d="M594.71 506.59L570.68 506.59L570.68 482.56L594.71 482.56L594.71 506.59Z" />
		<path id="Path 26" class="shp4" d="M625.37 506.59L601.34 506.59L601.34 482.56L625.37 482.56L625.37 506.59Z" />
		<path id="Path 27" class="shp4" d="M656.04 506.59L632.01 506.59L632.01 482.56L656.04 482.56L656.04 506.59Z" />
		<path id="Path 28" class="shp4" d="M288.03 624.06L264 624.06L264 600.03L288.03 600.03L288.03 624.06Z" />
		<path id="Path 29" class="shp4" d="M318.7 624.06L294.67 624.06L294.67 600.03L318.7 600.03L318.7 624.06Z" />
		<path id="Path 30" class="shp4" d="M349.37 624.06L325.34 624.06L325.34 600.03L349.37 600.03L349.37 624.06Z" />
		<path id="Path 31" class="shp4" d="M385.32 624.06L356.01 624.06L356.01 600.03L385.32 600.03L385.32 624.06Z" />
		<path id="Path 32" class="shp4" d="M538.66 624.06L391.96 624.06L391.96 600.03L538.66 600.03L538.66 624.06Z" />
		<path id="Path 33" class="shp4" d="M612.01 624.06L587.98 624.06L587.98 600.03L612.01 600.03L612.01 624.06Z" />
		<path id="Path 34" class="shp4" d="M642.68 624.06L618.65 624.06L618.65 600.03L642.68 600.03L642.68 624.06Z" />
		<path id="Path 35" class="shp4" d="M673.39 624.06L649.36 624.06L649.36 600.03L673.39 600.03L673.39 624.06Z" />
		<path id="Path 36" class="shp4" d="M581.97 624.06L544.66 624.06L544.66 600.03L581.97 600.03L581.97 624.06Z" />
		<path id="Path 37" class="shp4" d="M705.03 624.06L681 624.06L681 600.03L705.03 600.03L705.03 624.06Z" />
		<path id="Path 38" class="shp4" d="M329.99 535.87L305.96 535.87L305.96 511.84L329.99 511.84L329.99 535.87Z" />
		<path id="Path 39" class="shp4" d="M360.66 535.87L336.63 535.87L336.63 511.84L360.66 511.84L360.66 535.87Z" />
		<path id="Path 40" class="shp4" d="M391.32 535.87L367.3 535.87L367.3 511.84L391.32 511.84L391.32 535.87Z" />
		<path id="Path 41" class="shp4" d="M421.99 535.87L397.96 535.87L397.96 511.84L421.99 511.84L421.99 535.87Z" />
		<path id="Path 42" class="shp4" d="M452.66 535.87L428.63 535.87L428.63 511.84L452.66 511.84L452.66 535.87Z" />
		<path id="Path 43" class="shp4" d="M483.33 535.87L459.3 535.87L459.3 511.84L483.33 511.84L483.33 535.87Z" />
		<path id="Path 44" class="shp4" d="M513.99 535.87L489.96 535.87L489.96 511.84L513.99 511.84L513.99 535.87Z" />
		<path id="Path 45" class="shp4" d="M544.66 535.87L520.63 535.87L520.63 511.84L544.66 511.84L544.66 535.87Z" />
		<path id="Path 46" class="shp4" d="M575.33 535.87L551.3 535.87L551.3 511.84L575.33 511.84L575.33 535.87Z" />
		<path id="Path 47" class="shp4" d="M605.99 535.87L581.97 535.87L581.97 511.84L605.99 511.84L605.99 535.87Z" />
		<path id="Path 48" class="shp4" d="M636.66 535.87L612.63 535.87L612.63 511.84L636.66 511.84L636.66 535.87Z" />
		<path id="Path 49" class="shp4" d="M667.33 535.87L643.3 535.87L643.3 511.84L667.33 511.84L667.33 535.87Z" />
		<path id="Path 50" class="shp4" d="M705.03 511.85L705.03 565.15L681.01 565.15L681.01 535.87L673.96 535.87L673.96 511.85L705.03 511.85Z" />
		<path id="Path 51" class="shp4" d="M337.02 565.15L312.99 565.15L312.99 541.12L337.02 541.12L337.02 565.15Z" />
		<path id="Path 52" class="shp4" d="M367.69 565.15L343.66 565.15L343.66 541.12L367.69 541.12L367.69 565.15Z" />
		<path id="Path 53" class="shp4" d="M398.36 565.15L374.33 565.15L374.33 541.12L398.36 541.12L398.36 565.15Z" />
		<path id="Path 54" class="shp4" d="M429.02 565.15L405 565.15L405 541.12L429.02 541.12L429.02 565.15Z" />
		<path id="Path 55" class="shp4" d="M459.69 565.15L435.66 565.15L435.66 541.12L459.69 541.12L459.69 565.15Z" />
		<path id="Path 56" class="shp4" d="M490.36 565.15L466.33 565.15L466.33 541.12L490.36 541.12L490.36 565.15Z" />
		<path id="Path 57" class="shp4" d="M521.03 565.15L497 565.15L497 541.12L521.03 541.12L521.03 565.15Z" />
		<path id="Path 58" class="shp4" d="M551.69 565.15L527.67 565.15L527.67 541.12L551.69 541.12L551.69 565.15Z" />
		<path id="Path 59" class="shp4" d="M582.36 565.15L558.33 565.15L558.33 541.12L582.36 541.12L582.36 565.15Z" />
		<path id="Path 60" class="shp4" d="M613.03 565.15L589 565.15L589 541.12L613.03 541.12L613.03 565.15Z" />
		<path id="Path 61" class="shp4" d="M643.7 565.15L619.67 565.15L619.67 541.12L643.7 541.12L643.7 565.15Z" />
		<path id="Path 62" class="shp4" d="M674.36 565.15L650.33 565.15L650.33 541.12L674.36 541.12L674.36 565.15Z" />
		<path id="Path 63" class="shp4" d="M323.99 594.44L299.96 594.44L299.96 570.41L323.99 570.41L323.99 594.44Z" />
		<path id="Path 64" class="shp4" d="M354.66 594.44L330.63 594.44L330.63 570.41L354.66 570.41L354.66 594.44Z" />
		<path id="Path 65" class="shp4" d="M385.32 594.44L361.3 594.44L361.3 570.41L385.32 570.41L385.32 594.44Z" />
		<path id="Path 66" class="shp4" d="M415.99 594.44L391.96 594.44L391.96 570.41L415.99 570.41L415.99 594.44Z" />
		<path id="Path 67" class="shp4" d="M446.66 594.44L422.63 594.44L422.63 570.41L446.66 570.41L446.66 594.44Z" />
		<path id="Path 68" class="shp4" d="M477.32 594.44L453.3 594.44L453.3 570.41L477.32 570.41L477.32 594.44Z" />
		<path id="Path 69" class="shp4" d="M507.99 594.44L483.96 594.44L483.96 570.41L507.99 570.41L507.99 594.44Z" />
		<path id="Path 70" class="shp4" d="M538.66 594.44L514.63 594.44L514.63 570.41L538.66 570.41L538.66 594.44Z" />
		<path id="Path 71" class="shp4" d="M569.33 594.44L545.3 594.44L545.3 570.41L569.33 570.41L569.33 594.44Z" />
		<path id="Path 72" class="shp4" d="M599.99 594.44L575.97 594.44L575.97 570.41L599.99 570.41L599.99 594.44Z" />
		<path id="Path 73" class="shp4" d="M630.66 594.44L606.63 594.44L606.63 570.41L630.66 570.41L630.66 594.44Z" />
		<path id="Path 74" class="shp4" d="M337.02 478.76L312.99 478.76L312.99 454.73L337.02 454.73L337.02 478.76Z" />
		<path id="Path 75" class="shp4" d="M367.69 478.76L343.66 478.76L343.66 454.73L367.69 454.73L367.69 478.76Z" />
		<path id="Path 76" class="shp4" d="M398.36 478.76L374.33 478.76L374.33 454.73L398.36 454.73L398.36 478.76Z" />
		<path id="Path 77" class="shp4" d="M429.02 478.76L405 478.76L405 454.73L429.02 454.73L429.02 478.76Z" />
		<path id="Path 78" class="shp4" d="M459.69 478.76L435.66 478.76L435.66 454.73L459.69 454.73L459.69 478.76Z" />
		<path id="Path 79" class="shp4" d="M490.36 478.76L466.33 478.76L466.33 454.73L490.36 454.73L490.36 478.76Z" />
		<path id="Path 80" class="shp4" d="M521.03 478.76L497 478.76L497 454.73L521.03 454.73L521.03 478.76Z" />
		<path id="Path 81" class="shp4" d="M551.69 478.76L527.67 478.76L527.67 454.73L551.69 454.73L551.69 478.76Z" />
		<path id="Path 82" class="shp4" d="M582.36 478.76L558.33 478.76L558.33 454.73L582.36 454.73L582.36 478.76Z" />
		<path id="Path 83" class="shp4" d="M613.03 478.76L589 478.76L589 454.73L613.03 454.73L613.03 478.76Z" />
		<path id="Path 84" class="shp4" d="M643.7 478.76L619.67 478.76L619.67 454.73L643.7 454.73L643.7 478.76Z" />
		<path id="Path 85" class="shp4" d="M674.36 478.76L650.33 478.76L650.33 454.73L674.36 454.73L674.36 478.76Z" />
		<path id="Path 86" class="shp4" d="M705.03 478.76L681 478.76L681 454.73L705.03 454.73L705.03 478.76Z" />
		<path id="Path 87" class="shp4" d="M293.11 594.44L264 594.44L264 570.41L293.11 570.41L293.11 594.44Z" />
		<path id="Path 88" class="shp8" d="M254.37 442.77L264 439.55L709.44 439.55L715.78 442.73L254.37 442.77Z" />
		<path id="Path 89" class="shp3" d="M583.66 776L574.28 719.5C572.22 711.08 567.8 703.42 561.58 697.38C542.92 679.38 518.26 660.9 517.2 637.3C515.58 601.24 509.96 602.32 510.56 593.42C510.58 593.1 513.36 589.12 516.98 580.22C518.14 577.34 518.92 573.06 519.7 569.54C520.5 565.84 524.02 563.32 527.78 563.84C530.3 564.18 532.78 565.32 534.56 567.02C537.98 570.34 539.5 575.24 539.64 580.02C539.78 584.78 538.72 589.5 537.64 594.14C541 601.66 542.58 610.8 543.66 618.96C545.8 612.36 547.42 605.7 549.56 599.12C550 598.88 549.84 598.36 550.26 598.12C547.24 591.64 549.8 592 543.82 577.74C533.76 553.74 522.54 530.6 514.52 500.44C513.88 498.1 513.92 494.26 514.7 491.96C517.6 483.34 526.48 485.32 530.36 490.34C531.4 491.66 532.16 493.14 532.76 494.7C536.86 505.44 545.6 522 551.9 531.6L573.68 564.8C573.68 564.8 581.26 558.58 582.42 555.8L582.44 555.78C583.58 552.98 584.14 530.44 584.14 530.44C584.14 530.44 582.42 534.66 578.6 534.42C575.84 534.22 570.24 535.82 566.26 531.34C563 527.68 563 522.18 565.9 518.26L575.76 504.94C575.76 504.94 582.38 499.14 591.24 503.08C600.08 507.04 608.66 515.28 608.66 515.28C608.66 515.28 616.86 514.86 623.82 518.2C630.8 521.56 638.12 531.2 638.12 531.2C638.12 531.2 646.26 531.7 649.92 534.36C650.84 535.02 663.26 554.36 658.78 569.42C656.12 578.4 654.48 591.44 653.28 594.94L647.18 683.12L659.48 741.16L633.18 755.82C623.51 761.21 613.38 765.74 602.92 769.35L583.66 776Z" />
		<path id="Path 90" class="shp9" d="M658.34 672.96L658.58 584.55C659.54 580.98 660.31 567.86 662.37 558.72C665.83 543.4 652.16 524.93 651.2 524.33C647.37 521.93 639.21 521.97 639.21 521.97C639.21 521.97 631.27 512.83 624.08 509.95C616.91 507.08 608.76 508.04 608.76 508.04C608.76 508.04 599.66 500.38 590.57 497.02C581.47 493.68 575.24 499.91 575.24 499.91L566.3 513.84C563.67 517.95 564.03 523.45 567.52 526.87C571.8 531.09 577.28 529.12 580.04 529.12C583.87 529.12 585.3 524.8 585.3 524.8C585.3 524.8 586.24 547.31 585.3 550.18L585.28 550.2C584.3 553.07 577.15 559.77 577.15 559.77L553.22 528.09C546.29 518.93 536.47 502.99 531.67 492.55C530.97 491.03 530.11 489.59 528.97 488.35C524.78 483.6 515.79 482.21 513.46 491C512.84 493.36 513.05 497.19 513.84 499.48C523.86 529.03 536.59 551.38 548.22 574.66C555.13 588.49 552.56 588.32 556 594.57C555.6 594.84 555.79 595.36 555.36 595.61C553.67 602.33 552.49 609.08 550.8 615.79C549.18 607.73 546.99 598.72 543.14 591.44C543.91 586.73 544.66 581.96 544.19 577.21C543.74 572.46 541.9 567.66 538.26 564.58C536.38 563 533.83 562.04 531.29 561.86C527.5 561.58 524.16 564.35 523.6 568.09C523.07 571.64 522.58 575.97 521.59 578.92C518.57 588.04 516.07 592.19 516.07 592.51C516.07 601.43 521.59 599.98 525.62 635.87C528.74 663.82 564.74 682.29 584.34 702.47L605.23 768.17C629.47 758.45 652.67 746.02 674.93 731.57L658.34 672.96Z" />
		<g id="Mask" clip-path="url(#cp2)">
			<path id="Path 92" class="shp0" d="M648.09 552.83C649.15 550.23 650.42 547.55 652.68 545.9C654.95 544.24 658.52 544.03 660.34 546.17C658.85 541.58 657.26 537.03 655.58 532.5C654.31 529.06 652.87 525.47 650.02 523.15C647.18 520.83 642.5 520.33 640.06 523.08C641.8 533.51 641.99 544.2 640.62 554.69C639.88 560.37 638.92 566.9 642.75 571.16C643.8 572.02 645.63 570.48 644.97 569.29C644.65 568.74 643.52 568.7 643.03 568.75C644.25 563.32 645.98 557.98 648.09 552.83ZM648.09 552.83C649.15 550.23 650.42 547.55 652.68 545.9C654.95 544.24 658.52 544.03 660.34 546.17C658.85 541.58 657.26 537.03 655.58 532.5C654.31 529.06 652.87 525.47 650.02 523.15C647.18 520.83 642.5 520.33 640.06 523.08C641.8 533.51 641.99 544.2 640.62 554.69C639.88 560.37 638.92 566.9 642.75 571.16C643.8 572.02 645.63 570.48 644.97 569.29C644.65 568.74 643.52 568.7 643.03 568.75C644.25 563.32 645.98 557.98 648.09 552.83Z" />
			<path id="Path 93" class="shp10" d="M648.09 552.83C649.15 550.23 650.42 547.55 652.68 545.9C654.95 544.24 658.52 544.03 660.34 546.17C658.85 541.58 657.26 537.03 655.58 532.5C654.31 529.06 652.87 525.47 650.02 523.15C647.18 520.83 642.5 520.33 640.06 523.08C641.8 533.51 641.99 544.2 640.62 554.69C639.88 560.37 638.92 566.9 642.75 571.16C643.8 572.02 645.63 570.48 644.97 569.29C644.65 568.74 643.52 568.7 643.03 568.75C644.25 563.32 645.98 557.98 648.09 552.83Z" />
			<path id="Path 94" class="shp0" d="M616.19 543.34C616.34 547.19 616.31 551.08 617.26 554.81C618.21 558.54 620.28 562.18 623.65 564.05C621.67 556.59 622.74 548.71 623.82 541.07C624.48 536.44 625.14 531.8 625.8 527.16C626.03 525.55 626.28 523.87 627.21 522.53C628.14 521.19 629.96 520.32 631.44 521C629.46 522.17 626.9 520.6 625.71 518.63C624.51 516.67 624.04 514.3 622.63 512.48C619.96 509.05 614.24 508.29 610.29 509.2C611.48 520.63 615.73 531.53 616.19 543.34ZM616.19 543.34C616.34 547.19 616.31 551.08 617.26 554.81C618.21 558.54 620.28 562.18 623.65 564.05C621.67 556.59 622.74 548.71 623.82 541.07C624.48 536.44 625.14 531.8 625.8 527.16C626.03 525.55 626.28 523.87 627.21 522.53C628.14 521.19 629.96 520.32 631.44 521C629.46 522.17 626.9 520.6 625.71 518.63C624.51 516.67 624.04 514.3 622.63 512.48C619.96 509.05 614.24 508.29 610.29 509.2C611.48 520.63 615.73 531.53 616.19 543.34Z" />
			<path id="Path 95" class="shp10" d="M616.19 543.34C616.34 547.19 616.31 551.08 617.26 554.81C618.21 558.54 620.28 562.18 623.65 564.05C621.67 556.59 622.74 548.71 623.82 541.07C624.48 536.44 625.14 531.8 625.8 527.16C626.03 525.55 626.28 523.87 627.21 522.53C628.14 521.19 629.96 520.32 631.44 521C629.46 522.17 626.9 520.6 625.71 518.63C624.51 516.67 624.04 514.3 622.63 512.48C619.96 509.05 614.24 508.29 610.29 509.2C611.48 520.63 615.73 531.53 616.19 543.34Z" />
			<path id="Path 96" class="shp0" d="M583.53 512.51C582.24 511.56 581.81 509.86 581.42 508.3C581.03 506.75 580.48 505.05 579.08 504.26C572.94 508.16 576.3 519.58 570.09 523.37C568.88 524.1 567.35 524.51 566.68 525.75C566.07 526.88 566.46 528.35 567.33 529.28C568.21 530.2 569.48 530.66 570.73 530.89C575.67 531.78 580.88 529.25 583.82 525.19C586.26 521.84 587.94 516.43 586.74 512.46C585.8 512.98 584.45 513.18 583.53 512.51ZM519.68 587.28C519.57 587.7 519.49 588.24 519.83 588.52C520.36 588.95 521.06 588.28 521.45 587.72C524.03 584.06 529.13 582.4 533.37 583.86C534.99 583.82 535.54 581.36 534.48 580.14C533.42 578.91 531.62 578.7 530 578.7C528.38 578.69 526.65 578.78 525.28 577.92C523.59 576.86 522.93 574.72 523.36 572.88C522.27 577.7 520.92 582.48 519.68 587.28Z" />
			<path id="Path 97" class="shp10" d="M583.53 512.51C582.24 511.56 581.81 509.86 581.42 508.3C581.03 506.75 580.48 505.05 579.08 504.26C572.94 508.16 576.3 519.58 570.09 523.37C568.88 524.1 567.35 524.51 566.68 525.75C566.07 526.88 566.46 528.35 567.33 529.28C568.21 530.2 569.48 530.66 570.73 530.89C575.67 531.78 580.88 529.25 583.82 525.19C586.26 521.84 587.94 516.43 586.74 512.46C585.8 512.98 584.45 513.18 583.53 512.51ZM519.68 587.28C519.57 587.7 519.49 588.24 519.83 588.52C520.36 588.95 521.06 588.28 521.45 587.72C524.03 584.06 529.13 582.4 533.37 583.86C534.99 583.82 535.54 581.36 534.48 580.14C533.42 578.91 531.62 578.7 530 578.7C528.38 578.69 526.65 578.78 525.28 577.92C523.59 576.86 522.93 574.72 523.36 572.88C522.27 577.7 520.92 582.48 519.68 587.28Z" />
			<path id="Path 98" class="shp0" d="M601.11 510.98C597.61 510.51 593.91 510.43 590.87 508.64C587.05 506.41 584.44 501.63 580.02 501.44C576.09 501.27 573.17 504.87 570.94 508.1C570.68 503.22 574.27 498.66 578.81 496.84C583.35 495.03 588.57 495.6 593.11 497.41C597.66 499.21 601.65 502.16 605.52 505.13C607.08 506.33 608.67 507.57 609.72 509.23C614.65 516.99 604.2 511.4 601.11 510.98Z" />
			<path id="Path 99" class="shp10" d="M601.11 510.98C597.61 510.51 593.91 510.43 590.87 508.64C587.05 506.41 584.44 501.63 580.02 501.44C576.09 501.27 573.17 504.87 570.94 508.1C570.68 503.22 574.27 498.66 578.81 496.84C583.35 495.03 588.57 495.6 593.11 497.41C597.66 499.21 601.65 502.16 605.52 505.13C607.08 506.33 608.67 507.57 609.72 509.23C614.65 516.99 604.2 511.4 601.11 510.98Z" />
			<path id="Path 100" class="shp0" d="M538.55 624.57C538.79 624.13 539 623.68 539.21 623.23C538.79 623.55 538.51 623.99 538.55 624.57ZM544.49 593.59C544.1 588.66 544.8 583.7 544.6 578.76C544.39 573.82 543.1 568.62 539.5 565.22C534.34 560.36 520.21 562.85 524.95 572.08C526.26 574.64 529.65 575.97 532.28 574.82C534.92 573.66 536.21 570.08 534.77 567.59C540.49 576.26 539.98 588.56 533.56 596.72C540.89 603.07 543.22 614.44 539.21 623.23C540.06 622.57 541.56 622.48 542.5 623.19C543.9 624.25 544.37 626.1 545.05 627.71C545.73 629.33 547.05 631.01 548.8 630.89C551.21 625.01 550.41 618.3 548.85 612.14C547.29 605.97 545 599.93 544.49 593.59ZM596.24 500.84C593.49 498.73 590.22 497.3 586.78 496.85L596.24 500.84ZM619.75 563.42C619 560.02 617.43 556.86 616.49 553.5C614.31 545.68 615.68 537.32 614.68 529.27C613.38 518.85 607.95 509 599.82 502.35L596.24 500.84C599.67 503.47 602.29 507.15 603.45 511.32C606.21 520.87 607.08 530.85 608.31 540.71C610.21 555.93 612.98 571.04 616.63 585.94C619.01 578.64 621.42 570.91 619.75 563.42ZM581.67 527.86C584.15 525.9 585.47 522.77 585.9 519.64C586.28 516.84 586.01 514.01 585.67 511.2C585.44 512.4 583.87 513.41 582.53 513.09C580.83 512.69 579.71 511.11 578.74 509.65C578.5 510.49 578.26 511.33 578.01 512.17C577.91 511.72 577.82 511.26 577.72 510.81L576.77 512.02C578.19 516.03 579.55 520.69 577.36 524.34C576.3 526.11 574.55 527.34 572.86 528.51C575.45 530.31 579.2 529.81 581.67 527.86ZM585.55 510.2C585.6 510.53 585.63 510.87 585.67 511.2C585.73 510.87 585.72 510.53 585.55 510.2ZM575.11 550.68C568.09 536.9 561.07 523.12 553.36 509.72C548.86 501.88 544.08 494.14 538.07 487.39C535.41 484.4 527.75 477.47 523.54 482.04C520.73 485.08 524.42 490.61 520.96 493.9C521.76 493.95 525.66 493.52 526.08 494.03C534.86 504.88 539.7 518.86 539.5 532.82C542.33 530.61 546.19 533.68 548.4 536.51C561.94 553.92 574.61 572.02 586.33 590.72C584.06 582.45 584 573.69 581.55 565.48C580.01 560.31 577.55 555.48 575.11 550.68ZM656.57 584.25C659.93 575.29 662.54 566.1 662.84 556.57C663.11 547.92 661.13 538.94 656.56 531.53C655.4 529.65 650.6 521.99 647.97 522.61C643.28 523.72 649.44 531.88 650.51 533.92C654.57 541.62 658.74 549.76 658.48 558.46C658.28 565.16 655.46 571.46 653.2 577.77C651.63 582.17 650.35 586.88 650.38 591.49C650.04 592 649.72 592.54 649.35 593.03C646.23 597.12 641.86 600.48 636.78 601.31C638.71 595.34 640.65 589.38 642.58 583.41C643.27 581.28 643.52 578.37 642.28 576.89C642.68 576.07 642.93 575.21 642.89 574.28C642.83 572.63 641.89 571.18 641.2 569.69C638.52 563.92 639.43 557.22 640.08 550.9C640.88 543.1 641.19 535.07 638.9 527.57C636.61 520.08 631.32 513.12 623.88 510.63C624.52 511.32 625.16 512.01 625.79 512.69L623.27 510.86L627.96 520.61C627.38 521.43 626.81 522.26 626.23 523.08C628.81 521.73 632.12 523.69 633.3 526.35C634.48 529.01 634.16 532.06 633.89 534.96C632.37 551.14 633.19 567.52 636.25 583.47C635.95 587.2 635.31 590.97 633.37 594.15C631.27 597.57 627.34 600.15 623.37 599.57C624.24 595.73 622.76 591.18 619.51 588.91C615.48 594.51 617.85 603.21 618.46 609.58C619.4 619.24 620.95 628.84 623.11 638.3C623.73 630.1 625.45 621.98 628.21 614.23C630.39 622.13 632.56 630.02 634.74 637.92C634.81 635.71 634.9 633.4 635.97 631.47C637.04 629.53 639.42 628.13 641.49 628.91C643.19 629.55 644.1 631.35 644.8 633.02C650.45 646.6 651.88 661.9 648.82 676.29C651.51 677.78 655.06 675.98 656.55 673.29C658.04 670.61 658.03 667.37 657.97 664.3C657.51 637.62 657.04 610.94 656.57 584.25ZM588.77 592.72C587.49 594.97 592.73 603.89 593.6 606.01L606.82 638.29C605.36 624.12 601.9 610.16 596.57 596.94C595.67 594.71 591.32 588.26 588.77 592.72ZM595.62 535.68C594.87 536.81 593.79 538.22 592.49 537.82C591.28 537.45 591.07 535.84 591.09 534.57C591.21 527.08 591.33 519.59 591.46 512.11C585.41 516.44 586.19 522.12 585.76 528.58C585.52 532.32 586.6 550.17 584.05 552.36C590.02 547.26 595.08 541.1 598.93 534.25C597.88 533.38 596.37 534.54 595.62 535.68Z" />
			<path id="Path 101" class="shp10" d="M538.55 624.57C538.79 624.13 539 623.68 539.21 623.23C538.79 623.55 538.51 623.99 538.55 624.57ZM544.49 593.59C544.1 588.66 544.8 583.7 544.6 578.76C544.39 573.82 543.1 568.62 539.5 565.22C534.34 560.36 520.21 562.85 524.95 572.08C526.26 574.64 529.65 575.97 532.28 574.82C534.92 573.66 536.21 570.08 534.77 567.59C540.49 576.26 539.98 588.56 533.56 596.72C540.89 603.07 543.22 614.44 539.21 623.23C540.06 622.57 541.56 622.48 542.5 623.19C543.9 624.25 544.37 626.1 545.05 627.71C545.73 629.33 547.05 631.01 548.8 630.89C551.21 625.01 550.41 618.3 548.85 612.14C547.29 605.97 545 599.93 544.49 593.59ZM596.24 500.84C593.49 498.73 590.22 497.3 586.78 496.85L596.24 500.84ZM619.75 563.42C619 560.02 617.43 556.86 616.49 553.5C614.31 545.68 615.68 537.32 614.68 529.27C613.38 518.85 607.95 509 599.82 502.35L596.24 500.84C599.67 503.47 602.29 507.15 603.45 511.32C606.21 520.87 607.08 530.85 608.31 540.71C610.21 555.93 612.98 571.04 616.63 585.94C619.01 578.64 621.42 570.91 619.75 563.42ZM581.67 527.86C584.15 525.9 585.47 522.77 585.9 519.64C586.28 516.84 586.01 514.01 585.67 511.2C585.44 512.4 583.87 513.41 582.53 513.09C580.83 512.69 579.71 511.11 578.74 509.65C578.5 510.49 578.26 511.33 578.01 512.17C577.91 511.72 577.82 511.26 577.72 510.81L576.77 512.02C578.19 516.03 579.55 520.69 577.36 524.34C576.3 526.11 574.55 527.34 572.86 528.51C575.45 530.31 579.2 529.81 581.67 527.86ZM585.55 510.2C585.6 510.53 585.63 510.87 585.67 511.2C585.73 510.87 585.72 510.53 585.55 510.2ZM575.11 550.68C568.09 536.9 561.07 523.12 553.36 509.72C548.86 501.88 544.08 494.14 538.07 487.39C535.41 484.4 527.75 477.47 523.54 482.04C520.73 485.08 524.42 490.61 520.96 493.9C521.76 493.95 525.66 493.52 526.08 494.03C534.86 504.88 539.7 518.86 539.5 532.82C542.33 530.61 546.19 533.68 548.4 536.51C561.94 553.92 574.61 572.02 586.33 590.72C584.06 582.45 584 573.69 581.55 565.48C580.01 560.31 577.55 555.48 575.11 550.68ZM656.57 584.25C659.93 575.29 662.54 566.1 662.84 556.57C663.11 547.92 661.13 538.94 656.56 531.53C655.4 529.65 650.6 521.99 647.97 522.61C643.28 523.72 649.44 531.88 650.51 533.92C654.57 541.62 658.74 549.76 658.48 558.46C658.28 565.16 655.46 571.46 653.2 577.77C651.63 582.17 650.35 586.88 650.38 591.49C650.04 592 649.72 592.54 649.35 593.03C646.23 597.12 641.86 600.48 636.78 601.31C638.71 595.34 640.65 589.38 642.58 583.41C643.27 581.28 643.52 578.37 642.28 576.89C642.68 576.07 642.93 575.21 642.89 574.28C642.83 572.63 641.89 571.18 641.2 569.69C638.52 563.92 639.43 557.22 640.08 550.9C640.88 543.1 641.19 535.07 638.9 527.57C636.61 520.08 631.32 513.12 623.88 510.63C624.52 511.32 625.16 512.01 625.79 512.69L623.27 510.86L627.96 520.61C627.38 521.43 626.81 522.26 626.23 523.08C628.81 521.73 632.12 523.69 633.3 526.35C634.48 529.01 634.16 532.06 633.89 534.96C632.37 551.14 633.19 567.52 636.25 583.47C635.95 587.2 635.31 590.97 633.37 594.15C631.27 597.57 627.34 600.15 623.37 599.57C624.24 595.73 622.76 591.18 619.51 588.91C615.48 594.51 617.85 603.21 618.46 609.58C619.4 619.24 620.95 628.84 623.11 638.3C623.73 630.1 625.45 621.98 628.21 614.23C630.39 622.13 632.56 630.02 634.74 637.92C634.81 635.71 634.9 633.4 635.97 631.47C637.04 629.53 639.42 628.13 641.49 628.91C643.19 629.55 644.1 631.35 644.8 633.02C650.45 646.6 651.88 661.9 648.82 676.29C651.51 677.78 655.06 675.98 656.55 673.29C658.04 670.61 658.03 667.37 657.97 664.3C657.51 637.62 657.04 610.94 656.57 584.25ZM588.77 592.72C587.49 594.97 592.73 603.89 593.6 606.01L606.82 638.29C605.36 624.12 601.9 610.16 596.57 596.94C595.67 594.71 591.32 588.26 588.77 592.72ZM595.62 535.68C594.87 536.81 593.79 538.22 592.49 537.82C591.28 537.45 591.07 535.84 591.09 534.57C591.21 527.08 591.33 519.59 591.46 512.11C585.41 516.44 586.19 522.12 585.76 528.58C585.52 532.32 586.6 550.17 584.05 552.36C590.02 547.26 595.08 541.1 598.93 534.25C597.88 533.38 596.37 534.54 595.62 535.68Z" />
		</g>
		<path id="Path 103" class="shp9" d="M522.14 586.17C519.82 588.01 517.83 590.25 516.27 592.77L522.14 586.17Z" />
		<path id="Path 104" class="shp11" d="M605.23 768.17L584.34 702.47C564.74 682.29 528.74 663.82 525.61 635.87C521.59 599.98 516.07 601.44 516.07 592.51C516.07 592.19 518.57 588.04 521.59 578.92C522.58 575.97 523.07 571.64 523.6 568.09C524.16 564.35 527.5 561.59 531.29 561.87C533.83 562.04 536.38 563 538.26 564.58C541.9 567.66 543.74 572.46 544.19 577.21C544.66 581.96 543.91 586.73 543.14 591.44C546.99 598.72 549.18 607.73 550.8 615.79C552.49 609.08 553.67 602.33 555.36 595.62C555.79 595.36 555.6 594.84 556 594.57C552.56 588.32 555.13 588.49 548.21 574.66C536.59 551.38 523.86 529.04 513.84 499.48C513.05 497.19 512.84 493.36 513.46 491.01C515.79 482.21 524.78 483.6 528.97 488.35C530.11 489.59 530.96 491.03 531.67 492.55C536.46 502.99 546.29 518.94 553.22 528.09L577.15 559.77C577.15 559.77 584.3 553.07 585.28 550.2L585.3 550.18C586.24 547.31 585.3 524.8 585.3 524.8C585.3 524.8 583.87 529.12 580.04 529.12C577.28 529.12 571.8 531.09 567.52 526.88C564.03 523.45 563.67 517.95 566.3 513.84L575.24 499.91C575.24 499.91 581.47 493.68 590.57 497.02C599.66 500.38 608.76 508.04 608.76 508.04C608.76 508.04 616.91 507.08 624.08 509.95C631.27 512.84 639.21 521.97 639.21 521.97C639.21 521.97 647.36 521.93 651.19 524.33C652.16 524.93 665.83 543.4 662.37 558.72C660.31 567.86 659.54 580.98 658.58 584.55L658.34 672.96L674.93 731.57M610.93 511.18C614.46 524.22 616.3 537.72 616.39 551.23C616.4 553.49 616.38 555.8 617.1 557.94C617.82 560.08 619.47 562.06 621.69 562.51M639.22 524.32C645.16 536.85 639.08 564.81 639.53 566.78C639.98 568.75 641.1 570.67 642.9 571.59M587.65 509.47C586.95 513.45 586.37 518.07 585.67 522.05C581.03 518.09 578.06 512.21 577.66 506.12M549.34 616.18C547.9 616.82 546.46 617.45 545.02 618.09M550.44 619.65C549.74 622.97 549.73 626.44 550.4 629.77M575.72 582.27C577.31 585.14 578.91 588.02 580.51 590.89M584.91 550.73C586.5 548.49 588.08 546.25 589.67 544M651.86 582.27C651.38 584.03 650.91 585.78 650.43 587.54M640.22 567.86C641.62 563.38 643.03 558.9 644.43 554.42M654.29 544.02C656.76 542.59 660.35 543.71 661.57 546.29M625.55 521.06C628.85 520.1 632.63 520.97 635.19 523.27M536.47 534.4C539.54 530.99 544.32 529.19 548.88 529.73M518.43 496.68C521.29 494.59 525.01 493.72 528.5 494.32M522.14 586.17C519.82 588.01 517.83 590.25 516.27 592.77M524.06 577.09C527.22 574.83 532.26 579.89 535.17 577.31C536.32 576.28 536.41 574.5 536.14 572.98C535.87 571.45 535.34 569.93 535.57 568.39M613.24 563.22C617.08 571.11 617.88 580.43 615.44 588.86M636.47 575.56C637.1 579.31 636.38 583.27 634.46 586.55" />
		<path id="Path 105" class="shp3" d="M443.1 605.58C443.28 606.96 443.22 608.38 442.92 609.74C441.62 615.76 437.86 633.3 436.48 642.9C434.84 654.62 415.9 690.9 415.9 690.9C415.9 690.9 398.46 712.58 389.58 723.86C385.22 729.4 378.32 751.82 372.46 773.18C365.06 770.94 357.74 768.52 350.46 765.94C344.44 763.8 338.42 761.54 332.48 759.2C324.12 755.9 313.46 750.66 301.22 743.96C304.54 731.9 306.76 722.62 306.72 722.08C306.62 720.82 313.84 706.92 313.84 706.92L307.54 624.04L303.82 611.42C301.88 604.9 300.66 598.18 300.16 591.46C299.38 581.2 300.24 570.86 302.74 560.8L313.6 544.68L318.68 544.3L334.4 522.34C334.4 522.34 342.9 519.78 345.08 526.18C347.26 532.6 338 544.54 338 544.54L334.82 564.28L342.38 582.76L346.3 584.2C346.3 584.2 347.62 551.66 346.72 545.16L355.08 515.46C355.08 515.46 360.06 505.54 361.6 500.54C363.12 495.56 372.06 490.62 377.2 499.36C377.2 499.36 380.06 503.8 378 509.9C375.9 516 374.16 520.8 374.16 520.8C374.16 520.8 372.26 545.96 371.66 546.66C371.06 547.32 375.36 584.12 375.36 584.12L378.64 585.58L379.8 550.48L386.62 517.5C386.62 517.5 386.06 501.64 397.24 503.56C397.24 503.56 402.48 502.96 405.46 508.68C408.44 514.38 405.6 552.34 405.6 552.34L408.36 591.58L412.78 621.84L417.98 601.1C417.98 601.1 418.28 571.38 437.04 568.84C437.04 568.84 442.62 567.84 443.76 571.72C444.9 575.58 440.98 583.52 441.54 591.12C441.96 596.46 442.72 602.48 443.1 605.58Z" />
		<path id="Path 106" class="shp9" d="M437.4 568.84C436.54 564.88 430.92 565.46 430.92 565.46C412.02 566.57 409.47 596.19 409.47 596.19L402.71 616.48L400.59 585.96L400.8 546.63C400.8 546.63 406.52 508.98 403.97 503.08C401.45 497.15 396.16 497.36 396.16 497.36C385.16 494.6 384.52 510.46 384.52 510.46L375.23 542.82L371.42 577.72L368.25 576.03C368.25 576.03 366.76 539.01 367.4 538.39C368.04 537.75 371.85 512.79 371.85 512.79C371.85 512.79 373.95 508.15 376.49 502.22C379.02 496.29 376.49 491.65 376.49 491.65C372.04 482.55 362.75 486.79 360.85 491.65C358.94 496.51 353.23 506.03 353.23 506.03L342.64 535.01C343.04 541.55 339.28 573.91 339.28 573.91L335.47 572.18L329.32 553.18L333.99 533.72C333.99 533.72 344.13 522.53 342.44 515.96C340.75 509.41 332.09 511.32 332.09 511.32L314.75 532.03L309.66 532.03L297.61 547.27C294.36 557.11 292.71 567.37 292.71 577.66C292.71 584.4 293.41 591.18 294.85 597.84L297.61 610.7L297.61 693.82C297.61 693.82 289.37 707.13 289.37 708.4C289.37 708.97 285.97 719.48 281.22 732.58C301.95 744.78 319.82 754.22 332.47 759.2C338.42 761.56 344.43 763.8 350.47 765.95C358.07 744.61 366.95 721.77 371.85 716.44C381.57 705.87 400.59 685.56 400.59 685.56C400.59 685.56 422.23 650.83 424.75 639.27C426.85 629.79 431.92 612.59 433.68 606.68C434.08 605.35 434.25 603.94 434.17 602.55C434.02 599.42 433.72 593.37 433.72 588.02C433.72 580.4 438.23 572.78 437.4 568.84Z" />
		<g id="Mask" clip-path="url(#cp3)">
			<path id="Path 108" class="shp0" d="M307.61 560.47C310.84 556.45 317.48 554.9 321.24 558.44C323.39 560.47 324.12 563.56 324.66 566.47C325.21 569.38 325.75 572.46 327.68 574.7C329.61 576.95 333.46 577.83 335.49 575.68C335.76 580.06 336.03 584.43 336.3 588.82C340.97 580.7 343.38 571.3 343.19 561.94C343.09 557.4 342.4 552.77 343.46 548.35C344.51 543.92 347.95 539.61 352.49 539.41C357.53 539.18 361.52 544.09 362.49 549.04C363.46 553.99 362.32 559.08 362.01 564.11C361.55 571.79 363.05 579.59 366.35 586.54L369.52 580.11C370.48 584.41 371.43 588.71 372.38 593.02C373.21 583.55 374.04 574.08 374.86 564.6C375.1 561.93 375.35 559.17 376.6 556.79C377.85 554.42 380.35 552.49 383.02 552.75C386.62 553.11 388.7 556.95 389.9 560.37C398.91 585.85 395.2 613.85 391.38 640.61C393.89 641.05 395.99 638.54 396.62 636.07C397.24 633.6 397.02 630.94 397.96 628.57C398.89 626.21 401.79 624.26 403.94 625.61C407.09 627.6 404.89 633.74 408.2 635.44C409.23 627.52 412.39 619.9 417.26 613.57C419.48 610.69 422.81 607.84 426.32 608.75C428.95 609.43 430.66 612.11 431.05 614.8C431.44 617.48 435.31 606.4 434.64 609.03C436.16 593.6 433.13 591.97 434.64 576.54C434.92 573.76 439.42 568.93 437.5 566.89C435.68 564.95 430.24 562.11 427.83 563.22C425.41 564.34 417.55 568.25 415.99 570.41C406.16 583.98 406.83 603.63 403.78 620.1C401.17 594.98 398.57 569.44 403.18 544.61C405.72 530.92 410.4 516.65 405.98 503.44C403.96 497.41 398.6 491.38 392.35 492.52C387.3 493.45 384.25 498.53 382.2 503.24C375.31 519.04 372.25 536.2 369.25 553.17C373.01 536.09 376.77 519.01 380.52 501.93C381.5 497.49 382.48 492.91 381.67 488.43C380.87 483.96 377.81 479.57 373.36 478.64C368.95 477.71 364.57 480.32 361.24 483.36C349.35 494.24 344.92 510.83 341.05 526.47C342.41 522.39 343.79 518.15 343.37 513.87C342.94 509.58 340.22 505.21 336.01 504.29C330.57 503.09 325.62 507.95 323.23 512.99C320.84 518.02 319.66 523.82 315.85 527.89C313.07 524.76 307.85 524.94 304.36 527.25C300.87 529.56 298.76 533.43 297.06 537.25C290.8 551.29 288.12 566.9 289.32 582.21C292.08 576.07 299.05 572.1 305.75 572.87C305.35 569.46 304.95 566.05 304.55 562.64M320.78 593.02C320.61 595.54 320.44 598.06 320.27 600.59C321.04 598.49 324.13 597.7 325.81 599.18C325.44 597.58 326.43 596.02 327.07 594.5C327.7 592.98 327.77 590.83 326.29 590.1C324.53 589.24 322.79 591.26 321.87 592.99C321.79 592.36 321.71 591.73 321.63 591.11L320.78 593.02ZM349.47 588.49C347.4 590.85 345.99 593.77 345.43 596.85C346.3 596 347.21 595.12 348.35 594.71C349.5 594.29 350.95 594.47 351.68 595.45C352.13 596.06 352.29 596.94 352.96 597.29C353.64 597.64 354.51 597.21 354.92 596.57C355.32 595.92 355.38 595.12 355.43 594.36C355.52 592.9 355.6 591.41 355.18 590.02C354.76 588.62 353.72 587.31 352.29 587.01C350.87 586.7 349.18 587.75 349.17 589.2L349.47 588.49ZM377.24 595.39C375.05 598.33 373.59 601.82 373.05 605.45C374.52 605.24 375.76 604.28 376.93 603.37C378.11 602.46 379.39 601.53 380.87 601.42C382.36 601.3 384.03 602.37 383.98 603.86C383.7 602.18 383.97 600.47 384.15 598.77C384.33 597.08 384.4 595.32 383.77 593.74C383.14 592.16 381.62 590.82 379.92 590.91C378.22 591 376.76 592.99 377.56 594.49L377.24 595.39ZM300.82 605.42C299.28 608.3 298.47 611.56 298.49 614.83C298.51 613.33 299.92 612.11 301.41 611.9C302.9 611.68 304.4 612.26 305.69 613.03C305.98 611.52 306.28 609.96 305.96 608.45C305.65 606.94 304.55 605.48 303.03 605.24C301.51 604.99 299.83 606.46 300.24 607.95C300.09 607.56 299.93 607.18 299.77 606.79L300.82 605.42Z" />
			<path id="Path 109" class="shp10" d="M307.61 560.47C310.84 556.45 317.48 554.9 321.24 558.44C323.39 560.47 324.12 563.56 324.66 566.47C325.21 569.38 325.75 572.46 327.68 574.7C329.61 576.95 333.46 577.83 335.49 575.68C335.76 580.06 336.03 584.43 336.3 588.82C340.97 580.7 343.38 571.3 343.19 561.94C343.09 557.4 342.4 552.77 343.46 548.35C344.51 543.92 347.95 539.61 352.49 539.41C357.53 539.18 361.52 544.09 362.49 549.04C363.46 553.99 362.32 559.08 362.01 564.11C361.55 571.79 363.05 579.59 366.35 586.54L369.52 580.11C370.48 584.41 371.43 588.71 372.38 593.02C373.21 583.55 374.04 574.08 374.86 564.6C375.1 561.93 375.35 559.17 376.6 556.79C377.85 554.42 380.35 552.49 383.02 552.75C386.62 553.11 388.7 556.95 389.9 560.37C398.91 585.85 395.2 613.85 391.38 640.61C393.89 641.05 395.99 638.54 396.62 636.07C397.24 633.6 397.02 630.94 397.96 628.57C398.89 626.21 401.79 624.26 403.94 625.61C407.09 627.6 404.89 633.74 408.2 635.44C409.23 627.52 412.39 619.9 417.26 613.57C419.48 610.69 422.81 607.84 426.32 608.75C428.95 609.43 430.66 612.11 431.05 614.8C431.44 617.48 435.31 606.4 434.64 609.03C436.16 593.6 433.13 591.97 434.64 576.54C434.92 573.76 439.42 568.93 437.5 566.89C435.68 564.95 430.24 562.11 427.83 563.22C425.41 564.34 417.55 568.25 415.99 570.41C406.16 583.98 406.83 603.63 403.78 620.1C401.17 594.98 398.57 569.44 403.18 544.61C405.72 530.92 410.4 516.65 405.98 503.44C403.96 497.41 398.6 491.38 392.35 492.52C387.3 493.45 384.25 498.53 382.2 503.24C375.31 519.04 372.25 536.2 369.25 553.17C373.01 536.09 376.77 519.01 380.52 501.93C381.5 497.49 382.48 492.91 381.67 488.43C380.87 483.96 377.81 479.57 373.36 478.64C368.95 477.71 364.57 480.32 361.24 483.36C349.35 494.24 344.92 510.83 341.05 526.47C342.41 522.39 343.79 518.15 343.37 513.87C342.94 509.58 340.22 505.21 336.01 504.29C330.57 503.09 325.62 507.95 323.23 512.99C320.84 518.02 319.66 523.82 315.85 527.89C313.07 524.76 307.85 524.94 304.36 527.25C300.87 529.56 298.76 533.43 297.06 537.25C290.8 551.29 288.12 566.9 289.32 582.21C292.08 576.07 299.05 572.1 305.75 572.87C305.35 569.46 304.95 566.05 304.55 562.64M320.78 593.02C320.61 595.54 320.44 598.06 320.27 600.59C321.04 598.49 324.13 597.7 325.81 599.18C325.44 597.58 326.43 596.02 327.07 594.5C327.7 592.98 327.77 590.83 326.29 590.1C324.53 589.24 322.79 591.26 321.87 592.99C321.79 592.36 321.71 591.73 321.63 591.11L320.78 593.02ZM349.47 588.49C347.4 590.85 345.99 593.77 345.43 596.85C346.3 596 347.21 595.12 348.35 594.71C349.5 594.29 350.95 594.47 351.68 595.45C352.13 596.06 352.29 596.94 352.96 597.29C353.64 597.64 354.51 597.21 354.92 596.57C355.32 595.92 355.38 595.12 355.43 594.36C355.52 592.9 355.6 591.41 355.18 590.02C354.76 588.62 353.72 587.31 352.29 587.01C350.87 586.7 349.18 587.75 349.17 589.2L349.47 588.49ZM377.24 595.39C375.05 598.33 373.59 601.82 373.05 605.45C374.52 605.24 375.76 604.28 376.93 603.37C378.11 602.46 379.39 601.53 380.87 601.42C382.36 601.3 384.03 602.37 383.98 603.86C383.7 602.18 383.97 600.47 384.15 598.77C384.33 597.08 384.4 595.32 383.77 593.74C383.14 592.16 381.62 590.82 379.92 590.91C378.22 591 376.76 592.99 377.56 594.49L377.24 595.39ZM300.82 605.42C299.28 608.3 298.47 611.56 298.49 614.83C298.51 613.33 299.92 612.11 301.41 611.9C302.9 611.68 304.4 612.26 305.69 613.03C305.98 611.52 306.28 609.96 305.96 608.45C305.65 606.94 304.55 605.48 303.03 605.24C301.51 604.99 299.83 606.46 300.24 607.95C300.09 607.56 299.93 607.18 299.77 606.79L300.82 605.42Z" />
		</g>
		<path id="Path 111" class="shp11" d="M281.22 732.58C285.97 719.48 289.37 708.97 289.37 708.4C289.37 707.13 297.61 693.82 297.61 693.82L297.61 610.7L294.85 597.84C293.42 591.18 292.71 584.4 292.71 577.66C292.71 567.37 294.36 557.11 297.61 547.27L309.66 532.03L314.75 532.03L332.09 511.32C332.09 511.32 340.75 509.41 342.44 515.96C344.13 522.53 333.99 533.72 333.99 533.72L329.33 553.18L335.47 572.18L339.28 573.91C339.28 573.91 343.04 541.55 342.64 535.01L353.23 506.03C353.23 506.03 358.94 496.51 360.85 491.65C362.75 486.79 372.04 482.55 376.49 491.65C376.49 491.65 379.02 496.29 376.49 502.22C373.95 508.15 371.85 512.79 371.85 512.79C371.85 512.79 368.04 537.75 367.4 538.39C366.76 539.01 368.25 576.03 368.25 576.03L371.42 577.72L375.23 542.82L384.52 510.46C384.52 510.46 385.16 494.6 396.16 497.36C396.16 497.36 401.45 497.15 403.97 503.08C406.52 508.98 400.8 546.63 400.8 546.63L400.59 585.96L402.71 616.48L409.47 596.19C409.47 596.19 412.02 566.57 430.92 565.46C430.92 565.46 436.54 564.88 437.4 568.84C438.23 572.78 433.72 580.4 433.72 588.02C433.72 593.37 434.02 599.42 434.17 602.55C434.25 603.94 434.08 605.35 433.68 606.68C431.92 612.59 426.85 629.79 424.75 639.27C422.23 650.83 400.59 685.56 400.59 685.56C400.59 685.56 381.57 705.87 371.85 716.44C366.95 721.77 358.07 744.61 350.47 765.95" />
		<path id="Path 112" class="shp4" d="M338.93 577.04C340.04 580.99 338.92 585.47 336.09 588.43" />
		<path id="Path 113" class="shp4" d="M306.68 605.01C309.43 600.75 312.1 594.91 311.36 589.89C309.92 580.08 305.44 568.78 307.46 559.06L311.32 540.44" />
		<path id="Path 114" class="shp11" d="M386.42 512.25C389.67 511.39 393.14 511.4 396.39 512.27C396.43 511.35 396.47 510.42 396.5 509.49M360.16 499.75C362.07 501.13 364.77 501.31 366.86 500.21C368.94 499.11 370.31 496.77 370.25 494.41M432.44 569.18C426.89 570.45 422.73 576.18 423.26 581.85C424.89 582.34 426.53 582.82 428.16 583.31" />
		<path id="Path 115" class="shp4" d="M368.07 571.62C368.3 574.98 367.89 583 368.11 586.35" />
		<path id="Path 116" class="shp4" d="M371.76 576.27C371.36 581.77 370.95 587.27 370.55 592.76C370.58 592.06 370.61 591.36 370.64 590.66" />
		<path id="Path 117" class="shp4" d="M402.27 622.62C403.74 628.64 403.07 635.15 400.4 640.74" />
		<path id="Path 118" class="shp11" d="M351.58 593.8C347.22 598.58 347.86 610.05 350.94 616.36M383.8 601.69C383.91 606.85 382.02 612.03 378.46 616.36M319.82 596.09C319.1 600.89 320.18 605.94 322.8 610.03M301.27 611.02C301.05 614.79 302.16 618.62 304.35 621.7M326.69 518.81C328.96 517.72 331.88 518.19 333.69 519.94L336.16 516.67M347.22 533.49C350.52 531.39 355.36 532.21 357.79 535.29M379.27 543.5C382.84 541.88 387.14 541.97 390.63 543.74M307.95 560.28C310.02 556.7 314.33 554.56 318.43 555.08M294.54 579.41C294.59 576.82 296.72 574.44 299.28 574.09" />
		<path id="Path 119" class="shp12" d="M892.76 352.79C892.76 398.57 855.65 435.68 809.87 435.68C764.09 435.68 726.98 398.57 726.98 352.79C726.98 307 764.09 269.89 809.87 269.89C855.65 269.89 892.76 307 892.76 352.79Z" />
		<path id="Path 120" class="shp3" d="M903.72 354.95C886.05 383.94 879.76 380.03 819.47 408.91C788.86 423.57 759.29 376.44 779.3 328.06C780.27 325.7 788.92 313.76 788.92 313.76C792.56 297.76 805.84 284.36 821.82 280.6C837.78 276.82 855.66 282.84 866.08 295.52C877.4 285.5 893.82 281.78 908.44 285.4C909.14 287.44 909.8 289.44 910.44 291.4C910.68 292.16 910.94 292.9 911.16 293.66C911.92 296 912.64 298.34 913.3 300.7C914.62 305.18 915.84 309.68 916.98 314.22C910.32 312.36 903.62 312.32 897.3 315.4C892.88 317.56 889.18 321.12 884.58 322.88C879.98 324.62 873.62 323.64 871.86 319.04C874.08 328.28 883.77 325.52 893.09 327.35C907.51 330.18 911.16 342.75 903.72 354.95Z" />
		<path id="Path 121" class="shp13" d="M876.49 340.67C876.49 340.67 891.33 338.66 898.38 339.71C902.86 340.38 905.6 342.98 906.92 344.61C907.52 345.36 907.87 346.29 907.94 347.25L908.73 358.85C908.83 360.17 908.37 361.49 907.46 362.45C904.56 365.46 895.82 370.96 869.95 372.94C833.57 375.72 876.49 340.67 876.49 340.67Z" />
		<path id="Path 122" class="shp13" d="M865.65 310.69C869.83 315.88 877.8 327.66 877.8 345.95C877.8 359.77 861.79 406.97 820.81 412.72C777.43 418.8 742.56 381.67 750.01 337C755.16 306.1 830.83 267.41 865.65 310.69Z" />
		<path id="Path 123" class="shp9" d="M749.71 342.83C749.71 375.73 777.89 402.4 812.65 402.4C847.41 402.4 875.59 375.73 875.59 342.83C875.59 309.93 847.41 283.26 812.65 283.26C777.89 283.26 749.71 309.93 749.71 342.83Z" />
		<path id="Path 124" class="shp8" d="M760.85 345.95C760.85 372.96 783.98 394.85 812.52 394.85C841.06 394.85 864.19 372.96 864.19 345.95C864.19 318.94 841.06 297.04 812.52 297.04C783.98 297.04 760.85 318.94 760.85 345.95Z" />
		<path id="Path 125" class="shp12" d="M875.59 342.83C875.59 309.93 847.41 283.26 812.65 283.26C777.89 283.26 749.71 309.93 749.71 342.83M858.98 383.15C869.29 372.54 875.59 358.38 875.59 342.83M768.56 385.34C779.91 395.89 795.48 402.4 812.65 402.4C823.19 402.4 833.13 399.95 841.86 395.61M759.48 374.72C760.3 375.95 761.17 377.15 762.09 378.32M749.71 342.83C749.71 351.92 751.86 360.54 755.71 368.25" />
		<path id="Path 126" class="shp13" d="M905.01 359.13C905.01 359.13 893.79 351.29 875.59 358.4" />
		<path id="Path 127" class="shp13" d="M895.35 364.59C891.06 365.86 883.86 367.33 872.08 368.24" />
		<path id="Path 128" class="shp13" d="M901.19 362.11C901.19 362.11 900.51 362.71 898.38 363.55" />
		<path id="Path 129" class="shp9" d="M911.16 293.66C910.94 292.9 910.68 292.16 910.44 291.4C906.62 279.56 901.7 266.56 895.72 252.84C894.62 250.3 893.46 247.72 892.3 245.12C891.84 245.16 891.4 245.2 890.96 245.24C885.22 245.82 879.18 246.54 874.46 249.8C869.72 253.12 866.92 259.94 869.98 264.84C872.98 269.7 880.84 272.4 879.6 277.94C866.78 285.16 851.14 284.32 836.88 287.96C828.3 290.14 820.18 294 813.06 299.2C813.04 299.2 813.04 299.22 813.02 299.22C810.76 300.92 808.58 302.72 806.54 304.66C805.64 305.52 804.7 306.46 803.9 307.5C803.88 307.52 803.88 307.52 803.88 307.54C802.7 309.04 801.8 310.72 801.62 312.62C801.12 317.96 805.98 321.6 811.16 323.92C812.12 324.36 812.06 325.74 811.08 326.08C807.7 327.44 804.4 329.02 801.74 331.48C801.72 331.48 801.7 331.5 801.68 331.52C800.04 333 801.38 335.78 803.62 335.48C803.86 335.44 804.16 335.42 804.42 335.4C806.62 335.24 808.68 335.5 810.46 336.12C813.52 337.2 815.66 339.28 815.88 341.84C816.2 345.9 811.58 349.56 805.58 350.02C804.12 350.16 805.24 351.9 807.38 352.26C811.64 353.02 815.98 352.2 820.18 351.22C825.2 350.02 830.56 348.28 833.4 343.98C834.6 342.16 834.96 339.78 834.6 337.62C834.1 334.66 832.24 332.08 829.28 331.78C838.56 330.68 847.76 328.84 856.72 326.28L856.74 326.28L859.56 325.42C862.24 324.62 865.06 323.64 867.3 322.04C868.7 321.04 869.86 319.86 870.68 318.32C872.76 314.3 869.82 307.94 865.38 308.78C878.28 303.72 891.92 300.76 904.96 296.1C907.04 295.34 909.12 294.54 911.16 293.66Z" />
		<path id="Path 130" class="shp3" d="M812.28 120.66C800.2 131.4 786.4 140.52 772.48 148.74C699.66 191.82 617.4 217.62 533.72 230.2C450.06 242.78 364.84 242.4 280.52 235.46C263.96 234.1 247.12 232.42 231.9 225.74C219 220.06 207.3 210.18 201.82 197.4C220.08 176.6 237.06 155.56 255.96 135.7C260.46 130.96 265.06 126.3 269.8 121.72C273.8 117.9 277.86 114.14 282.08 110.46C286.9 106.22 291.86 102.08 297.06 98.08C304.16 92.56 311.64 87.26 319.64 82.2C321.6 80.94 323.54 79.72 325.5 78.52C524.92 -45.42 671.7 -4.96 769.62 78.52C777 84.78 784.12 91.32 790.94 98.08C795.1 102.1 799.12 106.26 803.02 110.46C803.46 110.9 803.86 111.36 804.28 111.84C807.02 114.76 809.68 117.7 812.28 120.66Z" />
		<path id="Path 131" class="shp13" d="M820.15 100.77L149.22 103.83L159.37 88.63C164.25 81.31 172.46 76.92 181.25 76.92L788.36 76.92C796.32 76.92 803.86 80.53 808.85 86.73L820.15 100.77Z" />
		<path id="Path 132" class="shp14" d="M496.38 374.72L459.62 374.72C421.89 374.72 391.31 344.14 391.31 306.42L391.31 269.65C391.31 231.93 421.89 201.35 459.62 201.35L496.38 201.35C534.1 201.35 564.68 231.93 564.68 269.65L564.68 306.42C564.68 344.14 534.1 374.72 496.38 374.72Z" />
		<path id="Path 133" class="shp15" d="M422.83 302.67L422.83 327.32C422.83 335.05 429.1 341.32 436.83 341.32L521.36 341.32C529.06 341.32 535.29 335.11 535.36 327.42C535.47 316.33 536.06 302.67 536.06 302.67L422.83 302.67Z" />
		<path id="Path 134" class="shp16" d="M732.23 310.91L237.82 310.91C232.6 310.91 227.92 307.71 226.02 302.84L149.76 107.12C147.76 102 151.54 96.48 157.04 96.48L813.02 96.48C818.51 96.48 822.29 102 820.3 107.12L744.03 302.84C742.14 307.71 737.45 310.91 732.23 310.91Z" />
		<path id="Path 135" class="shp8" d="M735.9 293.85L232.96 293.85L163.76 108.88L804.78 108.88L735.9 293.85ZM423.37 318.32L535.49 318.32L535.49 310.64L423.37 310.64L423.37 318.32Z" />
		<path id="Path 136" class="shp0" d="M662.43 285.91L307.28 285.91C305.33 285.91 303.47 285.02 303.13 283.92L252.61 123.43C252.04 121.63 253.62 120.16 256.13 120.16L713.58 120.16C716.1 120.16 717.67 121.63 717.11 123.43L666.59 283.92C666.25 285.02 664.39 285.91 662.43 285.91Z" />
		<path id="Path 137" class="shp8" d="M661.12 282.27L308.59 282.27L265.66 141.25L704.05 141.25L661.12 282.27Z" />
		<path id="Path 138" class="shp9" d="M359.19 176.26L292.45 176.26C290.81 176.26 289.72 177.15 290.03 178.24C290.35 179.33 291.92 180.21 293.56 180.21L359.92 180.21C361.56 180.21 362.73 179.33 362.53 178.24C362.33 177.15 360.84 176.26 359.19 176.26ZM361.43 188.44L304.67 188.44C303.05 188.44 301.97 189.3 302.26 190.36C302.54 191.41 304.08 192.26 305.69 192.26L362.13 192.26C363.73 192.26 364.89 191.41 364.7 190.36C364.51 189.3 363.04 188.44 361.43 188.44Z" />
		<path id="Path 139" class="shp10" d="M363.58 200.2L299.18 200.2C297.59 200.2 296.53 201.03 296.82 202.05C297.11 203.07 298.63 203.89 300.21 203.89L364.26 203.89C365.84 203.89 366.98 203.07 366.79 202.05C366.61 201.03 365.17 200.2 363.58 200.2Z" />
		<path id="Path 140" class="shp9" d="M365.67 211.56L327.84 211.56C326.27 211.56 325.2 212.36 325.44 213.34C325.69 214.32 327.14 215.12 328.7 215.12L366.32 215.12C367.87 215.12 368.99 214.32 368.82 213.34C368.64 212.36 367.23 211.56 365.67 211.56ZM367.68 222.53L305.45 222.53C303.91 222.53 302.89 223.3 303.16 224.25C303.43 225.2 304.88 225.97 306.41 225.97L368.31 225.97C369.84 225.97 370.94 225.2 370.77 224.25C370.6 223.3 369.22 222.53 367.68 222.53ZM369.62 233.14L319.37 233.14C317.86 233.14 316.83 233.88 317.08 234.8C317.33 235.72 318.74 236.46 320.25 236.46L370.23 236.46C371.74 236.46 372.82 235.72 372.66 234.8C372.49 233.88 371.13 233.14 369.62 233.14ZM371.51 243.4L322.07 243.4C320.59 243.4 319.58 244.12 319.81 245.01C320.05 245.9 321.44 246.61 322.92 246.61L372.1 246.61C373.58 246.61 374.65 245.9 374.49 245.01C374.33 244.12 372.99 243.4 371.51 243.4ZM373.33 253.33L319.4 253.33C317.93 253.33 316.94 254.03 317.18 254.89C317.42 255.75 318.79 256.44 320.24 256.44L373.9 256.44C375.36 256.44 376.41 255.75 376.26 254.89C376.1 254.03 374.79 253.33 373.33 253.33Z" />
		<path id="Path 141" class="shp10" d="M375.09 262.94L340.25 262.94C338.81 262.94 337.81 263.62 338.02 264.46C338.22 265.29 339.55 265.96 340.98 265.96L375.65 265.96C377.08 265.96 378.12 265.29 377.97 264.46C377.82 263.62 376.53 262.94 375.09 262.94ZM356.87 163.62L307.14 163.62C305.46 163.62 304.34 164.55 304.63 165.68C304.92 166.81 306.51 167.72 308.18 167.72L357.63 167.72C359.29 167.72 360.48 166.81 360.28 165.68C360.08 164.55 358.55 163.62 356.87 163.62Z" />
		<path id="Path 142" class="shp9" d="M354.47 150.52L285.22 150.52C283.51 150.52 282.4 151.47 282.73 152.65C283.07 153.82 284.72 154.77 286.42 154.77L355.25 154.77C356.95 154.77 358.16 153.82 357.95 152.65C357.74 151.47 356.18 150.52 354.47 150.52ZM376.8 272.26L319.42 272.26C318 272.26 317.04 272.92 317.27 273.73C317.5 274.53 318.83 275.19 320.24 275.19L377.34 275.19C378.75 275.19 379.77 274.53 379.63 273.73C379.49 272.92 378.22 272.26 376.8 272.26Z" />
		<path id="Path 143" class="shp10" d="M382.63 180.7L395.58 180.7L394.93 175.76L381.89 175.76L382.63 180.7ZM384.44 192.73L397.16 192.73L396.53 187.96L383.72 187.96L384.44 192.73ZM386.18 204.34L398.68 204.34L398.08 199.74L385.49 199.74L386.18 204.34ZM387.87 215.56L400.15 215.56L399.57 211.11L387.2 211.11L387.87 215.56ZM389.5 226.39L401.57 226.39L401.01 222.1L388.85 222.1L389.5 226.39ZM391.07 236.87L402.95 236.87L402.4 232.72L390.45 232.72L391.07 236.87ZM392.59 247.01L404.28 247.01L403.75 242.99L391.99 242.99L392.59 247.01ZM394.07 256.83L405.57 256.83L405.06 252.93L393.48 252.93L394.07 256.83ZM395.5 266.34L406.81 266.34L406.32 262.56L394.93 262.56L395.5 266.34ZM380.76 168.23L393.94 168.23L393.27 163.11L379.99 163.11L380.76 168.23ZM378.82 155.3L392.25 155.3L391.55 149.98L378.02 149.98L378.82 155.3ZM396.88 275.55L408.02 275.55L407.54 271.89L396.33 271.89L396.88 275.55Z" />
		<path id="Path 144" class="shp9" d="M465.09 254.89C465.06 254.03 466.23 253.33 467.69 253.33L659.33 253.33C660.79 253.33 661.77 254.03 661.52 254.89C661.27 255.75 659.89 256.44 658.43 256.44L467.78 256.44C466.32 256.44 465.12 255.75 465.09 254.89ZM661.25 246.61L555.14 246.61C553.66 246.61 552.54 245.9 552.64 245.01C552.74 244.12 554.03 243.4 555.51 243.4L662.18 243.4C663.66 243.4 664.66 244.12 664.4 245.01C664.14 245.9 662.73 246.61 661.25 246.61Z" />
		<path id="Path 145" class="shp10" d="M529.96 246.61L496.95 246.61C495.47 246.61 494.28 245.9 494.3 245.01C494.31 244.12 495.53 243.4 497.01 243.4L530.19 243.4C531.68 243.4 532.83 244.12 532.76 245.01C532.69 245.9 531.44 246.61 529.96 246.61Z" />
		<path id="Path 146" class="shp9" d="M598.85 236.46L449.17 236.46C447.66 236.46 446.4 235.72 446.34 234.8C446.29 233.88 447.47 233.13 448.98 233.13L599.46 233.13C600.97 233.13 602.05 233.88 601.88 234.8C601.71 235.72 600.35 236.46 598.85 236.46Z" />
		<path id="Path 147" class="shp10" d="M417.87 233.13L428.54 233.13C430.05 233.13 431.34 233.88 431.42 234.8C431.5 235.72 430.34 236.46 428.84 236.46L418.22 236.46C416.72 236.46 415.42 235.72 415.32 234.8C415.22 233.88 416.36 233.13 417.87 233.13Z" />
		<path id="Path 148" class="shp9" d="M620.5 224.25C620.3 225.2 618.89 225.97 617.37 225.97L476.31 225.97C474.79 225.97 473.54 225.2 473.52 224.25C473.5 223.3 474.73 222.53 476.27 222.53L618.08 222.53C619.62 222.53 620.7 223.3 620.5 224.25ZM416.74 222.53L456.77 222.53C458.3 222.53 459.58 223.3 459.62 224.25C459.66 225.2 458.45 225.97 456.92 225.97L417.11 225.97C415.58 225.97 414.25 225.2 414.15 224.25C414.04 223.3 415.2 222.53 416.74 222.53ZM415.57 211.56L569.43 211.56C570.99 211.56 572.15 212.36 572.02 213.34C571.89 214.32 570.52 215.11 568.97 215.11L415.95 215.11C414.39 215.11 413.04 214.32 412.94 213.34C412.83 212.36 414 211.56 415.57 211.56ZM515.46 203.88C513.88 203.88 512.63 203.06 512.68 202.05C512.72 201.03 514.04 200.2 515.63 200.2L596.82 200.2C598.41 200.2 599.56 201.03 599.38 202.05C599.21 203.06 597.78 203.88 596.2 203.88L515.46 203.88ZM414.36 200.2L484.63 200.2C486.22 200.2 487.5 201.03 487.5 202.05C487.49 203.06 486.21 203.88 484.63 203.88L414.75 203.88C413.17 203.88 411.8 203.06 411.68 202.05C411.57 201.03 412.77 200.2 414.36 200.2ZM676.85 192.26L483.45 192.26C481.84 192.26 480.53 191.41 480.52 190.36C480.52 189.3 481.82 188.44 483.44 188.44L677.95 188.44C679.56 188.44 680.63 189.3 680.32 190.36C680.01 191.41 678.46 192.26 676.85 192.26ZM680.31 180.21L510.12 180.21C508.48 180.21 507.18 179.33 507.22 178.24C507.26 177.15 508.62 176.26 510.27 176.26L681.44 176.26C683.09 176.26 684.17 177.15 683.85 178.24C683.53 179.33 681.94 180.21 680.31 180.21Z" />
		<path id="Path 149" class="shp10" d="M683.89 167.72L648.25 167.72C646.59 167.72 645.44 166.81 645.7 165.68C645.97 164.55 647.54 163.62 649.22 163.62L685.07 163.62C686.74 163.62 687.84 164.55 687.51 165.68C687.18 166.81 685.56 167.72 683.89 167.72Z" />
		<path id="Path 150" class="shp9" d="M623.32 167.72L492.46 167.72C490.79 167.72 489.44 166.81 489.45 165.68C489.46 164.55 490.83 163.62 492.51 163.62L624.14 163.62C625.82 163.62 626.99 164.55 626.76 165.68C626.53 166.81 624.99 167.72 623.32 167.72ZM421.05 262.94L541.89 262.94C543.33 262.94 544.43 263.62 544.35 264.46C544.26 265.29 543.04 265.96 541.6 265.96L421.37 265.96C419.94 265.96 418.7 265.29 418.61 264.46C418.52 263.62 419.61 262.94 421.05 262.94ZM422.04 272.26L607.71 272.26C609.13 272.26 610.14 272.92 609.96 273.73C609.79 274.53 608.51 275.19 607.1 275.19L422.35 275.19C420.94 275.19 419.73 274.53 419.64 273.73C419.55 272.92 420.63 272.26 422.04 272.26ZM616.83 154.77L522.31 154.77C520.61 154.77 519.28 153.82 519.33 152.65C519.39 151.47 520.82 150.52 522.53 150.52L617.62 150.52C619.33 150.52 620.54 151.47 620.31 152.65C620.09 153.82 618.53 154.77 616.83 154.77Z" />
		<path id="Path 151" class="shp10" d="M495.49 154.77L409.51 154.77C407.81 154.77 406.33 153.82 406.2 152.65C406.07 151.47 407.35 150.52 409.06 150.52L495.56 150.52C497.27 150.52 498.63 151.47 498.61 152.65C498.59 153.82 497.19 154.77 495.49 154.77ZM568.71 262.94C570.15 262.94 571.21 263.62 571.09 264.46C570.97 265.29 569.71 265.96 568.28 265.96L558.94 265.96C557.51 265.96 556.43 265.29 556.53 264.46C556.63 263.62 557.88 262.94 559.32 262.94L568.71 262.94ZM454.08 254.89C454.12 255.75 452.97 256.44 451.52 256.44L438.79 256.44C437.34 256.44 436.1 255.75 436.03 254.89C435.97 254.03 437.1 253.33 438.56 253.33L451.35 253.33C452.81 253.33 454.03 254.03 454.08 254.89ZM607.59 213.34C607.4 214.32 605.99 215.11 604.44 215.11L589.56 215.11C588.01 215.11 586.87 214.32 587.03 213.34C587.18 212.36 588.57 211.56 590.14 211.56L605.09 211.56C606.66 211.56 607.77 212.36 607.59 213.34ZM654 222.53C655.54 222.53 656.58 223.3 656.32 224.25C656.06 225.2 654.62 225.97 653.09 225.97L641.23 225.97C639.71 225.97 638.65 225.2 638.88 224.25C639.11 223.3 640.54 222.53 642.08 222.53L654 222.53ZM460.02 192.26C458.41 192.26 457.07 191.41 457.03 190.36C456.98 189.3 458.26 188.44 459.88 188.44L472.5 188.44C474.12 188.44 475.45 189.3 475.46 190.36C475.48 191.41 474.18 192.26 472.57 192.26L460.02 192.26Z" />
		<path id="Path 152" class="shp9" d="M288.14 130.68C289.12 133.95 287.23 136.58 283.93 136.58C280.64 136.58 277.12 133.95 276.06 130.68C274.99 127.36 276.85 124.63 280.23 124.63C283.6 124.63 287.15 127.36 288.14 130.68ZM304.42 130.77C305.3 134.05 303.32 136.67 300.02 136.67C296.73 136.67 293.29 134.05 292.34 130.77C291.38 127.46 293.32 124.73 296.7 124.73C300.08 124.73 303.54 127.46 304.42 130.77ZM320.89 130.68C321.65 133.95 319.59 136.58 316.3 136.58C313 136.58 309.65 133.95 308.8 130.68C307.95 127.36 309.98 124.63 313.36 124.63C316.74 124.63 320.11 127.36 320.89 130.68Z" />
		<path id="Path 153" class="shp17" d="M163.76 108.88L217.66 252.94L282.67 108.88L163.76 108.88ZM254.69 293.85L362.55 108.88L475.46 108.88L316.72 293.85L254.69 293.85ZM524.12 107.97L356.01 293.85L381.89 293.85L556.04 108.88L524.12 107.97ZM557.31 293.85L742.08 108.88L768.15 108.88L577.66 293.85L557.31 293.85Z" />
		<path id="Path 154" class="shp13" d="M306.8 374.13L264.61 374.13C259.13 374.13 254.69 378.57 254.69 384.05L254.69 404.58C254.69 410.06 259.13 414.5 264.61 414.5L275.64 414.5L284 433.44L295.78 414.5L306.8 414.5C312.28 414.5 316.72 410.06 316.72 404.58L316.72 384.05C316.72 378.57 312.28 374.13 306.8 374.13Z" />
		<path id="Path 155" class="shp8" d="M280.28 390.06L283.49 390.06L283.49 403.79L280.28 403.79L280.28 390.06ZM279.84 385.88C279.84 384.8 280.72 383.95 281.9 383.95C283.08 383.95 283.96 384.74 283.96 385.8C283.96 386.93 283.11 387.8 281.9 387.8C280.72 387.8 279.84 386.95 279.84 385.88ZM291.25 389.34L291.25 390.17L295.03 390.17L295.03 392.74L291.35 392.74L291.35 403.79L288.14 403.79L288.14 392.74L285.88 392.74L285.88 390.17L288.14 390.17L288.14 389.29C288.14 386.42 289.86 384.54 293.05 384.54C294.15 384.54 295.23 384.77 295.95 385.28L295.05 387.7C294.56 387.37 293.95 387.14 293.28 387.14C291.94 387.14 291.25 387.88 291.25 389.34Z" />
		<path id="Path 156" class="shp13" d="M435.24 377.01L393.04 377.01C387.57 377.01 383.13 381.45 383.13 386.93L383.13 407.45C383.13 412.93 387.57 417.37 393.04 417.37L404.07 417.37L412.43 436.31L424.21 417.37L435.24 417.37C440.71 417.37 445.15 412.93 445.15 407.45L445.15 386.93C445.15 381.45 440.71 377.01 435.24 377.01Z" />
		<path id="Path 157" fill-rule="evenodd" class="shp8" d="M401.91 400.83L391.15 400.83C391.53 402.83 393.2 404.12 395.59 404.12C397.13 404.12 398.34 403.63 399.32 402.63L401.04 404.61C399.8 406.07 397.88 406.84 395.51 406.84C390.91 406.84 387.93 403.89 387.93 399.8C387.93 395.71 390.94 392.78 395.03 392.78C399.03 392.78 401.96 395.59 401.96 399.88C401.96 400.13 401.94 400.52 401.91 400.83ZM391.12 398.7L398.91 398.7C398.65 396.72 397.13 395.35 395.03 395.35C392.94 395.35 391.43 396.69 391.12 398.7ZM405.04 387.59L408.25 387.59L408.25 406.66L405.04 406.66L405.04 387.59ZM410.89 405.3L412.13 402.86C413.33 403.65 415.18 404.22 416.9 404.22C418.93 404.22 419.78 403.65 419.78 402.7C419.78 400.08 411.3 402.55 411.3 397.07C411.3 394.48 413.64 392.78 417.34 392.78C419.17 392.78 421.25 393.22 422.48 393.97L421.25 396.41C419.94 395.64 418.63 395.38 417.32 395.38C415.36 395.38 414.44 396.02 414.44 396.92C414.44 399.7 422.92 397.23 422.92 402.6C422.92 405.17 420.55 406.84 416.7 406.84C414.41 406.84 412.13 406.17 410.89 405.3ZM438.53 400.83L427.77 400.83C428.15 402.83 429.82 404.12 432.21 404.12C433.75 404.12 434.96 403.63 435.94 402.63L437.66 404.61C436.43 406.07 434.5 406.84 432.14 406.84C427.54 406.84 424.56 403.89 424.56 399.8C424.56 395.71 427.56 392.78 431.65 392.78C435.66 392.78 438.58 395.59 438.58 399.88C438.58 400.13 438.56 400.52 438.53 400.83ZM427.74 398.7L435.53 398.7C435.27 396.72 433.75 395.35 431.65 395.35C429.57 395.35 428.05 396.69 427.74 398.7Z" />
		<path id="Path 158" class="shp13" d="M559.76 375.79L517.56 375.79C512.09 375.79 507.64 380.23 507.64 385.71L507.64 406.24C507.64 411.71 512.09 416.15 517.56 416.15L528.59 416.15L536.95 435.09L548.73 416.15L559.76 416.15C565.23 416.15 569.67 411.71 569.67 406.24L569.67 385.71C569.67 380.23 565.23 375.79 559.76 375.79Z" />
		<path id="Path 159" class="shp8" d="M527.24 391L527.24 391.82L531.02 391.82L531.02 394.39L527.34 394.39L527.34 405.44L524.13 405.44L524.13 394.39L521.87 394.39L521.87 391.82L524.13 391.82L524.13 390.95C524.13 388.07 525.85 386.2 529.04 386.2C530.14 386.2 531.22 386.43 531.94 386.94L531.04 389.36C530.56 389.02 529.94 388.79 529.27 388.79C527.94 388.79 527.24 389.54 527.24 391Z" />
		<path id="Path 160" fill-rule="evenodd" class="shp8" d="M531.84 398.58C531.84 394.47 534.92 391.57 539.13 391.57C543.4 391.57 546.46 394.47 546.46 398.58C546.46 402.69 543.4 405.62 539.13 405.62C534.92 405.62 531.84 402.69 531.84 398.58ZM543.22 398.58C543.22 395.96 541.47 394.29 539.13 394.29C536.82 394.29 535.07 395.96 535.07 398.58C535.07 401.2 536.82 402.87 539.13 402.87C541.47 402.87 543.22 401.2 543.22 398.58ZM557.47 391.57L557.47 394.63C557.18 394.57 556.95 394.55 556.72 394.55C554.28 394.55 552.74 395.99 552.74 398.79L552.74 405.44L549.53 405.44L549.53 391.72L552.59 391.72L552.59 393.73C553.51 392.29 555.18 391.57 557.47 391.57Z" />
		<path id="Path 161" class="shp13" d="M682.48 374.13L640.28 374.13C634.8 374.13 630.36 378.57 630.36 384.05L630.36 404.58C630.36 410.06 634.8 414.5 640.28 414.5L651.31 414.5L659.67 433.44L671.45 414.5L682.48 414.5C687.95 414.5 692.39 410.06 692.39 404.58L692.39 384.05C692.39 378.57 687.95 374.13 682.48 374.13Z" />
		<path id="Path 162" class="shp8" d="M655.9 395.61L667.74 395.61L667.74 398.18L655.9 398.18L655.9 395.61ZM655.9 389.39L667.74 389.39L667.74 391.96L655.9 391.96L655.9 389.39Z" />
		<path id="Path 163" class="shp13" d="M371.12 350.38L328.92 350.38C323.45 350.38 319.01 354.82 319.01 360.29L319.01 380.82C319.01 386.3 323.45 390.74 328.92 390.74L339.95 390.74L348.31 409.68L360.09 390.74L371.12 390.74C376.6 390.74 381.04 386.3 381.04 380.82L381.04 360.29C381.04 354.82 376.6 350.38 371.12 350.38Z" />
		<path id="Path 164" class="shp8" d="M340.09 358.91L346.24 358.91L346.24 361.48L343.31 361.48L343.31 380.39L346.24 380.39L346.24 382.96L340.09 382.96L340.09 358.91ZM354.19 382.96L354.19 380.39L357.1 380.39L357.1 361.48L354.19 361.48L354.19 358.91L360.31 358.91L360.31 382.96L354.19 382.96Z" />
		<path id="Path 165" class="shp13" d="M496.56 348.28L454.37 348.28C448.89 348.28 444.45 352.72 444.45 358.2L444.45 378.72C444.45 384.2 448.89 388.64 454.37 388.64L465.39 388.64L473.75 407.58L485.53 388.64L496.56 388.64C502.04 388.64 506.48 384.2 506.48 378.72L506.48 358.2C506.48 352.72 502.04 348.28 496.56 348.28Z" />
		<path id="Path 166" class="shp8" d="M466.87 368.75C467.9 369.08 468.39 369.78 468.39 371.37L468.39 376.25C468.39 377.49 469.01 378.21 470.29 378.21L470.83 378.21L470.83 380.78L469.55 380.78C466.64 380.78 465.18 379.31 465.18 376.59L465.18 371.29C465.18 370.45 464.74 370.06 464.02 370.06L463.17 370.06L463.17 367.44L464.02 367.44C464.74 367.44 465.18 367.05 465.18 366.21L465.18 360.91C465.18 358.19 466.64 356.72 469.55 356.72L470.83 356.72L470.83 359.29L470.29 359.29C469.01 359.29 468.39 360.01 468.39 361.25L468.39 366.13C468.39 367.72 467.9 368.42 466.87 368.75ZM486.47 367.44L486.47 370.06L485.6 370.06C484.9 370.06 484.47 370.45 484.47 371.29L484.47 376.59C484.47 379.31 482.98 380.78 480.07 380.78L478.79 380.78L478.79 378.21L479.33 378.21C480.64 378.21 481.26 377.49 481.26 376.25L481.26 371.37C481.26 369.78 481.72 369.08 482.75 368.75C481.72 368.42 481.26 367.72 481.26 366.13L481.26 361.25C481.26 360.01 480.64 359.29 479.33 359.29L478.79 359.29L478.79 356.73L480.07 356.73C482.98 356.73 484.47 358.19 484.47 360.91L484.47 366.21C484.47 367.06 484.9 367.44 485.6 367.44L486.47 367.44Z" />
		<path id="Path 167" class="shp13" d="M620.67 344.12L578.48 344.12C573 344.12 568.56 348.56 568.56 354.03L568.56 374.56C568.56 380.04 573 384.48 578.48 384.48L589.51 384.48L597.86 403.42L609.64 384.48L620.67 384.48C626.15 384.48 630.59 380.04 630.59 374.56L630.59 354.03C630.59 348.56 626.15 344.12 620.67 344.12Z" />
		<path id="Path 168" class="shp8" d="M602.11 369.1C602.11 369.67 601.98 370.13 601.52 371.31L600.21 374.94L598.13 374.94L599.16 371C598.44 370.7 597.95 370.03 597.95 369.1C597.95 367.82 598.85 366.97 600.03 366.97C601.24 366.97 602.11 367.84 602.11 369.1ZM597.9 359.31C597.9 358.03 598.85 357.18 600 357.18C601.16 357.18 602.11 358.03 602.11 359.31C602.11 360.55 601.16 361.44 600 361.44C598.85 361.44 597.9 360.55 597.9 359.31Z" />
		<path id="Path 169" class="shp13" d="M455.71 703L497.91 703C503.38 703 507.82 698.56 507.82 693.08L507.82 672.55C507.82 667.07 503.38 662.63 497.91 662.63L486.88 662.63L483.66 643.69L466.74 662.63L455.71 662.63C450.23 662.63 445.79 667.07 445.79 672.55L445.79 693.08C445.79 698.56 450.23 703 455.71 703Z" />
		<path id="Path 170" class="shp8" d="M470.54 678.6L461.68 681.91L470.54 685.23L470.54 687.9L458.7 683.3L458.7 680.53L470.54 675.93L470.54 678.6ZM479.89 669.27L482.77 669.27L474.29 693.48L471.41 693.48L479.89 669.27ZM495.22 680.53L495.22 683.3L483.38 687.9L483.38 685.23L492.24 681.91L483.38 678.6L483.38 675.93L495.22 680.53Z" />
		<path id="Path 171" class="shp13" d="M187.47 553.51L229.67 553.51C235.14 553.51 239.58 549.07 239.58 543.59L239.58 523.06C239.58 517.59 235.14 513.14 229.67 513.14L218.64 513.14L221.04 494.21L198.5 513.14L187.47 513.14C182 513.14 177.56 517.59 177.56 523.06L177.56 543.59C177.56 549.07 182 553.51 187.47 553.51Z" />
		<path id="Path 172" class="shp8" d="M200.16 524.33L203.96 524.33L203.32 536.35L200.78 536.35L200.16 524.33ZM199.98 540.49C199.98 539.38 200.86 538.51 202.06 538.51C203.25 538.51 204.09 539.38 204.09 540.49C204.09 541.6 203.25 542.49 202.06 542.49C200.86 542.49 199.98 541.6 199.98 540.49ZM207.28 535.14L219.12 535.14L219.12 537.71L207.28 537.71L207.28 535.14ZM207.28 528.93L219.12 528.93L219.12 531.5L207.28 531.5L207.28 528.93Z" />
		<path id="Path 173" class="shp9" d="M863.06 530.23C863.06 538.47 862.38 546.46 861.12 553.97C855.32 588.57 837.13 613.83 815.6 613.83C813.67 613.83 811.75 613.61 809.88 613.23C786.38 608.24 768.15 572.99 768.15 530.23C768.15 484.07 789.4 467.74 815.6 467.74C841.81 467.74 863.06 484.07 863.06 530.23Z" />
		<g id="Mask" clip-path="url(#cp4)">
			<path id="Path 175" class="shp0" d="M845.86 530.76C847.63 555.52 843.37 580.4 836.24 604.17C854.12 589.5 862.34 566.42 869.77 544.52C875.17 528.62 880.64 512.22 879.67 495.46C878.69 478.69 869.71 461.25 853.98 455.37C846.29 452.5 837.34 452.71 829.73 455.77C816.55 461.05 823.76 465.35 829.3 474.82C839.21 491.77 844.47 511.25 845.86 530.76Z" />
			<path id="Path 176" class="shp10" d="M845.86 530.76C847.63 555.52 843.37 580.4 836.24 604.17C854.12 589.5 862.34 566.42 869.77 544.52C875.17 528.62 880.64 512.22 879.67 495.46C878.69 478.69 869.71 461.25 853.98 455.37C846.29 452.5 837.34 452.71 829.73 455.77C816.55 461.05 823.76 465.35 829.3 474.82C839.21 491.77 844.47 511.25 845.86 530.76Z" />
		</g>
		<path id="Path 178" class="shp11" d="M863.06 530.23C863.06 538.47 862.38 546.46 861.12 553.97C855.32 588.57 837.13 613.83 815.6 613.83C813.67 613.83 811.75 613.61 809.88 613.23C786.38 608.24 768.15 572.99 768.15 530.23C768.15 484.07 789.4 467.74 815.6 467.74C841.81 467.74 863.06 484.07 863.06 530.23Z" />
		<path id="Path 179" class="shp4" d="M841.09 572.71C837.92 583.36 832.67 593.38 825.53 601.91" />
		<path id="Path 180" class="shp11" d="M842.6 566.89C842.35 568.02 842.08 569.14 841.78 570.26" />
		<path id="Path 181" class="shp4" d="M842.48 530.12C845.01 540.77 845.26 551.91 843.43 562.69" />
		<path id="Path 182" class="shp11" d="M768.15 530.24C768.15 530.24 822.09 508.91 863.05 530.24" />
		<path id="Path 183" class="shp4" d="M815.6 467.74C815.6 467.74 821 487.75 821.63 520.27" />
		<path id="Path 184" class="shp16" d="M823.13 492.07C823.82 498.29 822.75 503.59 820.72 503.91C818.7 504.23 816.5 499.45 815.81 493.23C815.12 487.02 816.19 481.72 818.22 481.4C820.24 481.08 822.44 485.86 823.13 492.07Z" />
		<path id="Path 185" class="shp11" d="M794.32 629.82L731.08 629.82C723.2 629.82 716.72 623.98 715.7 616.4C715.56 615.72 715.52 615 715.52 614.26L715.52 465.08C715.52 464.36 715.56 463.64 715.7 462.92C716.72 455.34 723.2 449.52 731.08 449.52L910.52 449.52C913.24 449.52 915.78 450.22 917.98 451.44" />
	</g>
</svg>