<svg xmlns="http://www.w3.org/2000/svg" viewBox="0 0 823 708" width="823" height="708">
	<defs>
		<clipPath clipPathUnits="userSpaceOnUse" id="cp1">
			<path d="M-71 -157L929 -157L929 843L-71 843Z" />
		</clipPath>
	</defs>
	<style>
		tspan { white-space:pre }
		.shp0 { fill: #ebebeb } 
		.shp1 { fill: #27debf } 
		.shp2 { opacity: 0.102;fill: #000000 } 
		.shp3 { fill: #ffffff } 
		.shp4 { fill: #37474f } 
		.shp5 { fill: #263238 } 
		.shp6 { fill: #455a64 } 
		.shp7 { fill: #f5f5f5 } 
		.shp8 { opacity: 0.4;fill: #ffffff } 
		.shp9 { opacity: 0.698;fill: #ffffff } 
		.shp10 { fill: #e6e6e6 } 
	</style>
	<g id="Page 1" clip-path="url(#cp1)">
		<path id="Path 1" class="shp0" d="M185.45 650.74C326.95 726.27 556.37 726.27 697.87 650.74C839.37 575.21 839.37 452.75 697.87 377.22C556.37 301.69 326.95 301.69 185.44 377.22C43.94 452.75 43.94 575.21 185.45 650.74Z" />
		<path id="Path 2" class="shp1" d="M739.49 463.36L718.84 451.44C718.84 451.44 713.78 407.22 717.14 372.97C721.87 324.85 752.95 266.95 790.03 280.54C827.1 294.14 773.03 343.15 760.99 383.97C748.95 424.78 739.49 463.36 739.49 463.36Z" />
		<path id="Path 3" class="shp2" d="M739.49 463.36L718.84 451.44C718.84 451.44 713.78 407.22 717.14 372.97C721.87 324.85 752.95 266.95 790.03 280.54C827.1 294.14 773.03 343.15 760.99 383.97C748.95 424.78 739.49 463.36 739.49 463.36Z" />
		<path id="Path 4" class="shp3" d="M728.73 457.95C728.34 457.95 728 457.66 727.94 457.26C720.92 403.32 740.14 321.65 778.93 290.68C779.28 290.41 779.78 290.47 780.05 290.81C780.32 291.15 780.27 291.65 779.92 291.93C741.54 322.56 722.56 403.54 729.52 457.05C729.58 457.49 729.27 457.89 728.84 457.94C728.8 457.95 728.77 457.95 728.73 457.95Z" />
		<path id="Path 5" class="shp1" d="M750.51 471.89L735.81 463.41C735.81 463.41 733.31 433.06 748.19 396.2C761.14 364.11 793.28 337.49 809.44 343.08C825.6 348.68 825.2 360.14 817.32 372.16C809.44 384.18 761.5 412.84 750.51 471.89Z" />
		<path id="Path 6" class="shp3" d="M741.4 472.69C741.38 472.69 741.36 472.69 741.35 472.69C740.91 472.66 740.58 472.28 740.6 471.84C745.44 396.33 783.65 359.19 806.59 353.51C807.02 353.41 807.45 353.67 807.55 354.1C807.66 354.52 807.4 354.96 806.97 355.06C782.8 361.04 746.73 401.25 742.19 471.94C742.16 472.36 741.81 472.69 741.4 472.69Z" />
		<path id="Path 7" class="shp1" d="M144.92 469.24C144.92 469.24 147.65 424.9 121.89 394.51C96.13 364.12 62.6 364.22 51.49 369.89C40.38 375.55 32.95 391.73 52.05 403.31C71.15 414.89 111.77 438.05 118.52 458.73L144.92 469.24Z" />
		<path id="Path 8" class="shp2" d="M144.92 469.24C144.92 469.24 147.65 424.9 121.89 394.51C96.13 364.12 62.6 364.22 51.49 369.89C40.38 375.55 32.95 391.73 52.05 403.31C71.15 414.89 111.77 438.05 118.52 458.73L144.92 469.24Z" />
		<path id="Path 9" class="shp3" d="M132.88 458.14C132.38 458.14 131.94 457.76 131.89 457.25C126.57 408.18 77.55 380.99 58 377.92C57.45 377.83 57.08 377.32 57.17 376.77C57.25 376.22 57.78 375.86 58.31 375.94C78.3 379.08 128.44 406.88 133.88 457.03C133.93 457.58 133.54 458.08 132.99 458.14C132.95 458.14 132.92 458.14 132.88 458.14Z" />
		<path id="Path 10" class="shp1" d="M123.34 446.89C116.88 432.17 109.58 425.56 88.58 429.08C67.57 432.59 70.68 432.05 44.87 425.48C34.04 422.72 21.86 422.29 11.47 426.96C2.69 430.91 -3.88 438.97 4.62 447.48C14.18 457.05 28.45 460.26 39.06 468.64C41.35 470.44 43.52 472.58 44.58 475.29C47.35 482.37 41.8 490.35 43.42 497.78C44.98 504.96 52.84 509.15 60.17 509.63C67.5 510.12 74.71 507.91 82 507.08C89.3 506.24 97.51 507.14 102.53 512.49C107.93 518.25 108.07 527.42 113.09 533.51C120.63 542.67 139.14 545.2 149.08 539.47L175.25 524.38C192.56 501.05 165.35 482.58 150.96 464.48C143.99 455.71 127.22 455.73 123.34 446.89Z" />
		<path id="Path 11" class="shp3" d="M159 510.34C158.67 510.34 158.34 510.17 158.15 509.86C128.29 461.48 47.07 437.01 18.24 434.96C17.69 434.92 17.27 434.44 17.31 433.89C17.35 433.34 17.88 432.92 18.38 432.96C47.52 435.04 129.61 459.8 159.85 508.81C160.14 509.28 160 509.9 159.53 510.19C159.36 510.29 159.18 510.34 159 510.34ZM64.41 487.54C64.11 487.54 63.8 487.4 63.61 487.13C63.28 486.69 63.37 486.06 63.82 485.73C64.86 484.96 89.65 466.76 113.75 466.39L113.77 466.39C114.31 466.39 114.76 466.83 114.77 467.38C114.78 467.93 114.34 468.38 113.78 468.39C90.32 468.75 65.26 487.15 65.01 487.34C64.83 487.47 64.62 487.54 64.41 487.54Z" />
		<path id="Path 12" class="shp4" d="M157.14 527.34C157.14 532.52 161.02 538.96 165.8 541.72L408.45 681.82C413.24 684.58 420.99 684.58 425.77 681.82L757.79 490.13C762.57 487.37 766.45 480.93 766.45 475.75C766.45 470.57 762.57 464.13 757.79 461.37L515.14 321.27C510.36 318.51 502.6 318.51 497.82 321.27L165.8 512.96C161.02 515.72 157.14 522.16 157.14 527.34Z" />
		<path id="Path 13" class="shp5" d="M257.25 460.16L165.8 512.96C161.02 515.72 157.14 522.16 157.14 527.34C157.14 532.52 161.02 538.96 165.8 541.72L408.45 681.82C410.85 683.2 413.98 683.89 417.11 683.89L417.11 460.16L257.25 460.16Z" />
		<path id="Path 14" class="shp6" d="M149.02 513.27C144.53 510.68 140.89 504.1 140.89 498.58L140.89 209.01C140.89 203.49 144.77 196.77 149.55 194.01L481.57 2.32C486.35 -0.44 493.87 -0.58 498.35 2.01C502.84 4.6 506.48 11.18 506.48 16.7L506.48 306.27C506.48 311.8 502.6 318.51 497.82 321.27L165.8 512.96C161.02 515.72 153.5 515.86 149.02 513.27Z" />
		<path id="Path 15" class="shp5" d="M181.52 222.46L143.43 200.47C141.86 203.19 140.89 206.25 140.89 209.01L140.89 498.58C140.89 504.1 144.53 510.68 149.02 513.27C153.5 515.86 161.02 515.72 165.8 512.96L203.67 491.1L181.52 222.46Z" />
		<path id="Path 16" class="shp4" d="M157.14 218.39L157.14 507.96C157.14 513.48 161.02 515.72 165.8 512.96L497.82 321.27C502.6 318.51 506.48 311.8 506.48 306.27L506.48 16.7C506.48 11.18 502.6 8.94 497.82 11.7L165.8 203.39C161.02 206.15 157.14 212.87 157.14 218.39Z" />
		<path id="Path 17" class="shp6" d="M165.8 522.96L408.45 663.06C413.24 665.82 420.99 665.82 425.77 663.06L757.79 471.37C762.57 468.6 762.57 464.13 757.79 461.37L515.14 321.27C510.35 318.51 502.6 318.51 497.82 321.27L165.8 512.96C161.02 515.72 161.02 520.2 165.8 522.96Z" />
		<path id="Path 18" class="shp3" d="M170.46 219.46L493.16 33.15C496.03 31.5 498.35 32.84 498.35 36.15L498.35 286.82C498.35 290.14 496.03 294.17 493.16 295.82L170.46 482.13C167.59 483.78 165.26 482.44 165.26 479.13L165.26 228.46C165.26 225.15 167.59 221.12 170.46 219.46Z" />
		<path id="Path 19" class="shp5" d="M193.97 515.46L502.15 337.54C504.54 336.15 508.42 336.15 510.81 337.54L526.57 346.64C528.96 348.02 528.96 350.25 526.57 351.63L218.34 529.53C215.95 530.91 212.07 530.91 209.68 529.53L193.97 520.46C191.57 519.08 191.57 516.84 193.97 515.46ZM234.59 538.91L542.77 360.99C545.16 359.6 549.04 359.6 551.43 360.99L648.38 416.96C650.78 418.34 650.77 420.58 648.38 421.96L340.56 599.65C338.17 601.03 334.28 601.03 331.89 599.66L234.6 543.9C232.2 542.53 232.2 540.29 234.59 538.91Z" />
		<path id="Path 20" fill-rule="evenodd" class="shp6" d="M389.23 456.7C388.79 456.45 388.77 456.05 389.18 455.81L398.83 450.24C399.24 450.01 399.93 450.02 400.37 450.27L411.53 456.72C411.97 456.97 411.99 457.37 411.58 457.61L401.93 463.18C401.52 463.41 400.83 463.4 400.39 463.14L389.23 456.7ZM512.23 390.42C511.8 390.16 511.77 389.76 512.18 389.53L521.83 383.96C522.24 383.72 522.93 383.73 523.37 383.99L526.34 385.7C526.78 385.96 526.8 386.35 526.39 386.59L516.74 392.16C516.33 392.4 515.65 392.38 515.21 392.13L512.23 390.42ZM600.56 425.13L589.41 418.69C588.97 418.43 588.94 418.03 589.35 417.8L599 412.23C599.41 411.99 600.1 412 600.54 412.26L611.7 418.7C612.14 418.95 612.16 419.35 611.75 419.59L602.1 425.16C601.69 425.4 601 425.38 600.56 425.13ZM555.69 382.94C555.25 382.68 555.23 382.28 555.64 382.05L565.29 376.48C565.7 376.24 566.39 376.25 566.82 376.51L577.98 382.95C578.42 383.2 578.45 383.6 578.04 383.84L568.39 389.41C567.98 389.65 567.29 389.63 566.85 389.38L555.69 382.94ZM540.44 374.13C540 373.88 539.98 373.48 540.39 373.24L550.04 367.67C550.45 367.44 551.13 367.45 551.57 367.7L554.54 369.42C554.98 369.67 555.01 370.07 554.6 370.31L544.95 375.88C544.54 376.11 543.85 376.1 543.41 375.85L540.44 374.13ZM498.13 398.56C497.69 398.3 497.67 397.91 498.08 397.67L507.73 392.1C508.14 391.86 508.83 391.88 509.27 392.13L512.24 393.84C512.68 394.1 512.7 394.5 512.29 394.73L502.64 400.3C502.23 400.54 501.54 400.53 501.1 400.27L498.13 398.56ZM417.44 440.42C417 440.16 416.98 439.77 417.39 439.53L427.03 433.96C427.44 433.72 428.13 433.74 428.57 433.99L439.73 440.43C440.17 440.69 440.2 441.08 439.79 441.32L430.14 446.89C429.73 447.13 429.04 447.11 428.6 446.86L417.44 440.42ZM403.34 448.56C402.9 448.31 402.87 447.91 403.28 447.67L412.93 442.1C413.34 441.86 414.03 441.88 414.47 442.13L425.63 448.57C426.07 448.83 426.09 449.23 425.68 449.46L416.03 455.03C415.62 455.27 414.93 455.26 414.49 455L403.34 448.56ZM462.87 414.19C462.42 413.94 462.4 413.54 462.81 413.3L472.46 407.73C472.87 407.5 473.56 407.51 474 407.77L485.16 414.21C485.6 414.46 485.62 414.86 485.21 415.09L475.56 420.67C475.15 420.9 474.46 420.89 474.02 420.63L462.87 414.19ZM431.54 432.28C431.1 432.02 431.08 431.62 431.49 431.39L441.14 425.82C441.55 425.58 442.23 425.6 442.68 425.85L453.83 432.29C454.27 432.54 454.3 432.94 453.89 433.18L444.24 438.75C443.83 438.99 443.14 438.97 442.7 438.72L431.54 432.28ZM476.97 406.05C476.53 405.8 476.5 405.4 476.91 405.16L486.56 399.59C486.97 399.35 487.66 399.37 488.1 399.62L499.26 406.06C499.7 406.32 499.72 406.72 499.31 406.95L489.66 412.52C489.25 412.76 488.56 412.75 488.13 412.49L476.97 406.05ZM448.76 422.33C448.32 422.08 448.3 421.68 448.71 421.45L458.36 415.87C458.77 415.64 459.46 415.65 459.9 415.91L471.05 422.35C471.49 422.6 471.52 423 471.11 423.24L461.46 428.81C461.05 429.04 460.36 429.03 459.92 428.78L448.76 422.33ZM526.34 382.27C525.9 382.02 525.87 381.62 526.28 381.39L535.93 375.81C536.34 375.58 537.03 375.59 537.47 375.85L540.44 377.56C540.88 377.81 540.91 378.21 540.5 378.45L530.85 384.02C530.44 384.26 529.75 384.24 529.31 383.99L526.34 382.27ZM463.25 504.41L452.09 497.97C451.65 497.71 451.63 497.31 452.04 497.08L461.69 491.51C462.1 491.27 462.79 491.28 463.23 491.54L474.38 497.98C474.82 498.23 474.85 498.63 474.44 498.87L464.79 504.44C464.38 504.68 463.69 504.66 463.25 504.41ZM435.05 520.69L423.89 514.25C423.45 513.99 423.42 513.6 423.83 513.36L433.48 507.79C433.89 507.55 434.58 507.57 435.02 507.82L446.18 514.26C446.62 514.52 446.64 514.92 446.23 515.15L436.58 520.72C436.17 520.96 435.48 520.94 435.05 520.69ZM449.15 512.55L437.99 506.11C437.55 505.85 437.53 505.45 437.93 505.22L447.58 499.65C447.99 499.41 448.68 499.42 449.12 499.68L460.28 506.12C460.72 506.37 460.74 506.77 460.33 507.01L450.69 512.58C450.28 512.82 449.59 512.8 449.15 512.55ZM468.8 519.61C469.24 519.86 469.26 520.26 468.85 520.5L389.43 566.35C389.02 566.59 388.33 566.57 387.89 566.32L376.74 559.88C376.3 559.62 376.27 559.23 376.68 558.99L456.1 513.14C456.51 512.9 457.2 512.91 457.64 513.17L468.8 519.61ZM420.94 528.83L409.78 522.39C409.35 522.14 409.32 521.74 409.73 521.5L419.38 515.93C419.79 515.69 420.48 515.71 420.92 515.96L432.08 522.4C432.52 522.66 432.54 523.06 432.13 523.29L422.48 528.86C422.07 529.1 421.38 529.09 420.94 528.83ZM406.84 536.98L395.68 530.53C395.24 530.28 395.22 529.88 395.63 529.64L405.28 524.07C405.69 523.84 406.38 523.85 406.82 524.11L417.97 530.55C418.41 530.8 418.44 531.2 418.03 531.44L408.38 537.01C407.97 537.24 407.28 537.23 406.84 536.98ZM530.03 452.97C529.59 452.71 529.56 452.32 529.97 452.08L539.62 446.51C540.03 446.27 540.72 446.29 541.16 446.54L552.32 452.98C552.76 453.24 552.78 453.63 552.37 453.87L542.73 459.44C542.31 459.68 541.63 459.66 541.18 459.41L530.03 452.97ZM477.35 496.26L466.2 489.82C465.75 489.57 465.73 489.17 466.14 488.93L475.79 483.36C476.2 483.13 476.89 483.14 477.33 483.39L488.48 489.84C488.93 490.09 488.95 490.49 488.54 490.73L478.89 496.3C478.48 496.53 477.79 496.52 477.35 496.26ZM556.42 432.21L545.26 425.77C544.82 425.51 544.8 425.12 545.21 424.88L554.86 419.31C555.27 419.07 555.96 419.09 556.4 419.34L567.55 425.78C567.99 426.04 568.02 426.43 567.61 426.67L557.96 432.24C557.55 432.48 556.86 432.46 556.42 432.21ZM561.2 434.97C560.76 434.72 560.74 434.32 561.15 434.08L570.8 428.51C571.21 428.27 571.89 428.29 572.33 428.54L583.49 434.98C583.93 435.24 583.96 435.64 583.55 435.87L573.9 441.44C573.49 441.68 572.8 441.67 572.36 441.41L561.2 434.97ZM491.46 488.12L480.3 481.68C479.86 481.43 479.83 481.03 480.24 480.79L508.45 464.51C508.86 464.27 509.55 464.29 509.99 464.54L521.14 470.98C521.58 471.23 521.61 471.63 521.2 471.87L492.99 488.15C492.58 488.39 491.89 488.38 491.46 488.12ZM523.41 432.86L512.25 426.42C511.81 426.17 511.79 425.77 512.2 425.53L521.85 419.96C522.26 419.73 522.95 419.74 523.39 419.99L534.54 426.44C534.98 426.69 535.01 427.09 534.6 427.32L524.95 432.89C524.54 433.13 523.85 433.12 523.41 432.86ZM586.46 433.27L575.31 426.83C574.86 426.57 574.84 426.18 575.25 425.94L584.9 420.37C585.31 420.13 586 420.15 586.44 420.4L597.6 426.84C598.04 427.1 598.06 427.49 597.65 427.73L588 433.3C587.59 433.54 586.9 433.52 586.46 433.27ZM568.26 462.19C568.7 462.44 568.72 462.84 568.31 463.07L558.66 468.64C558.25 468.88 557.56 468.87 557.12 468.61L545.97 462.17C545.53 461.92 545.5 461.52 545.91 461.28L555.56 455.71C555.97 455.48 556.66 455.49 557.1 455.74L568.26 462.19ZM517.79 491.32C518.23 491.58 518.25 491.98 517.84 492.21L505.96 499.07C505.56 499.31 504.87 499.29 504.43 499.04L493.27 492.6C492.83 492.34 492.8 491.94 493.21 491.71L505.09 484.85C505.5 484.61 506.19 484.63 506.63 484.88L517.79 491.32ZM368.6 577.46C369.04 577.72 369.06 578.11 368.65 578.35L356.77 585.21C356.36 585.44 355.68 585.43 355.23 585.17L344.08 578.73C343.64 578.48 343.61 578.08 344.02 577.84L355.9 570.99C356.31 570.75 357 570.76 357.44 571.02L368.6 577.46ZM485.13 510.18C485.57 510.44 485.59 510.83 485.18 511.07L473.31 517.93C472.9 518.16 472.21 518.15 471.77 517.89L460.61 511.45C460.17 511.2 460.14 510.8 460.56 510.56L472.43 503.71C472.84 503.47 473.53 503.48 473.97 503.74L485.13 510.18ZM384.92 568.03C385.36 568.29 385.39 568.68 384.98 568.92L373.1 575.78C372.69 576.02 372 576 371.56 575.75L360.41 569.31C359.97 569.05 359.94 568.65 360.35 568.42L372.23 561.56C372.64 561.32 373.33 561.34 373.77 561.59L384.92 568.03ZM392.74 545.12L381.58 538.68C381.14 538.42 381.11 538.02 381.52 537.79L391.17 532.22C391.58 531.98 392.27 531.99 392.71 532.25L403.87 538.69C404.31 538.94 404.34 539.34 403.93 539.58L394.28 545.15C393.87 545.39 393.18 545.37 392.74 545.12ZM537.08 480.18C537.52 480.44 537.55 480.84 537.14 481.07L522.29 489.64C521.88 489.88 521.19 489.87 520.75 489.61L509.6 483.17C509.16 482.92 509.13 482.52 509.54 482.28L524.39 473.71C524.8 473.47 525.49 473.49 525.93 473.74L537.08 480.18ZM501.46 500.75C501.9 501.01 501.92 501.41 501.51 501.64L489.64 508.5C489.23 508.73 488.54 508.72 488.1 508.47L476.94 502.02C476.5 501.77 476.47 501.37 476.88 501.14L488.76 494.28C489.17 494.04 489.86 494.06 490.3 494.31L501.46 500.75ZM641.8 420.65L632.14 426.22C631.73 426.46 631.05 426.44 630.61 426.19L603.51 410.54C603.07 410.29 603.05 409.89 603.46 409.66L613.1 404.08C613.51 403.85 614.2 403.86 614.64 404.12L641.74 419.76C642.18 420.01 642.21 420.41 641.8 420.65ZM627.64 427.9C628.08 428.16 628.1 428.55 627.69 428.79L618.04 434.36C617.63 434.6 616.94 434.58 616.5 434.33L605.35 427.89C604.91 427.64 604.88 427.24 605.29 427L614.94 421.43C615.35 421.19 616.04 421.21 616.48 421.46L627.64 427.9ZM554.16 470.33C554.6 470.58 554.62 470.98 554.21 471.22L544.56 476.79C544.15 477.02 543.46 477.01 543.02 476.76L531.86 470.31C531.42 470.06 531.4 469.66 531.81 469.42L541.46 463.85C541.87 463.62 542.56 463.63 543 463.89L554.16 470.33ZM378.63 553.26L367.48 546.82C367.04 546.56 367.01 546.17 367.42 545.93L377.07 540.36C377.48 540.12 378.17 540.14 378.61 540.39L389.77 546.83C390.21 547.09 390.23 547.48 389.82 547.72L380.17 553.29C379.76 553.53 379.07 553.51 378.63 553.26ZM582.36 454.04C582.8 454.3 582.83 454.69 582.41 454.93L572.77 460.5C572.36 460.74 571.67 460.73 571.23 460.47L560.07 454.03C559.63 453.77 559.6 453.38 560.01 453.14L569.66 447.57C570.07 447.33 570.76 447.35 571.2 447.6L582.36 454.04ZM613.54 436.04C613.98 436.3 614 436.7 613.59 436.93L589.84 450.65C589.43 450.88 588.74 450.87 588.3 450.61L577.14 444.17C576.7 443.92 576.68 443.52 577.09 443.28L600.84 429.57C601.25 429.33 601.94 429.35 602.38 429.6L613.54 436.04ZM292.35 512.64C291.91 512.39 291.88 511.99 292.29 511.75L301.94 506.18C302.35 505.94 303.04 505.96 303.48 506.21L314.64 512.65C315.08 512.91 315.1 513.31 314.69 513.54L305.04 519.11C304.63 519.35 303.94 519.34 303.5 519.08L292.35 512.64ZM306.45 504.5C306.01 504.24 305.98 503.85 306.39 503.61L316.04 498.04C316.45 497.8 317.14 497.82 317.58 498.07L328.74 504.51C329.18 504.77 329.21 505.16 328.8 505.4L319.15 510.97C318.74 511.21 318.05 511.19 317.61 510.94L306.45 504.5ZM352.27 586.89C352.71 587.14 352.73 587.54 352.32 587.78L337.48 596.35C337.07 596.58 336.38 596.57 335.94 596.32L324.78 589.87C324.34 589.62 324.31 589.22 324.72 588.99L339.57 580.42C339.98 580.18 340.67 580.19 341.11 580.45L352.27 586.89ZM326.69 492.81C326.25 492.56 326.22 492.16 326.63 491.93L336.28 486.35C336.69 486.12 337.38 486.13 337.82 486.39L348.98 492.83C349.42 493.08 349.44 493.48 349.03 493.72L339.39 499.29C338.98 499.52 338.29 499.51 337.85 499.26L326.69 492.81ZM354.89 476.53C354.45 476.28 354.43 475.88 354.84 475.64L364.49 470.07C364.9 469.83 365.59 469.85 366.03 470.1L377.18 476.54C377.62 476.8 377.65 477.2 377.24 477.43L367.59 483C367.18 483.24 366.49 483.23 366.05 482.97L354.89 476.53ZM278.24 520.78C277.8 520.53 277.78 520.13 278.19 519.89L287.84 514.32C288.25 514.09 288.94 514.1 289.38 514.35L300.54 520.8C300.98 521.05 301 521.45 300.59 521.69L290.94 527.26C290.53 527.49 289.84 527.48 289.4 527.22L278.24 520.78ZM340.79 484.67C340.35 484.42 340.33 484.02 340.74 483.78L350.39 478.21C350.8 477.98 351.48 477.99 351.92 478.24L363.08 484.69C363.52 484.94 363.55 485.34 363.14 485.57L353.49 491.14C353.08 491.38 352.39 491.37 351.95 491.11L340.79 484.67ZM369 468.39C368.56 468.13 368.53 467.74 368.94 467.5L378.59 461.93C379 461.69 379.69 461.71 380.13 461.96L391.29 468.4C391.73 468.66 391.75 469.05 391.34 469.29L381.69 474.86C381.28 475.1 380.59 475.08 380.15 474.83L369 468.39ZM333.41 580.29L321.54 587.14C321.13 587.38 320.44 587.37 320 587.11L308.84 580.67C308.4 580.42 308.37 580.02 308.78 579.78L320.66 572.93C321.07 572.69 321.76 572.7 322.2 572.96L333.36 579.4C333.8 579.65 333.82 580.05 333.41 580.29ZM324.15 567.23L305.6 577.94C305.19 578.18 304.5 578.17 304.06 577.91L292.9 571.47C292.46 571.22 292.44 570.82 292.85 570.58L311.4 559.87C311.81 559.63 312.5 559.64 312.94 559.9L324.1 566.34C324.54 566.6 324.56 566.99 324.15 567.23ZM264.14 528.92C263.7 528.67 263.68 528.27 264.09 528.04L273.74 522.47C274.15 522.23 274.84 522.24 275.28 522.5L286.43 528.94C286.87 529.19 286.9 529.59 286.49 529.83L276.84 535.4C276.43 535.64 275.74 535.62 275.3 535.37L264.14 528.92ZM266.25 541.51L254.37 548.37C253.96 548.6 253.27 548.59 252.83 548.34L241.68 541.89C241.24 541.64 241.21 541.24 241.62 541.01L253.5 534.15C253.91 533.91 254.6 533.93 255.04 534.18L266.19 540.62C266.64 540.88 266.66 541.28 266.25 541.51ZM304.5 560.17L289.66 568.74C289.25 568.98 288.56 568.96 288.12 568.71L276.96 562.27C276.52 562.01 276.5 561.61 276.91 561.38L291.75 552.81C292.16 552.57 292.85 552.59 293.29 552.84L304.45 559.28C304.89 559.53 304.91 559.93 304.5 560.17ZM283.37 553.97L273.72 559.54C273.31 559.77 272.62 559.76 272.18 559.51L261.02 553.06C260.58 552.81 260.56 552.41 260.97 552.18L270.62 546.6C271.03 546.37 271.72 546.38 272.16 546.64L283.31 553.08C283.75 553.33 283.78 553.73 283.37 553.97ZM364.53 561.4L353.37 554.96C352.93 554.71 352.91 554.31 353.32 554.07L362.97 548.5C363.38 548.26 364.07 548.28 364.51 548.53L375.67 554.97C376.1 555.23 376.13 555.63 375.72 555.86L366.07 561.43C365.66 561.67 364.97 561.65 364.53 561.4ZM377.91 503.99L389.06 510.43C389.5 510.68 389.53 511.08 389.12 511.32L379.47 516.89C379.06 517.12 378.37 517.11 377.93 516.86L366.77 510.41C366.33 510.16 366.31 509.76 366.72 509.52L376.37 503.95C376.78 503.72 377.47 503.73 377.91 503.99ZM363.8 512.13L374.96 518.57C375.4 518.82 375.43 519.22 375.02 519.46L365.37 525.03C364.96 525.27 364.27 525.25 363.83 525L352.67 518.56C352.23 518.3 352.21 517.9 352.62 517.67L362.27 512.1C362.67 511.86 363.36 511.87 363.8 512.13ZM420.21 479.56L431.37 486C431.81 486.26 431.84 486.65 431.43 486.89L421.78 492.46C421.37 492.7 420.68 492.68 420.24 492.43L409.08 485.99C408.64 485.73 408.62 485.34 409.03 485.1L418.67 479.53C419.08 479.29 419.77 479.31 420.21 479.56ZM392.01 495.84L403.17 502.29C403.61 502.54 403.63 502.94 403.22 503.18L393.57 508.74C393.16 508.98 392.47 508.97 392.03 508.71L380.88 502.27C380.43 502.02 380.41 501.62 380.82 501.38L390.47 495.81C390.88 495.58 391.57 495.59 392.01 495.84ZM406.11 487.7L417.27 494.14C417.71 494.4 417.73 494.8 417.32 495.03L407.67 500.6C407.26 500.84 406.58 500.83 406.14 500.57L394.98 494.13C394.54 493.88 394.51 493.48 394.92 493.24L404.57 487.67C404.98 487.43 405.67 487.45 406.11 487.7ZM349.7 520.27L360.86 526.71C361.3 526.97 361.32 527.36 360.91 527.6L351.26 533.17C350.85 533.41 350.17 533.39 349.73 533.14L338.57 526.7C338.13 526.44 338.1 526.05 338.51 525.81L348.16 520.24C348.57 520 349.26 520.02 349.7 520.27ZM335.6 528.41L346.76 534.85C347.2 535.11 347.22 535.51 346.81 535.74L337.16 541.31C336.75 541.55 336.06 541.54 335.62 541.28L324.46 534.84C324.02 534.59 324 534.19 324.41 533.95L334.06 528.38C334.47 528.14 335.16 528.16 335.6 528.41ZM383.48 532.06L372.32 525.62C371.88 525.36 371.85 524.96 372.27 524.73L381.91 519.16C382.32 518.92 383.01 518.93 383.45 519.19L394.61 525.63C395.05 525.88 395.08 526.28 394.67 526.52L385.02 532.09C384.61 532.33 383.92 532.31 383.48 532.06ZM369.38 540.2L358.22 533.76C357.78 533.5 357.75 533.11 358.16 532.87L367.81 527.3C368.22 527.06 368.91 527.08 369.35 527.33L380.51 533.77C380.95 534.03 380.97 534.42 380.56 534.66L370.91 540.23C370.51 540.47 369.81 540.45 369.38 540.2ZM355.27 548.34L344.11 541.9C343.67 541.65 343.65 541.25 344.06 541.01L353.71 535.44C354.12 535.2 354.81 535.22 355.25 535.47L366.41 541.91C366.85 542.17 366.87 542.57 366.46 542.8L356.81 548.37C356.4 548.61 355.71 548.6 355.27 548.34ZM321.5 536.55L332.65 543C333.09 543.25 333.12 543.65 332.71 543.89L323.06 549.46C322.65 549.69 321.96 549.68 321.52 549.42L310.36 542.98C309.92 542.73 309.9 542.33 310.31 542.09L319.96 536.52C320.37 536.29 321.06 536.3 321.5 536.55ZM330.01 550.04C329.57 549.79 329.55 549.39 329.96 549.15L339.61 543.58C340.02 543.35 340.71 543.36 341.15 543.61L352.3 550.06C352.74 550.31 352.77 550.71 352.36 550.94L342.71 556.52C342.3 556.75 341.61 556.74 341.17 556.48L330.01 550.04ZM448.42 463.28L459.58 469.72C460.02 469.97 460.04 470.37 459.63 470.61L449.98 476.18C449.57 476.41 448.88 476.4 448.44 476.15L437.29 469.7C436.85 469.45 436.82 469.05 437.23 468.81L446.88 463.24C447.29 463.01 447.98 463.02 448.42 463.28ZM559.37 417.63C558.92 417.37 558.9 416.97 559.31 416.74L568.96 411.17C569.37 410.93 570.06 410.94 570.5 411.2L581.66 417.64C582.1 417.89 582.12 418.29 581.71 418.53L572.06 424.1C571.65 424.34 570.96 424.32 570.52 424.07L559.37 417.63ZM434.32 471.42L445.47 477.86C445.91 478.11 445.94 478.51 445.53 478.75L435.88 484.32C435.47 484.56 434.78 484.54 434.34 484.29L423.18 477.85C422.74 477.59 422.72 477.19 423.13 476.96L432.78 471.39C433.19 471.15 433.88 471.16 434.32 471.42ZM540.46 410.14L551.61 416.58C552.06 416.83 552.08 417.23 551.67 417.47L542.02 423.04C541.61 423.28 540.92 423.26 540.48 423.01L529.32 416.57C528.88 416.31 528.86 415.91 529.27 415.68L538.92 410.11C539.33 409.87 540.02 409.88 540.46 410.14ZM571.58 391.25L581.23 385.68C581.64 385.44 582.32 385.46 582.76 385.71L609.86 401.35C610.3 401.61 610.33 402.01 609.92 402.24L600.27 407.81C599.86 408.05 599.17 408.04 598.73 407.78L571.63 392.14C571.19 391.89 571.17 391.49 571.58 391.25ZM579.82 400.29C580.26 400.55 580.28 400.95 579.87 401.18L570.23 406.75C569.81 406.99 569.13 406.98 568.69 406.72L557.53 400.28C557.09 400.03 557.06 399.63 557.47 399.39L567.12 393.82C567.53 393.58 568.22 393.6 568.66 393.85L579.82 400.29ZM554.58 414.86L543.43 408.42C542.98 408.17 542.96 407.77 543.37 407.53L553.02 401.96C553.43 401.73 554.12 401.74 554.56 402L565.72 408.44C566.16 408.69 566.18 409.09 565.77 409.32L556.12 414.9C555.71 415.13 555.02 415.12 554.58 414.86ZM584.63 415.93L573.47 409.48C573.03 409.23 573 408.83 573.41 408.59L583.06 403.02C583.47 402.79 584.16 402.8 584.6 403.06L595.76 409.5C596.2 409.75 596.22 410.15 595.81 410.39L586.16 415.96C585.75 416.19 585.06 416.18 584.63 415.93ZM411.68 515.77L400.53 509.33C400.09 509.08 400.06 508.68 400.47 508.44L410.12 502.87C410.53 502.64 411.22 502.65 411.66 502.9L422.82 509.35C423.26 509.6 423.28 510 422.87 510.23L413.22 515.81C412.81 516.04 412.12 516.03 411.68 515.77ZM563.88 391.09C564.32 391.35 564.34 391.74 563.93 391.98L554.29 397.55C553.88 397.79 553.19 397.77 552.75 397.52L541.59 391.08C541.15 390.82 541.13 390.43 541.54 390.19L551.18 384.62C551.59 384.38 552.28 384.4 552.72 384.65L563.88 391.09ZM462.55 468L451.39 461.56C450.95 461.31 450.92 460.91 451.33 460.67L460.98 455.1C461.39 454.86 462.08 454.88 462.52 455.13L473.68 461.57C474.12 461.83 474.14 462.23 473.73 462.46L464.08 468.03C463.67 468.27 462.99 468.26 462.55 468ZM538.62 392.79L549.78 399.23C550.22 399.49 550.24 399.89 549.83 400.12L540.18 405.69C539.77 405.93 539.08 405.92 538.64 405.66L527.49 399.22C527.05 398.97 527.02 398.57 527.43 398.33L537.08 392.76C537.49 392.52 538.18 392.54 538.62 392.79ZM507.45 410.79L518.6 417.23C519.04 417.49 519.07 417.88 518.66 418.12L509.01 423.69C508.6 423.93 507.91 423.91 507.47 423.66L496.31 417.22C495.87 416.96 495.85 416.57 496.26 416.33L505.91 410.76C506.32 410.52 507.01 410.54 507.45 410.79ZM524.52 400.93L535.68 407.38C536.12 407.63 536.14 408.03 535.73 408.27L526.08 413.84C525.67 414.07 524.98 414.06 524.54 413.8L513.38 407.36C512.94 407.11 512.92 406.71 513.33 406.47L522.98 400.9C523.39 400.67 524.08 400.68 524.52 400.93ZM397.58 523.92L386.42 517.47C385.98 517.22 385.96 516.82 386.37 516.58L396.02 511.02C396.43 510.78 397.12 510.79 397.56 511.05L408.71 517.49C409.15 517.74 409.18 518.14 408.77 518.38L399.12 523.95C398.71 524.18 398.02 524.17 397.58 523.92ZM328.57 514.07L339.72 520.51C340.16 520.76 340.19 521.16 339.78 521.4L330.13 526.97C329.72 527.21 329.03 527.19 328.59 526.94L317.43 520.5C316.99 520.24 316.97 519.84 317.38 519.61L327.03 514.04C327.44 513.8 328.13 513.81 328.57 514.07ZM342.67 505.93L353.83 512.37C354.27 512.62 354.29 513.02 353.88 513.26L344.23 518.83C343.82 519.06 343.13 519.05 342.69 518.8L331.53 512.35C331.09 512.1 331.07 511.7 331.48 511.47L341.13 505.89C341.54 505.66 342.23 505.67 342.67 505.93ZM356.77 497.78L367.93 504.23C368.37 504.48 368.39 504.88 367.98 505.11L358.33 510.68C357.92 510.92 357.23 510.91 356.8 510.65L345.64 504.21C345.2 503.96 345.17 503.56 345.58 503.32L355.23 497.75C355.64 497.51 356.33 497.53 356.77 497.78ZM384.98 481.5L396.13 487.94C396.57 488.19 396.6 488.59 396.19 488.83L386.54 494.4C386.13 494.64 385.44 494.62 385 494.37L373.84 487.93C373.4 487.67 373.38 487.27 373.79 487.04L383.44 481.47C383.85 481.23 384.54 481.24 384.98 481.5ZM314.46 522.21L325.62 528.65C326.06 528.91 326.09 529.3 325.68 529.54L316.03 535.11C315.62 535.35 314.93 535.33 314.49 535.08L303.33 528.64C302.89 528.38 302.86 527.98 303.27 527.75L312.92 522.18C313.33 521.94 314.02 521.96 314.46 522.21ZM370.87 489.64L382.03 496.08C382.47 496.34 382.5 496.73 382.09 496.97L372.44 502.54C372.03 502.78 371.34 502.77 370.9 502.51L359.74 496.07C359.3 495.81 359.28 495.42 359.68 495.18L369.33 489.61C369.74 489.37 370.43 489.39 370.87 489.64ZM300.36 530.35L311.52 536.79C311.96 537.05 311.98 537.45 311.57 537.68L301.92 543.25C301.51 543.49 300.82 543.48 300.38 543.22L289.23 536.78C288.79 536.53 288.76 536.13 289.17 535.89L298.82 530.32C299.23 530.08 299.92 530.1 300.36 530.35ZM325.17 571.24C324.73 570.99 324.7 570.59 325.11 570.36L334.76 564.78C335.17 564.55 335.86 564.56 336.3 564.82L347.46 571.26C347.9 571.51 347.92 571.91 347.52 572.15L337.87 577.72C337.46 577.95 336.77 577.94 336.33 577.69L325.17 571.24ZM350.43 569.54L339.27 563.1C338.83 562.85 338.81 562.45 339.22 562.21L348.87 556.64C349.28 556.41 349.97 556.42 350.41 556.67L361.56 563.12C362 563.37 362.03 563.77 361.62 564L351.97 569.58C351.56 569.81 350.87 569.8 350.43 569.54ZM296.26 551.12C295.82 550.87 295.79 550.47 296.2 550.24L305.85 544.67C306.26 544.43 306.95 544.44 307.39 544.7L318.55 551.14C318.99 551.39 319.02 551.79 318.61 552.03L308.96 557.6C308.55 557.84 307.86 557.82 307.42 557.57L296.26 551.12ZM286.26 538.49L297.42 544.94C297.86 545.19 297.88 545.59 297.47 545.82L287.82 551.39C287.41 551.63 286.72 551.62 286.28 551.36L275.12 544.92C274.68 544.67 274.66 544.27 275.07 544.03L284.72 538.46C285.13 538.23 285.82 538.24 286.26 538.49ZM315.91 558.19C315.47 557.93 315.44 557.53 315.86 557.3L325.5 551.73C325.91 551.49 326.6 551.5 327.04 551.76L338.2 558.2C338.64 558.45 338.67 558.85 338.26 559.09L328.61 564.66C328.2 564.89 327.51 564.88 327.07 564.63L315.91 558.19ZM399.08 473.36L410.24 479.8C410.68 480.05 410.7 480.45 410.29 480.69L400.64 486.26C400.23 486.49 399.54 486.48 399.1 486.23L387.95 479.78C387.51 479.53 387.48 479.13 387.89 478.9L397.54 473.33C397.95 473.09 398.64 473.1 399.08 473.36ZM413.18 465.21L424.34 471.66C424.78 471.91 424.8 472.31 424.39 472.55L414.74 478.12C414.33 478.35 413.65 478.34 413.21 478.08L402.05 471.64C401.61 471.39 401.58 470.99 401.99 470.75L411.64 465.18C412.05 464.95 412.74 464.96 413.18 465.21ZM482.2 475.06L471.04 468.62C470.6 468.37 470.57 467.97 470.98 467.73L479.89 462.59C480.3 462.35 480.28 461.96 479.84 461.7L465.49 453.42C465.05 453.16 465.03 452.77 465.44 452.53L476.57 446.1C476.98 445.87 477.67 445.88 478.11 446.13L505.21 461.78C505.64 462.03 505.67 462.43 505.26 462.67L483.73 475.09C483.33 475.33 482.64 475.32 482.2 475.06ZM495.2 449.15L484.05 442.71C483.61 442.45 483.58 442.05 483.99 441.82L493.64 436.25C494.05 436.01 494.74 436.02 495.18 436.28L506.34 442.72C506.78 442.97 506.8 443.37 506.39 443.61L496.74 449.18C496.33 449.42 495.64 449.4 495.2 449.15ZM425.79 507.63L414.63 501.19C414.19 500.94 414.16 500.54 414.57 500.3L424.22 494.73C424.63 494.49 425.32 494.51 425.76 494.76L436.92 501.2C437.36 501.46 437.39 501.86 436.98 502.09L427.32 507.66C426.91 507.9 426.23 507.89 425.79 507.63ZM439.89 499.49L428.73 493.05C428.29 492.79 428.27 492.4 428.68 492.16L438.32 486.59C438.73 486.35 439.42 486.36 439.86 486.62L451.02 493.06C451.46 493.32 451.49 493.71 451.08 493.95L441.43 499.52C441.02 499.76 440.33 499.74 439.89 499.49ZM453.99 491.35L442.83 484.9C442.39 484.65 442.37 484.25 442.78 484.02L452.43 478.45C452.84 478.21 453.53 478.22 453.97 478.48L465.12 484.92C465.56 485.17 465.59 485.57 465.18 485.81L455.53 491.38C455.12 491.62 454.43 491.6 453.99 491.35ZM468.09 483.21L456.94 476.76C456.49 476.51 456.47 476.11 456.88 475.87L466.53 470.3C466.94 470.07 467.63 470.08 468.07 470.34L479.23 476.78C479.67 477.03 479.69 477.43 479.28 477.67L469.63 483.24C469.22 483.47 468.53 483.46 468.09 483.21ZM427.28 457.07L438.44 463.51C438.88 463.77 438.91 464.17 438.5 464.4L428.85 469.97C428.44 470.21 427.75 470.2 427.31 469.94L416.15 463.5C415.71 463.25 415.69 462.85 416.1 462.61L425.74 457.04C426.15 456.8 426.84 456.82 427.28 457.07ZM441.39 448.93L452.54 455.37C452.98 455.63 453.01 456.02 452.6 456.26L442.95 461.83C442.54 462.07 441.85 462.05 441.41 461.8L430.25 455.36C429.81 455.1 429.79 454.71 430.2 454.47L439.85 448.9C440.26 448.66 440.95 448.68 441.39 448.93ZM479.24 427.08L490.4 433.52C490.84 433.77 490.86 434.17 490.45 434.41L480.8 439.98C480.39 440.21 479.71 440.2 479.27 439.94L468.11 433.5C467.67 433.25 467.64 432.85 468.05 432.61L477.7 427.04C478.11 426.81 478.8 426.82 479.24 427.08ZM462.17 436.93L473.33 443.37C473.77 443.63 473.79 444.03 473.38 444.26L457.05 453.69C456.64 453.93 455.95 453.91 455.51 453.66L444.36 447.22C443.92 446.96 443.89 446.56 444.3 446.33L460.63 436.9C461.04 436.66 461.73 436.68 462.17 436.93ZM493.34 418.93L504.5 425.38C504.94 425.63 504.97 426.03 504.56 426.26L494.91 431.84C494.5 432.07 493.81 432.06 493.37 431.8L482.21 425.36C481.77 425.11 481.75 424.71 482.15 424.47L491.8 418.9C492.21 418.67 492.9 418.68 493.34 418.93ZM509.31 441.01L498.15 434.56C497.71 434.31 497.68 433.91 498.09 433.68L507.74 428.1C508.15 427.87 508.84 427.88 509.28 428.14L520.44 434.58C520.88 434.83 520.9 435.23 520.49 435.47L510.85 441.04C510.44 441.27 509.75 441.26 509.31 441.01Z" />
		<path id="Path 21" class="shp5" d="M457.73 550.79L563.35 489.82L628.34 527.34L522.73 588.32L457.73 550.79Z" />
		<path id="Path 22" class="shp7" d="M223.07 243.51L537.77 61.82C543.93 58.27 548.96 61.18 548.96 68.28L548.96 312.03C548.96 315.33 546.62 319.38 543.77 321.03L221.07 507.33C218.21 508.98 215.87 507.63 215.87 504.33L215.87 255.98C215.87 251.41 219.11 245.8 223.07 243.51Z" />
		<path id="Path 23" class="shp1" d="M548.96 74.12L548.96 68.28C548.96 61.18 543.92 58.27 537.77 61.82L223.07 243.51C219.11 245.8 215.87 251.41 215.87 255.98L215.87 266.43L548.96 74.12Z" />
		<path id="Path 24" class="shp3" d="M502.03 87.43C499.91 88.66 498.18 91.64 498.18 94.1C498.18 96.56 499.91 97.56 502.03 96.33C504.16 95.1 505.89 92.11 505.89 89.65C505.89 87.19 504.16 86.2 502.03 87.43ZM517.33 78.6C515.2 79.83 513.47 82.82 513.47 85.27C513.47 87.73 515.2 88.73 517.33 87.5C519.45 86.27 521.18 83.28 521.18 80.82C521.18 78.37 519.45 77.37 517.33 78.6ZM532.62 69.77C530.49 71 528.77 73.99 528.77 76.44C528.77 78.9 530.49 79.9 532.62 78.67C534.75 77.44 536.47 74.45 536.47 71.99C536.47 69.54 534.75 68.54 532.62 69.77Z" />
		<path id="Path 25" class="shp4" d="M263.53 437.72L251.29 430.65L281.28 378.7L293.53 385.77L263.53 437.72Z" />
		<path id="Path 26" class="shp5" d="M263.53 437.72L257.41 434.18L287.4 382.23L293.53 385.77L263.53 437.72Z" />
		<path id="Path 27" class="shp1" d="M218.41 532.09C212.82 541.77 186.44 526.38 191.95 516.81L260.86 409.36C261.24 408.76 262.04 408.56 262.66 408.92L276.49 416.91C277.11 417.27 277.34 418.05 277.02 418.69L218.41 532.09Z" />
		<path id="Path 28" class="shp2" d="M218.41 532.09L277.02 418.69C277.34 418.05 277.12 417.27 276.49 416.91L270.19 413.27L202.97 532.7C209.12 535.71 215.89 536.46 218.41 532.09Z" />
		<path id="Path 29" fill-rule="evenodd" class="shp1" d="M420.99 282.23C420.99 326.25 390.07 379.81 351.93 401.83C339.13 409.21 327.17 412.11 316.89 411.03C316.29 410.97 315.69 410.89 315.09 410.79C314.97 410.79 314.87 410.77 314.75 410.73C314.25 410.67 313.73 410.57 313.25 410.47C312.97 410.43 312.71 410.37 312.43 410.29C312.05 410.21 311.69 410.13 311.31 410.01C310.93 409.93 310.57 409.83 310.21 409.69C309.87 409.61 309.53 409.51 309.19 409.39C308.55 409.19 307.91 408.95 307.29 408.69C306.59 408.41 305.89 408.11 305.21 407.77C304.65 407.51 304.11 407.23 303.57 406.91C303.45 406.85 303.35 406.79 303.23 406.73L303.23 406.75L303.11 406.67C303.09 406.67 303.09 406.67 303.09 406.65L274.73 390.31L274.73 390.29L274.61 390.23C262.19 382.99 254.51 367.55 254.51 345.59C254.51 301.55 285.43 248.01 323.55 225.99C334.65 219.59 345.13 216.55 354.41 216.55C361.01 216.55 367.01 218.09 372.21 221.05L372.37 221.15L372.41 221.15L400.75 237.51L400.77 237.51L400.87 237.59C401.03 237.69 401.19 237.79 401.35 237.89C401.95 238.23 402.55 238.63 403.13 239.05C403.51 239.31 403.87 239.57 404.23 239.85C404.59 240.11 404.95 240.39 405.29 240.69C406.01 241.25 406.69 241.87 407.37 242.55C407.61 242.79 407.85 243.01 408.07 243.25C408.25 243.43 408.43 243.61 408.61 243.81C408.81 244.05 409.03 244.29 409.25 244.53C410.49 245.93 411.63 247.45 412.69 249.11C412.83 249.33 412.99 249.55 413.13 249.79C413.35 250.15 413.57 250.51 413.77 250.87C413.83 250.95 413.87 251.05 413.93 251.15C414.17 251.55 414.39 251.97 414.59 252.39C414.79 252.73 414.97 253.07 415.11 253.43C415.37 253.91 415.59 254.39 415.81 254.89C416.13 255.55 416.41 256.25 416.69 256.95C416.93 257.55 417.15 258.17 417.39 258.81C417.41 258.91 417.45 259.01 417.49 259.11C417.71 259.75 417.91 260.41 418.13 261.07C418.55 262.45 418.91 263.89 419.25 265.37C419.37 265.91 419.49 266.45 419.59 267.01C419.71 267.59 419.81 268.19 419.91 268.77C420.13 270.05 420.33 271.39 420.47 272.75C420.53 273.27 420.59 273.79 420.63 274.31C420.71 275.09 420.77 275.87 420.81 276.67C420.87 277.47 420.91 278.27 420.93 279.09C420.97 280.13 420.99 281.17 420.99 282.23ZM358.93 254.47C325.29 273.89 296.87 323.11 296.87 361.95C296.87 366.17 297.25 372.57 299.05 378.77C304.01 377.59 309.33 375.37 314.79 372.23C348.43 352.81 376.85 303.59 376.85 264.75C376.85 260.55 376.49 254.15 374.67 247.95C369.71 249.13 364.39 251.33 358.93 254.47Z" />
		<path id="Path 30" class="shp2" d="M302.13 406.11L274.61 390.22C262.19 382.96 254.51 367.52 254.51 345.6C254.51 325.96 260.67 304.44 270.85 284.68L299.21 301.03C289.01 320.79 282.87 342.32 282.87 361.95C282.87 383.44 290.17 398.67 302.13 406.11Z" />
		<path id="Path 31" fill-rule="evenodd" class="shp8" d="M420.99 282.23C420.99 326.25 390.07 379.81 351.93 401.83C339.13 409.21 327.17 412.11 316.89 411.03C316.29 410.97 315.69 410.89 315.09 410.79C314.97 410.79 314.87 410.77 314.75 410.73C314.25 410.67 313.73 410.57 313.25 410.47C312.97 410.43 312.71 410.37 312.43 410.29C312.05 410.21 311.69 410.13 311.31 410.01C310.93 409.93 310.57 409.83 310.21 409.69C309.87 409.61 309.53 409.51 309.19 409.39C308.55 409.19 307.91 408.95 307.29 408.69C306.59 408.41 305.89 408.11 305.21 407.77C304.65 407.51 304.11 407.23 303.57 406.91C290.79 399.83 282.87 384.25 282.87 361.95C282.87 317.91 313.79 264.37 351.93 242.35C371.29 231.17 388.81 230.27 401.35 237.89C401.95 238.23 402.55 238.63 403.13 239.05C403.51 239.31 403.87 239.57 404.23 239.85C404.59 240.11 404.95 240.39 405.29 240.69C406.01 241.25 406.69 241.87 407.37 242.55C407.61 242.79 407.85 243.01 408.07 243.25C408.25 243.43 408.43 243.61 408.61 243.81C408.81 244.05 409.03 244.29 409.25 244.53C410.49 245.93 411.63 247.45 412.69 249.11C412.83 249.33 412.99 249.55 413.13 249.79C413.35 250.15 413.57 250.51 413.77 250.87C413.83 250.95 413.87 251.05 413.93 251.15C414.17 251.55 414.39 251.97 414.59 252.39C414.79 252.73 414.97 253.07 415.11 253.43C415.37 253.91 415.59 254.39 415.81 254.89C416.13 255.55 416.41 256.25 416.69 256.95C416.93 257.55 417.15 258.17 417.39 258.81C417.41 258.91 417.45 259.01 417.49 259.11C417.71 259.75 417.91 260.41 418.13 261.07C418.55 262.45 418.91 263.89 419.25 265.37C419.37 265.91 419.49 266.45 419.59 267.01C419.71 267.59 419.81 268.19 419.91 268.77C420.13 270.05 420.33 271.39 420.47 272.75C420.53 273.27 420.59 273.79 420.63 274.31C420.71 275.09 420.77 275.87 420.81 276.67C420.87 277.47 420.91 278.27 420.93 279.09C420.97 280.13 420.99 281.17 420.99 282.23ZM406.97 282.23C406.97 271.61 404.63 246.93 382.77 246.93C380.21 246.93 377.51 247.27 374.67 247.95C369.71 249.13 364.39 251.33 358.93 254.47C325.29 273.89 296.87 323.11 296.87 361.95C296.87 366.17 297.25 372.57 299.05 378.77C301.79 388.23 307.87 397.25 321.09 397.25C328.13 397.25 336.37 394.65 344.93 389.71C378.57 370.29 406.97 321.07 406.97 282.23Z" />
		<path id="Path 32" class="shp2" d="M406.97 282.23C406.97 321.07 378.57 370.29 344.93 389.71C336.37 394.65 328.13 397.25 321.09 397.25C307.87 397.25 301.79 388.23 299.05 378.77C304.01 377.59 309.33 375.37 314.79 372.23C348.43 352.81 376.85 303.59 376.85 264.75C376.85 260.55 376.49 254.15 374.67 247.95C377.51 247.27 380.21 246.93 382.77 246.93C404.63 246.93 406.97 271.61 406.97 282.23Z" />
		<path id="Path 33" class="shp9" d="M394.89 275.45C394.89 314.29 366.49 363.51 332.85 382.93C324.29 387.87 316.05 390.47 309.01 390.47C307.53 390.47 306.13 390.35 304.83 390.13C302.07 386.89 300.25 382.89 299.05 378.77C297.25 372.57 296.87 366.17 296.87 361.95C296.87 323.11 325.29 273.89 358.93 254.47C364.39 251.33 369.71 249.13 374.67 247.95C377.51 247.27 380.21 246.93 382.77 246.93C384.27 246.93 385.65 247.05 386.97 247.27C393.87 255.41 394.89 268.47 394.89 275.45Z" />
		<path id="Path 34" class="shp10" d="M443.35 234.95L443.35 279.23C443.35 282.54 445.67 283.89 448.54 282.23L738.74 114.68C741.61 113.03 743.94 109 743.94 105.68L743.93 61.4C743.93 58.09 741.61 56.75 738.74 58.4L448.54 225.95C445.67 227.61 443.35 231.64 443.35 234.95Z" />
		<path id="Path 35" class="shp1" d="M448.54 225.95L500.22 196.11L500.21 252.4L448.54 282.23C445.67 283.89 443.34 282.54 443.34 279.23L443.34 234.95C443.34 231.64 445.67 227.61 448.54 225.95Z" />
		<path id="Path 36" fill-rule="evenodd" class="shp3" d="M488.2 231.17C488.2 240.03 482.19 250.45 474.51 254.88C472.12 256.26 469.76 256.96 467.56 256.96C466.94 256.96 466.35 256.88 465.76 256.77L460.26 266.3C459.7 267.26 458.69 267.8 457.66 267.8C457.15 267.8 456.63 267.67 456.16 267.39C454.72 266.56 454.23 264.73 455.06 263.3L460.56 253.77C458.79 251.71 457.82 248.79 457.82 245.24C457.82 236.38 463.84 225.97 471.51 221.54C475.73 219.1 479.86 218.8 483.13 220.68C486.4 222.57 488.2 226.3 488.2 231.17ZM482.2 231.17C482.2 228.57 481.44 226.64 480.13 225.88C479.65 225.61 479.09 225.47 478.45 225.47C477.31 225.47 475.96 225.9 474.51 226.73C468.72 230.08 463.82 238.56 463.82 245.24C463.82 247.85 464.58 249.78 465.89 250.53C467.21 251.3 469.26 250.98 471.51 249.68C477.3 246.34 482.2 237.86 482.2 231.17Z" />
	</g>
</svg>