<svg xmlns="http://www.w3.org/2000/svg" viewBox="0 0 887 785" width="887" height="785">
	<defs>
		<clipPath clipPathUnits="userSpaceOnUse" id="cp1">
			<path d="M-56 -68L944 -68L944 932L-56 932Z" />
		</clipPath>
		<linearGradient id="grd1" gradientUnits="userSpaceOnUse"  x1="665.569" y1="461.54" x2="665.569" y2="865.651">
			<stop offset="0" stop-color="#ddefb4"  />
			<stop offset="0.152" stop-color="#ddefb4"  />
			<stop offset="1" stop-color="#b1efb4"  />
		</linearGradient>
		<linearGradient id="grd2" gradientUnits="userSpaceOnUse"  x1="691.713" y1="544.111" x2="691.713" y2="721.213">
			<stop offset="0" stop-color="#b1efb4"  />
			<stop offset="1" stop-color="#71ab73"  />
		</linearGradient>
		<linearGradient id="grd3" gradientUnits="userSpaceOnUse"  x1="250.443" y1="-70.106" x2="250.443" y2="688.424">
			<stop offset="0" stop-color="#ddefb4"  />
			<stop offset="1" stop-color="#b1efb4"  />
		</linearGradient>
		<linearGradient id="grd4" gradientUnits="userSpaceOnUse"  x1="422.916" y1="153.255" x2="422.916" y2="346.199">
			<stop offset="0" stop-color="#ddefb4"  />
			<stop offset="1" stop-color="#8fcc92"  />
		</linearGradient>
		<linearGradient id="grd5" gradientUnits="userSpaceOnUse"  x1="528.592" y1="466.119" x2="528.592" y2="634.08">
			<stop offset="0" stop-color="#ddefb4"  />
			<stop offset="1" stop-color="#8fcc92"  />
		</linearGradient>
		<linearGradient id="grd6" gradientUnits="userSpaceOnUse"  x1="313.237" y1="531.111" x2="313.237" y2="697.412">
			<stop offset="0" stop-color="#b1efb4"  />
			<stop offset="1" stop-color="#71ab73"  />
		</linearGradient>
		<linearGradient id="grd7" gradientUnits="userSpaceOnUse"  x1="803.452" y1="443.01" x2="676.952" y2="294.01">
			<stop offset="0" stop-color="#ffffff"  />
			<stop offset="0.038" stop-color="#ffffff"  />
			<stop offset="1" stop-color="#000000"  />
		</linearGradient>
		<linearGradient id="grd8" gradientUnits="userSpaceOnUse"  x1="700.522" y1="323.116" x2="700.522" y2="462.238">
			<stop offset="0" stop-color="#ffffff"  />
			<stop offset="1" stop-color="#358bdb"  />
		</linearGradient>
		<linearGradient id="grd9" gradientUnits="userSpaceOnUse"  x1="589.641" y1="368.974" x2="660.441" y2="368.974">
			<stop offset="0" stop-color="#ffffff"  />
			<stop offset="0.038" stop-color="#ffffff"  />
			<stop offset="1" stop-color="#000000"  />
		</linearGradient>
		<linearGradient id="grd10" gradientUnits="userSpaceOnUse"  x1="528.977" y1="292.084" x2="630.124" y2="292.084">
			<stop offset="0" stop-color="#ffffff"  />
			<stop offset="0.038" stop-color="#ffffff"  />
			<stop offset="1" stop-color="#000000"  />
		</linearGradient>
		<linearGradient id="grd11" gradientUnits="userSpaceOnUse"  x1="803.452" y1="643.676" x2="676.952" y2="494.676">
			<stop offset="0" stop-color="#ffffff"  />
			<stop offset="0.038" stop-color="#ffffff"  />
			<stop offset="1" stop-color="#000000"  />
		</linearGradient>
		<linearGradient id="grd12" gradientUnits="userSpaceOnUse"  x1="708.169" y1="522.213" x2="599.169" y2="653.713">
			<stop offset="0" stop-color="#ffffff"  />
			<stop offset="1" stop-color="#358bdb"  />
		</linearGradient>
		<linearGradient id="grd13" gradientUnits="userSpaceOnUse"  x1="427.769" y1="200.778" x2="427.769" y2="321.812">
			<stop offset="0" stop-color="#ffffff"  />
			<stop offset="0.038" stop-color="#ffffff"  />
			<stop offset="1" stop-color="#000000"  />
		</linearGradient>
		<linearGradient id="grd14" gradientUnits="userSpaceOnUse"  x1="262.349" y1="634.095" x2="204.016" y2="560.095">
			<stop offset="0" stop-color="#ffffff"  />
			<stop offset="0.038" stop-color="#ffffff"  />
			<stop offset="1" stop-color="#000000"  />
		</linearGradient>
		<linearGradient id="grd15" gradientUnits="userSpaceOnUse"  x1="509.717" y1="449.111" x2="509.717" y2="431.816">
			<stop offset="0" stop-color="#ffffff"  />
			<stop offset="0.038" stop-color="#ffffff"  />
			<stop offset="1" stop-color="#000000"  />
		</linearGradient>
		<linearGradient id="grd16" gradientUnits="userSpaceOnUse"  x1="463.114" y1="441.111" x2="463.114" y2="326.897">
			<stop offset="0" stop-color="#65a2db"  />
			<stop offset="1" stop-color="#65a2db"  />
		</linearGradient>
		<linearGradient id="grd17" gradientUnits="userSpaceOnUse"  x1="542.005" y1="441.111" x2="542.005" y2="326.897">
			<stop offset="0" stop-color="#65a2db"  />
			<stop offset="1" stop-color="#65a2db"  />
		</linearGradient>
		<linearGradient id="grd18" gradientUnits="userSpaceOnUse"  x1="561.093" y1="441.111" x2="561.093" y2="326.897">
			<stop offset="0" stop-color="#65a2db"  />
			<stop offset="1" stop-color="#65a2db"  />
		</linearGradient>
		<linearGradient id="grd19" gradientUnits="userSpaceOnUse"  x1="398.791" y1="550.112" x2="398.791" y2="458.001">
			<stop offset="0" stop-color="#ffffff"  />
			<stop offset="0.038" stop-color="#ffffff"  />
			<stop offset="1" stop-color="#000000"  />
		</linearGradient>
		<linearGradient id="grd20" gradientUnits="userSpaceOnUse"  x1="625.477" y1="550.112" x2="625.477" y2="458.001">
			<stop offset="0" stop-color="#ffffff"  />
			<stop offset="0.038" stop-color="#ffffff"  />
			<stop offset="1" stop-color="#000000"  />
		</linearGradient>
		<linearGradient id="grd21" gradientUnits="userSpaceOnUse"  x1="267.111" y1="358.265" x2="143.983" y2="226.313">
			<stop offset="0" stop-color="#ffffff"  />
			<stop offset="0.038" stop-color="#ffffff"  />
			<stop offset="1" stop-color="#000000"  />
		</linearGradient>
		<linearGradient id="grd22" gradientUnits="userSpaceOnUse"  x1="158.723" y1="227.987" x2="158.723" y2="258.929">
			<stop offset="0" stop-color="#ffbb00"  />
			<stop offset="0.055" stop-color="#ffbb00"  />
			<stop offset="1" stop-color="#ff8c00"  />
		</linearGradient>
		<linearGradient id="grd23" gradientUnits="userSpaceOnUse"  x1="187.113" y1="246.343" x2="233.748" y2="246.343">
			<stop offset="0" stop-color="#ffbb00"  />
			<stop offset="0.055" stop-color="#ffbb00"  />
			<stop offset="1" stop-color="#ff8c00"  />
		</linearGradient>
		<linearGradient id="grd24" gradientUnits="userSpaceOnUse"  x1="135.405" y1="300.438" x2="182.041" y2="300.438">
			<stop offset="0" stop-color="#ffbb00"  />
			<stop offset="0.055" stop-color="#ffbb00"  />
			<stop offset="1" stop-color="#ff8c00"  />
		</linearGradient>
		<linearGradient id="grd25" gradientUnits="userSpaceOnUse"  x1="187.113" y1="300.438" x2="210.43" y2="300.438">
			<stop offset="0" stop-color="#ffbb00"  />
			<stop offset="0.055" stop-color="#ffbb00"  />
			<stop offset="1" stop-color="#ff8c00"  />
		</linearGradient>
		<linearGradient id="grd26" gradientUnits="userSpaceOnUse"  x1="210.43" y1="300.438" x2="233.748" y2="300.438">
			<stop offset="0" stop-color="#ffbb00"  />
			<stop offset="0.055" stop-color="#ffbb00"  />
			<stop offset="1" stop-color="#ff8c00"  />
		</linearGradient>
		<linearGradient id="grd27" gradientUnits="userSpaceOnUse"  x1="152.506" y1="249.443" x2="127.631" y2="223.818">
			<stop offset="0" stop-color="#ffffff"  />
			<stop offset="0.038" stop-color="#ffffff"  />
			<stop offset="1" stop-color="#000000"  />
		</linearGradient>
		<linearGradient id="grd28" gradientUnits="userSpaceOnUse"  x1="707.532" y1="665.214" x2="592.032" y2="592.464">
			<stop offset="0" stop-color="#ffffff"  />
			<stop offset="0.038" stop-color="#ffffff"  />
			<stop offset="1" stop-color="#000000"  />
		</linearGradient>
		<linearGradient id="grd29" gradientUnits="userSpaceOnUse"  x1="481.371" y1="749.128" x2="411.871" y2="700.378">
			<stop offset="0" stop-color="#ffffff"  />
			<stop offset="0.038" stop-color="#ffffff"  />
			<stop offset="1" stop-color="#000000"  />
		</linearGradient>
		<linearGradient id="grd30" gradientUnits="userSpaceOnUse"  x1="372.096" y1="670.178" x2="359.096" y2="586.178">
			<stop offset="0" stop-color="#ffffff"  />
			<stop offset="0.038" stop-color="#ffffff"  />
			<stop offset="1" stop-color="#000000"  />
		</linearGradient>
		<linearGradient id="grd31" gradientUnits="userSpaceOnUse"  x1="317.575" y1="506.556" x2="331.075" y2="459.056">
			<stop offset="0" stop-color="#ffffff"  />
			<stop offset="0.038" stop-color="#ffffff"  />
			<stop offset="1" stop-color="#000000"  />
		</linearGradient>
		<linearGradient id="grd32" gradientUnits="userSpaceOnUse"  x1="323.977" y1="328.367" x2="329.352" y2="312.742">
			<stop offset="0" stop-color="#ffffff"  />
			<stop offset="0.038" stop-color="#ffffff"  />
			<stop offset="1" stop-color="#000000"  />
		</linearGradient>
		<linearGradient id="grd33" gradientUnits="userSpaceOnUse"  x1="328.217" y1="626.111" x2="328.217" y2="563.441">
			<stop offset="0" stop-color="#ffffff"  />
			<stop offset="0.038" stop-color="#ffffff"  />
			<stop offset="1" stop-color="#000000"  />
		</linearGradient>
		<linearGradient id="grd34" gradientUnits="userSpaceOnUse"  x1="421.76" y1="497.945" x2="421.76" y2="520.661">
			<stop offset="0" stop-color="#ffffff"  />
			<stop offset="0.038" stop-color="#ffffff"  />
			<stop offset="1" stop-color="#000000"  />
		</linearGradient>
		<linearGradient id="grd35" gradientUnits="userSpaceOnUse"  x1="375.47" y1="453.283" x2="341.701" y2="453.283">
			<stop offset="0" stop-color="#ffffff"  />
			<stop offset="0.038" stop-color="#ffffff"  />
			<stop offset="1" stop-color="#000000"  />
		</linearGradient>
		<linearGradient id="grd36" gradientUnits="userSpaceOnUse"  x1="182.791" y1="371.637" x2="182.791" y2="427.292">
			<stop offset="0" stop-color="#ffffff"  />
			<stop offset="0.038" stop-color="#ffffff"  />
			<stop offset="1" stop-color="#000000"  />
		</linearGradient>
		<linearGradient id="grd37" gradientUnits="userSpaceOnUse"  x1="258.125" y1="173.493" x2="258.125" y2="68.836">
			<stop offset="0" stop-color="#ffffff"  />
			<stop offset="0.038" stop-color="#ffffff"  />
			<stop offset="1" stop-color="#000000"  />
		</linearGradient>
		<linearGradient id="grd38" gradientUnits="userSpaceOnUse"  x1="559.922" y1="156.037" x2="757.735" y2="156.037">
			<stop offset="0" stop-color="#ffffff"  />
			<stop offset="0.038" stop-color="#ffffff"  />
			<stop offset="1" stop-color="#000000"  />
		</linearGradient>
	</defs>
	<style>
		tspan { white-space:pre }
		.shp0 { fill: url(#grd1) } 
		.shp1 { fill: url(#grd2) } 
		.shp2 { fill: url(#grd3) } 
		.shp3 { fill: url(#grd4) } 
		.shp4 { fill: url(#grd5) } 
		.shp5 { fill: url(#grd6) } 
		.shp6 { opacity: 0.2;mix-blend-mode: multiply;fill: url(#grd7) } 
		.shp7 { fill: #65a2db } 
		.shp8 { fill: url(#grd8) } 
		.shp9 { fill: #ffbb00 } 
		.shp10 { opacity: 0.2;mix-blend-mode: multiply;fill: url(#grd9) } 
		.shp11 { opacity: 0.2;mix-blend-mode: multiply;fill: url(#grd10) } 
		.shp12 { fill: #cf4b35 } 
		.shp13 { fill: #ff7761 } 
		.shp14 { opacity: 0.2;mix-blend-mode: multiply;fill: url(#grd11) } 
		.shp15 { fill: url(#grd12) } 
		.shp16 { opacity: 0.302;mix-blend-mode: multiply;fill: url(#grd13) } 
		.shp17 { opacity: 0.251;mix-blend-mode: multiply;fill: url(#grd14) } 
		.shp18 { fill: #ffffff } 
		.shp19 { fill: #0c4b87 } 
		.shp20 { opacity: 0.2;mix-blend-mode: multiply;fill: url(#grd15) } 
		.shp21 { fill: #137bdb } 
		.shp22 { fill: #f7bb44 } 
		.shp23 { fill: #8a8a8a } 
		.shp24 { fill: #707070 } 
		.shp25 { fill: #b0642c } 
		.shp26 { fill: none;stroke: #b0642c } 
		.shp27 { fill: none;stroke: #707070;stroke-width: 1.092 } 
		.shp28 { fill: #ff8c00 } 
		.shp29 { opacity: 0.502;fill: url(#grd16) } 
		.shp30 { opacity: 0.502;fill: url(#grd17) } 
		.shp31 { opacity: 0.502;fill: url(#grd18) } 
		.shp32 { fill: #b0402d } 
		.shp33 { opacity: 0.302;mix-blend-mode: multiply;fill: url(#grd19) } 
		.shp34 { opacity: 0.302;mix-blend-mode: multiply;fill: url(#grd20) } 
		.shp35 { fill: none;stroke: #ffffff;stroke-width: 2 } 
		.shp36 { fill: none;stroke: #303326;stroke-width: 1.814 } 
		.shp37 { fill: #ddefb4 } 
		.shp38 { opacity: 0.251;mix-blend-mode: multiply;fill: url(#grd21) } 
		.shp39 { fill: url(#grd22) } 
		.shp40 { fill: url(#grd23) } 
		.shp41 { fill: url(#grd24) } 
		.shp42 { fill: url(#grd25) } 
		.shp43 { fill: url(#grd26) } 
		.shp44 { opacity: 0.251;mix-blend-mode: multiply;fill: url(#grd27) } 
		.shp45 { opacity: 0.251;mix-blend-mode: multiply;fill: url(#grd28) } 
		.shp46 { fill: #0d5496 } 
		.shp47 { fill: #1067b8 } 
		.shp48 { fill: #1272cc } 
		.shp49 { fill: #147de0 } 
		.shp50 { fill: #168af7 } 
		.shp51 { fill: #2695ff } 
		.shp52 { fill: #389eff } 
		.shp53 { fill: #5cafff } 
		.shp54 { fill: #072e52 } 
		.shp55 { opacity: 0.251;mix-blend-mode: multiply;fill: url(#grd29) } 
		.shp56 { fill: #60277a } 
		.shp57 { opacity: 0.251;mix-blend-mode: multiply;fill: url(#grd30) } 
		.shp58 { opacity: 0.251;mix-blend-mode: multiply;fill: url(#grd31) } 
		.shp59 { fill: #995cb5 } 
		.shp60 { fill: #f0a481 } 
		.shp61 { opacity: 0.251;mix-blend-mode: multiply;fill: url(#grd32) } 
		.shp62 { fill: #303326 } 
		.shp63 { opacity: 0.302;mix-blend-mode: multiply;fill: url(#grd33) } 
		.shp64 { opacity: 0.2;mix-blend-mode: multiply;fill: url(#grd34) } 
		.shp65 { opacity: 0.2;mix-blend-mode: multiply;fill: url(#grd35) } 
		.shp66 { opacity: 0.251;mix-blend-mode: multiply;fill: url(#grd36) } 
		.shp67 { fill: #ff8d7a } 
		.shp68 { fill: #ffa696 } 
		.shp69 { fill: #ffb6a8 } 
		.shp70 { fill: #ffc1b5 } 
		.shp71 { fill: #ffd0c7 } 
		.shp72 { fill: #ffddd6 } 
		.shp73 { opacity: 0.251;mix-blend-mode: multiply;fill: url(#grd37) } 
		.shp74 { opacity: 0.251;mix-blend-mode: multiply;fill: url(#grd38) } 
	</style>
	<g id="Page 1" clip-path="url(#cp1)">
		<path id="Path 2" class="shp0" d="M457.13 51.03L457.13 784.26L846.83 784.26C861.84 784.26 874.01 772.09 874.01 757.08L874.01 357.84C874.01 188.39 736.65 51.03 567.2 51.03L457.13 51.03Z" />
		<path id="Path 3" class="shp1" d="M605.99 649.47C561.99 680.83 574.66 719.11 574.66 719.11L799.99 719.11C799.99 678.78 782.66 673.44 751.32 640.78C719.99 608.11 723.74 530.12 689.32 530.12C644.26 530.12 649.99 618.11 605.99 649.47Z" />
		<path id="Path 4" class="shp2" d="M362.03 0.58C169.82 0.58 13.99 156.4 13.99 348.62L13.99 757.08C13.99 772.09 26.16 784.26 41.17 784.26L486.89 784.26L486.89 27.76C486.89 12.75 474.72 0.58 459.71 0.58L362.03 0.58Z" />
		<path id="Path 5" class="shp3" d="M328.24 276.35C328.24 328.64 370.63 371.03 422.92 371.03C475.2 371.03 517.59 328.64 517.59 276.35C517.59 224.07 475.2 181.68 422.92 181.68C370.63 181.68 328.24 224.07 328.24 276.35Z" />
		<path id="Path 6" class="shp4" d="M446.18 573.28C446.18 618.8 483.07 655.69 528.59 655.69C574.11 655.69 611.01 618.8 611.01 573.28C611.01 527.76 574.11 490.86 528.59 490.86C483.07 490.86 446.18 527.76 446.18 573.28Z" />
		<path id="Path 7" class="shp5" d="M180.4 616.86C143.9 621.61 150.9 651.61 114.4 667.11C77.9 682.61 93.9 719.11 93.9 719.11L523.9 719.11C513.53 690.5 494.81 690.85 476.84 691.19C462.78 691.46 449.18 691.72 440.4 678.11C420.4 647.11 380.4 667.11 349.07 645.61C317.74 624.11 312.9 581.11 267.9 579.86C267.08 579.84 266.27 579.83 265.47 579.83C222.67 579.83 216.24 612.2 180.4 616.86Z" />
		<path id="Path 8" class="shp6" d="M785 412.87L628.08 412.87L628.08 244.85L785 244.85L785 412.87Z" />
		<path id="Path 9" class="shp7" d="M778.98 406.81L622.06 406.81L622.06 238.8L778.98 238.8L778.98 406.81Z" />
		<path id="Path 10" class="shp8" d="M622.06 295.93L622.06 406.81L778.98 406.81L778.98 350.33C761.39 377.23 718.72 377.61 700.52 346.15C688.93 326.1 673.01 289.33 644.24 289.33C637.58 289.33 630.21 291.31 622.06 295.93Z" />
		<path id="Path 11" class="shp9" d="M753.14 272.27L694.05 272.27C689.87 272.27 686.48 268.87 686.48 264.69C686.48 260.5 689.87 257.11 694.05 257.11L753.14 257.11C757.33 257.11 760.72 260.5 760.72 264.69C760.72 268.87 757.33 272.27 753.14 272.27ZM753.14 296.91L733.05 296.91C728.87 296.91 725.48 293.52 725.48 289.33C725.48 285.15 728.87 281.76 733.05 281.76L753.14 281.76C757.33 281.76 760.72 285.15 760.72 289.33C760.72 293.52 757.33 296.91 753.14 296.91Z" />
		<path id="Path 12" fill-rule="evenodd" class="shp10" d="M649.44 384.53L654.5 389.58L645.65 398.43L640.59 393.38C637.16 389.95 631.3 392.38 631.3 397.23L631.3 404.37L618.78 404.37L618.78 397.23C618.78 392.38 612.92 389.95 609.49 393.38L604.44 398.43L595.58 389.58L600.64 384.53C604.07 381.1 601.64 375.23 596.79 375.23L589.64 375.23L589.64 362.71L596.79 362.71C601.64 362.71 604.07 356.85 600.64 353.42L595.58 348.37L604.44 339.52L609.49 344.57C612.92 348 618.78 345.57 618.78 340.72L618.78 333.57L631.3 333.57L631.3 340.72C631.3 345.57 637.16 348 640.59 344.57L645.65 339.52L654.5 348.37L649.44 353.42C646.02 356.85 648.44 362.71 653.29 362.71L660.44 362.71L660.44 375.23L653.29 375.23C648.44 375.23 646.02 381.1 649.44 384.53ZM638.39 368.97C638.39 361.6 632.42 355.62 625.04 355.62C617.67 355.62 611.69 361.6 611.69 368.97C611.69 376.35 617.67 382.33 625.04 382.33C632.42 382.33 638.39 376.35 638.39 368.97Z" />
		<path id="Path 13" fill-rule="evenodd" class="shp11" d="M611.92 311.81L621.64 321.52L608.99 334.17L599.27 324.45C595.3 320.48 588.5 323.29 588.5 328.92L588.5 342.66L570.61 342.66L570.61 328.92C570.61 323.29 563.81 320.48 559.83 324.45L550.11 334.17L537.47 321.52L547.18 311.81C551.16 307.83 548.34 301.03 542.72 301.03L528.98 301.03L528.98 283.14L542.72 283.14C548.34 283.14 551.16 276.34 547.18 272.36L537.47 262.65L550.11 250L559.83 259.71C563.81 263.69 570.61 260.87 570.61 255.25L570.61 241.51L588.5 241.51L588.5 255.25C588.5 260.87 595.3 263.69 599.27 259.71L608.99 250L621.64 262.65L611.92 272.36C607.94 276.34 610.76 283.14 616.39 283.14L630.12 283.14L630.12 301.03L616.39 301.03C610.76 301.03 607.94 307.83 611.92 311.81ZM598.63 292.08C598.63 281.55 590.09 273.01 579.55 273.01C569.01 273.01 560.48 281.55 560.48 292.08C560.48 302.62 569.01 311.16 579.55 311.16C590.09 311.16 598.63 302.62 598.63 292.08Z" />
		<path id="Path 14" fill-rule="evenodd" class="shp12" d="M608.67 309.06L618.39 318.77L605.74 331.42L596.02 321.7C592.05 317.73 585.25 320.54 585.25 326.17L585.25 339.91L567.36 339.91L567.36 326.17C567.36 320.54 560.56 317.73 556.58 321.7L546.86 331.42L534.22 318.77L543.93 309.06C547.91 305.08 545.09 298.28 539.47 298.28L525.73 298.28L525.73 280.39L539.47 280.39C545.09 280.39 547.91 273.59 543.93 269.61L534.22 259.9L546.86 247.25L556.58 256.96C560.56 260.94 567.36 258.12 567.36 252.5L567.36 238.76L585.25 238.76L585.25 252.5C585.25 258.12 592.05 260.94 596.02 256.96L605.74 247.25L618.39 259.9L608.67 269.61C604.69 273.59 607.51 280.39 613.14 280.39L626.87 280.39L626.87 298.28L613.14 298.28C607.51 298.28 604.69 305.08 608.67 309.06ZM595.38 289.33C595.38 278.8 586.84 270.26 576.3 270.26C565.76 270.26 557.23 278.8 557.23 289.33C557.23 299.87 565.76 308.41 576.3 308.41C586.84 308.41 595.38 299.87 595.38 289.33Z" />
		<path id="Path 15" fill-rule="evenodd" class="shp13" d="M646.46 382.49L651.52 387.54L642.67 396.4L637.61 391.34C634.18 387.92 628.32 390.34 628.32 395.19L628.32 402.34L615.8 402.34L615.8 395.19C615.8 390.34 609.94 387.92 606.51 391.34L601.46 396.4L592.6 387.54L597.66 382.49C601.09 379.06 598.66 373.2 593.81 373.2L586.66 373.2L586.66 360.68L593.81 360.68C598.66 360.68 601.09 354.82 597.66 351.39L592.6 346.33L601.46 337.48L606.51 342.54C609.94 345.96 615.8 343.54 615.8 338.69L615.8 331.54L628.32 331.54L628.32 338.69C628.32 343.54 634.18 345.96 637.61 342.54L642.67 337.48L651.52 346.33L646.46 351.39C643.04 354.82 645.46 360.68 650.31 360.68L657.46 360.68L657.46 373.2L650.31 373.2C645.46 373.2 643.04 379.06 646.46 382.49ZM635.41 366.94C635.41 359.57 629.44 353.59 622.06 353.59C614.69 353.59 608.71 359.57 608.71 366.94C608.71 374.31 614.69 380.29 622.06 380.29C629.44 380.29 635.41 374.31 635.41 366.94Z" />
		<path id="Path 16" class="shp14" d="M785 613.54L628.08 613.54L628.08 445.52L785 445.52L785 613.54Z" />
		<path id="Path 17" class="shp7" d="M778.98 608.12L622.06 608.12L622.06 440.1L778.98 440.1L778.98 608.12Z" />
		<path id="Path 18" class="shp9" d="M760.72 473.57L686.48 473.57L686.48 458.42L760.72 458.42L760.72 473.57ZM760.72 498.22L725.48 498.22L725.48 483.06L760.72 483.06L760.72 498.22Z" />
		<path id="Path 19" class="shp15" d="M622.06 494.67L622.06 608.12L745.9 608.12C746.08 605.6 746.2 603.05 746.2 600.48C746.2 541.3 698.22 493.31 639.04 493.31C633.26 493.31 627.59 493.79 622.06 494.67Z" />
		<path id="Path 20" fill-rule="evenodd" class="shp16" d="M445.62 293.54L398.99 293.54L390.82 312.55C388.81 317.22 387.8 320.72 387.8 323.03C387.8 324.86 388.67 326.48 390.42 327.87C392.17 329.26 395.94 330.16 401.75 330.57L401.75 333.86L363.82 333.86L363.82 330.57C368.85 329.69 372.11 328.53 373.59 327.11C376.61 324.27 379.95 318.5 383.63 309.79L425.99 210.67L429.1 210.67L471.02 310.86C474.4 318.91 477.46 324.14 480.22 326.53C482.97 328.93 486.8 330.28 491.72 330.57L491.72 333.86L444.2 333.86L444.2 330.57C449 330.34 452.24 329.54 453.93 328.18C455.61 326.82 456.46 325.16 456.46 323.2C456.46 320.6 455.27 316.48 452.9 310.86L445.62 293.54ZM443.14 286.97L422.71 238.29L401.75 286.97L443.14 286.97Z" />
		<path id="Path 21" class="shp17" d="M256.62 476.87L256.62 607.63L123.27 607.63L256.62 476.87Z" />
		<path id="Path 22" fill-rule="evenodd" class="shp18" d="M440.77 293.54L394.14 293.54L385.97 312.55C383.95 317.22 382.95 320.72 382.95 323.03C382.95 324.86 383.82 326.48 385.57 327.87C387.32 329.26 391.09 330.16 396.89 330.58L396.89 333.86L358.97 333.86L358.97 330.58C364 329.69 367.26 328.53 368.74 327.11C371.76 324.27 375.1 318.5 378.77 309.79L421.14 210.67L424.25 210.67L466.17 310.86C469.55 318.91 472.61 324.14 475.36 326.54C478.12 328.93 481.95 330.28 486.86 330.58L486.86 333.86L439.35 333.86L439.35 330.58C444.15 330.34 447.38 329.54 449.07 328.18C450.76 326.82 451.61 325.16 451.61 323.2C451.61 320.6 450.42 316.48 448.05 310.86L440.77 293.54ZM438.28 286.97L417.85 238.29L396.89 286.97L438.28 286.97Z" />
		<path id="Path 23" class="shp19" d="M536.82 455.94L482.61 455.94L499.08 421.44L520.36 421.44L536.82 455.94Z" />
		<path id="Path 24" class="shp20" d="M531.84 445.52L520.36 421.44L499.08 421.44L487.59 445.52L531.84 445.52Z" />
		<path id="Path 25" class="shp21" d="M592.9 438.91L426.53 438.91C422.36 438.91 418.97 435.52 418.97 431.34L418.97 335.15C418.97 330.98 422.36 327.59 426.53 327.59L592.9 327.59C597.08 327.59 600.47 330.98 600.47 335.15L600.47 431.34C600.47 435.52 597.08 438.91 592.9 438.91Z" />
		<path id="Path 26" class="shp18" d="M587.64 429.76L431.8 429.76C429.57 429.76 427.77 427.96 427.77 425.74L427.77 340.76C427.77 338.54 429.57 336.74 431.8 336.74L587.64 336.74C589.86 336.74 591.67 338.54 591.67 340.76L591.67 425.74C591.67 427.96 589.86 429.76 587.64 429.76Z" />
		<path id="Path 27" class="shp22" d="M515.46 377.65L515.22 363.92L503.92 371.72C505.48 376.09 503.35 379.34 503.35 379.34L506.48 380.95L509.6 382.55C509.6 382.55 511 378.93 515.46 377.65Z" />
		<path id="Path 28" class="shp23" d="M497.8 408.13L489.43 403.83L502.29 378.8L510.66 383.1L497.8 408.13Z" />
		<path id="Path 29" class="shp24" d="M509.48 385.39L501.12 381.09L502.29 378.8L510.66 383.1L509.48 385.39Z" />
		<path id="Path 30" class="shp25" d="M511.91 374.54C511.43 375.47 510.28 375.84 509.35 375.36C508.41 374.88 508.04 373.73 508.52 372.8C509 371.86 510.15 371.49 511.09 371.97C512.02 372.45 512.39 373.6 511.91 374.54Z" />
		<path id="Path 31" class="shp26" d="M515.22 363.92L511.09 371.97" />
		<path id="Path 32" class="shp27" d="M466.26 369.61C478.03 357.59 498.05 354.61 515.42 363.53C532.79 372.45 542.03 390.46 539.11 407.03" />
		<path id="Path 33" class="shp28" d="M467.15 372.47C466.61 373.52 465.33 373.94 464.28 373.4C463.23 372.86 462.81 371.57 463.35 370.52C463.89 369.47 465.18 369.06 466.23 369.6C467.28 370.13 467.69 371.42 467.15 372.47ZM540.07 409.93C539.53 410.98 538.24 411.39 537.2 410.85C536.14 410.31 535.73 409.02 536.27 407.97C536.81 406.93 538.1 406.51 539.15 407.05C540.2 407.59 540.61 408.88 540.07 409.93Z" />
		<path id="Path 34" class="shp27" d="M478.26 344.42L552.56 382.59" />
		<path id="Path 35" class="shp29" d="M455.83 429.76L433.08 429.76L470.4 336.74L493.15 336.74L455.83 429.76Z" />
		<path id="Path 36" class="shp30" d="M534.72 429.76L511.97 429.76L549.29 336.74L572.04 336.74L534.72 429.76Z" />
		<path id="Path 37" class="shp31" d="M545.22 429.76L539.64 429.76L576.97 336.74L582.54 336.74L545.22 429.76Z" />
		<path id="Path 38" class="shp32" d="M651.4 719.11L639.4 719.11L615.4 482.11L633.4 482.11L651.4 719.11ZM372.87 719.11L384.87 719.11L408.87 482.11L390.87 482.11L372.87 719.11Z" />
		<path id="Path 39" class="shp33" d="M405.99 510.5L408.87 482.11L390.87 482.11L388.71 510.5L405.99 510.5Z" />
		<path id="Path 40" class="shp34" d="M633.4 482.11L615.4 482.11L618.27 510.5L635.56 510.5L633.4 482.11Z" />
		<path id="Path 41" class="shp22" d="M647.73 471.44L376.54 471.44L376.54 455.94L647.73 455.94L647.73 471.44Z" />
		<path id="Path 42" class="shp32" d="M638.12 471.44L386.15 471.44L386.15 485.94L638.12 485.94L638.12 471.44Z" />
		<path id="Path 43" class="shp35" d="M386.15 478.69L638.12 478.69" />
		<path id="Path 44" class="shp36" d="M0.72 719.11L886.97 719.11" />
		<path id="Path 45" class="shp37" d="M249.47 470.23L249.47 600.99L116.11 600.99L249.47 470.23Z" />
		<path id="Path 46" class="shp38" d="M261.16 342.03L116.93 342.03L116.93 248.63L150.24 207.17L261.16 207.17L261.16 342.03Z" />
		<path id="Path 47" class="shp18" d="M256.16 337.37L111.93 337.37L111.93 243.96L145.24 202.5L256.16 202.5L256.16 337.37Z" />
		<path id="Path 48" class="shp39" d="M158.72 236.59C156.16 234.06 152.72 232.64 149.11 232.64C141.56 232.64 135.4 238.78 135.4 246.34C135.4 253.9 141.56 260.05 149.11 260.05C152.72 260.05 156.16 258.62 158.72 256.1C161.28 258.62 164.73 260.05 168.33 260.05C175.89 260.05 182.04 253.9 182.04 246.34C182.04 238.78 175.89 232.64 168.33 232.64C164.73 232.64 161.28 234.06 158.72 236.59Z" />
		<path id="Path 49" fill-rule="evenodd" class="shp40" d="M220.04 232.64C227.6 232.64 233.75 238.78 233.75 246.34C233.75 253.9 227.6 260.05 220.04 260.05C216.3 260.05 212.91 258.54 210.43 256.1C207.95 258.54 204.56 260.05 200.82 260.05C193.26 260.05 187.11 253.9 187.11 246.34C187.11 238.78 193.26 232.64 200.82 232.64C204.56 232.64 207.95 234.15 210.43 236.58C212.91 234.15 216.3 232.64 220.04 232.64ZM220.04 258.24C226.6 258.24 231.94 252.9 231.94 246.34C231.94 239.78 226.6 234.45 220.04 234.45C213.48 234.45 208.14 239.78 208.14 246.34C208.14 252.9 213.48 258.24 220.04 258.24Z" />
		<path id="Path 50" fill-rule="evenodd" class="shp41" d="M168.33 286.73C175.89 286.73 182.04 292.88 182.04 300.44C182.04 308 175.89 314.14 168.33 314.14C164.59 314.14 161.2 312.64 158.72 310.2C156.25 312.64 152.85 314.14 149.11 314.14C141.56 314.14 135.4 308 135.4 300.44C135.4 292.88 141.56 286.73 149.11 286.73C152.85 286.73 156.25 288.24 158.72 290.68C161.2 288.24 164.59 286.73 168.33 286.73ZM168.33 312.33C174.89 312.33 180.23 307 180.23 300.44C180.23 293.88 174.89 288.54 168.33 288.54C165.05 288.54 162.07 289.88 159.92 292.04C161.73 294.36 162.82 297.27 162.82 300.44C162.82 303.61 161.73 306.52 159.92 308.84C162.07 311 165.05 312.33 168.33 312.33ZM149.11 312.33C152.4 312.33 155.37 311 157.53 308.84C155.72 306.52 154.63 303.61 154.63 300.44C154.63 297.27 155.72 294.36 157.53 292.04C155.37 289.88 152.4 288.54 149.11 288.54C142.55 288.54 137.22 293.88 137.22 300.44C137.22 307 142.55 312.33 149.11 312.33Z" />
		<path id="Path 51" class="shp42" d="M187.11 300.44C187.11 308 193.26 314.14 200.82 314.14C204.56 314.14 207.95 312.64 210.43 310.2C207.91 307.71 206.33 304.26 206.33 300.44C206.33 296.62 207.91 293.17 210.43 290.68C207.95 288.24 204.56 286.73 200.82 286.73C193.26 286.73 187.11 292.88 187.11 300.44Z" />
		<path id="Path 52" class="shp43" d="M210.43 290.68C212.96 293.17 214.53 296.62 214.53 300.44C214.53 304.26 212.96 307.71 210.43 310.2C212.91 312.64 216.3 314.14 220.04 314.14C227.6 314.14 233.75 308 233.75 300.44C233.75 292.88 227.6 286.73 220.04 286.73C216.3 286.73 212.91 288.24 210.43 290.68Z" />
		<path id="Path 53" class="shp44" d="M145.24 202.5L149.98 247.56L111.93 247.1L111.93 243.96L145.24 202.5Z" />
		<path id="Path 54" class="shp18" d="M145.24 202.5L145.24 243.96L111.93 243.96L145.24 202.5ZM617.85 423.23C617.85 425.56 615.96 427.44 613.63 427.44C611.31 427.44 609.42 425.56 609.42 423.23C609.42 420.9 611.31 419.02 613.63 419.02C615.96 419.02 617.85 420.9 617.85 423.23ZM636.51 423.23C636.51 425.56 634.62 427.44 632.29 427.44C629.96 427.44 628.08 425.56 628.08 423.23C628.08 420.9 629.96 419.02 632.29 419.02C634.62 419.02 636.51 420.9 636.51 423.23ZM655.16 423.23C655.16 425.56 653.28 427.44 650.95 427.44C648.62 427.44 646.74 425.56 646.74 423.23C646.74 420.9 648.62 419.02 650.95 419.02C653.28 419.02 655.16 420.9 655.16 423.23ZM673.82 423.23C673.82 425.56 671.93 427.44 669.61 427.44C667.28 427.44 665.39 425.56 665.39 423.23C665.39 420.9 667.28 419.02 669.61 419.02C671.93 419.02 673.82 420.9 673.82 423.23ZM692.48 423.23C692.48 425.56 690.59 427.44 688.26 427.44C685.94 427.44 684.05 425.56 684.05 423.23C684.05 420.9 685.94 419.02 688.26 419.02C690.59 419.02 692.48 420.9 692.48 423.23ZM117.06 453.16C117.06 455.48 115.17 457.37 112.84 457.37C110.52 457.37 108.63 455.48 108.63 453.16C108.63 450.83 110.52 448.94 112.84 448.94C115.17 448.94 117.06 450.83 117.06 453.16ZM135.71 453.16C135.71 455.48 133.83 457.37 131.5 457.37C129.17 457.37 127.29 455.48 127.29 453.16C127.29 450.83 129.17 448.94 131.5 448.94C133.83 448.94 135.71 450.83 135.71 453.16ZM154.37 453.16C154.37 455.48 152.48 457.37 150.16 457.37C147.83 457.37 145.94 455.48 145.94 453.16C145.94 450.83 147.83 448.94 150.16 448.94C152.48 448.94 154.37 450.83 154.37 453.16ZM173.03 453.16C173.03 455.48 171.14 457.37 168.81 457.37C166.49 457.37 164.6 455.48 164.6 453.16C164.6 450.83 166.49 448.94 168.81 448.94C171.14 448.94 173.03 450.83 173.03 453.16ZM191.68 453.16C191.68 455.48 189.8 457.37 187.47 457.37C185.14 457.37 183.26 455.48 183.26 453.16C183.26 450.83 185.14 448.94 187.47 448.94C189.8 448.94 191.68 450.83 191.68 453.16ZM280.99 600.47C278.67 600.47 276.78 598.59 276.78 596.26C276.78 593.93 278.67 592.05 280.99 592.05C283.32 592.05 285.21 593.93 285.21 596.26C285.21 598.59 283.32 600.47 280.99 600.47ZM280.99 619.13C278.67 619.13 276.78 617.25 276.78 614.92C276.78 612.59 278.67 610.7 280.99 610.7C283.32 610.7 285.21 612.59 285.21 614.92C285.21 617.25 283.32 619.13 280.99 619.13ZM280.99 637.79C278.67 637.79 276.78 635.9 276.78 633.58C276.78 631.25 278.67 629.36 280.99 629.36C283.32 629.36 285.21 631.25 285.21 633.58C285.21 635.9 283.32 637.79 280.99 637.79ZM280.99 656.44C278.67 656.44 276.78 654.56 276.78 652.23C276.78 649.9 278.67 648.02 280.99 648.02C283.32 648.02 285.21 649.9 285.21 652.23C285.21 654.56 283.32 656.44 280.99 656.44ZM280.99 675.1C278.67 675.1 276.78 673.22 276.78 670.89C276.78 668.56 278.67 666.68 280.99 666.68C283.32 666.68 285.21 668.56 285.21 670.89C285.21 673.22 283.32 675.1 280.99 675.1ZM283.94 214.45C281.62 214.45 279.73 212.57 279.73 210.24C279.73 207.91 281.62 206.03 283.94 206.03C286.27 206.03 288.16 207.91 288.16 210.24C288.16 212.57 286.27 214.45 283.94 214.45ZM283.94 233.11C281.62 233.11 279.73 231.23 279.73 228.9C279.73 226.57 281.62 224.69 283.94 224.69C286.27 224.69 288.16 226.57 288.16 228.9C288.16 231.23 286.27 233.11 283.94 233.11ZM283.94 251.77C281.62 251.77 279.73 249.88 279.73 247.56C279.73 245.23 281.62 243.34 283.94 243.34C286.27 243.34 288.16 245.23 288.16 247.56C288.16 249.88 286.27 251.77 283.94 251.77ZM283.94 270.43C281.62 270.43 279.73 268.54 279.73 266.21C279.73 263.89 281.62 262 283.94 262C286.27 262 288.16 263.89 288.16 266.21C288.16 268.54 286.27 270.43 283.94 270.43ZM283.94 289.08C281.62 289.08 279.73 287.2 279.73 284.87C279.73 282.54 281.62 280.66 283.94 280.66C286.27 280.66 288.16 282.54 288.16 284.87C288.16 287.2 286.27 289.08 283.94 289.08ZM173.44 500.83L154.72 500.83L154.72 482.11L150.16 482.11L150.16 500.83L131.44 500.83L131.44 505.39L150.16 505.39L150.16 524.11L154.72 524.11L154.72 505.39L173.44 505.39L173.44 500.83ZM809.97 639.5L791.25 639.5L791.25 620.78L786.69 620.78L786.69 639.5L767.97 639.5L767.97 644.06L786.69 644.06L786.69 662.78L791.25 662.78L791.25 644.06L809.97 644.06L809.97 639.5ZM560.36 210.77L546.38 210.77L546.38 196.78L542.97 196.78L542.97 210.77L528.98 210.77L528.98 214.18L542.97 214.18L542.97 228.17L546.38 228.17L546.38 214.18L560.36 214.18L560.36 210.77Z" />
		<path id="Path 55" class="shp45" d="M676.84 629.36L533.09 629.36L533.09 571.86L676.84 571.86L676.84 629.36Z" />
		<path id="Path 56" class="shp18" d="M557.34 595.73L528.59 595.73L528.59 566.98L557.34 566.98L557.34 595.73Z" />
		<path id="Path 57" class="shp46" d="M586.09 595.73L557.34 595.73L557.34 566.98L586.09 566.98L586.09 595.73Z" />
		<path id="Path 58" class="shp47" d="M614.84 595.73L586.09 595.73L586.09 566.98L614.84 566.98L614.84 595.73Z" />
		<path id="Path 59" class="shp48" d="M643.59 595.73L614.84 595.73L614.84 566.98L643.59 566.98L643.59 595.73Z" />
		<path id="Path 60" class="shp49" d="M672.34 595.73L643.59 595.73L643.59 566.98L672.34 566.98L672.34 595.73ZM557.34 624.48L528.59 624.48L528.59 595.73L557.34 595.73L557.34 624.48Z" />
		<path id="Path 61" class="shp50" d="M586.09 624.48L557.34 624.48L557.34 595.73L586.09 595.73L586.09 624.48Z" />
		<path id="Path 62" class="shp51" d="M614.84 624.48L586.09 624.48L586.09 595.73L614.84 595.73L614.84 624.48Z" />
		<path id="Path 63" class="shp52" d="M643.59 624.48L614.84 624.48L614.84 595.73L643.59 595.73L643.59 624.48Z" />
		<path id="Path 64" class="shp53" d="M672.34 624.48L643.59 624.48L643.59 595.73L672.34 595.73L672.34 624.48Z" />
		<path id="Path 65" class="shp54" d="M378.13 683.11C378.13 683.11 373.83 690.61 373.83 719.11L452.84 719.11C452.84 719.11 453.09 710.86 445.08 704.99C437.08 699.11 417.97 696.31 413.34 694.11C403.39 689.4 403.58 683.11 403.58 683.11L378.13 683.11Z" />
		<path id="Path 66" class="shp55" d="M420.33 719.11L452.84 719.11C452.84 719.11 453.09 710.86 445.08 704.99C437.08 699.11 417.97 696.31 413.34 694.11C403.39 689.4 403.58 683.11 403.58 683.11L378.13 683.11C378.13 683.11 376.7 685.63 375.49 693.23L420.33 719.11Z" />
		<path id="Path 67" class="shp54" d="M456.22 683.11C456.22 683.11 447.22 690.61 447.22 719.11L526.22 719.11C526.22 719.11 526.47 710.86 518.47 704.99C510.47 699.11 491.35 696.31 486.72 694.11C476.77 689.4 476.97 683.11 476.97 683.11L456.22 683.11Z" />
		<path id="Path 68" class="shp56" d="M373.86 546.11L408.97 687.61L373.1 687.61C373.1 687.61 361.47 677.61 364.47 663.11C367.47 648.61 354.8 639.69 348.47 626.61C340.97 611.11 344.97 604.61 340.97 593.11C336.97 581.61 324.47 564.11 325.97 546.11L373.86 546.11Z" />
		<path id="Path 69" class="shp57" d="M373.86 546.11L325.97 546.11C324.47 564.11 336.97 581.61 340.97 593.11C344.97 604.61 340.97 611.11 348.47 626.61C351.92 633.74 357.24 639.64 360.9 645.88L389.79 610.32L373.86 546.11Z" />
		<path id="Path 70" class="shp56" d="M364.97 472.11C364.97 472.11 363.97 493.11 397.97 493.11C431.97 493.11 472.47 494.61 484.97 512.61C497.47 530.61 484.97 687.61 484.97 687.61L449.27 687.61C449.27 687.61 437.97 672.61 441.97 661.11C445.97 649.61 444.47 640.11 440.97 626.61C437.47 613.11 443.97 601.61 444.97 590.61C445.97 579.61 437.47 566.11 441.97 552.61L359.97 552.61C331.47 552.61 295.63 552.44 278.3 535.61C257.95 515.85 273.97 472.11 273.97 472.11L364.97 472.11Z" />
		<path id="Path 71" class="shp58" d="M364.97 472.11L273.97 472.11C273.97 472.11 265.63 494.89 268.64 514.99L374.3 487.65C364.54 481.43 364.97 472.11 364.97 472.11Z" />
		<path id="Path 72" class="shp59" d="M295.27 333.86C280.22 333.86 270.72 341.36 266.72 362.86L295.27 362.86L295.27 333.86Z" />
		<path id="Path 73" class="shp60" d="M353.22 282.36L358.97 305.11L352.47 305.11L352.47 318.16C352.47 320.96 350.19 323.24 347.39 323.24L343.96 323.24C341.75 323.24 339.89 324.88 339.63 327.07L338.47 336.74L307.72 336.74L311.22 311.61C311.22 311.61 298.8 295.78 308.47 280.45C319.28 263.3 344.72 261.99 353.22 282.36Z" />
		<path id="Path 74" class="shp61" d="M323.63 309.78L311.01 313.11L307.72 336.74L338.47 336.74L339.63 327.07C339.89 324.88 341.75 323.24 343.96 323.24C332.32 323.49 323.63 309.78 323.63 309.78Z" />
		<path id="Path 75" class="shp54" d="M295.27 333.86L365.62 333.86C369.7 333.86 372.94 337.26 372.75 341.32C371.61 365.21 368.09 438.81 367.47 448.28C366.72 459.61 383.97 479.11 364.72 479.11L268.3 479.11C268.3 479.11 275.93 381.43 281.43 345.76C282.48 338.92 288.35 333.86 295.27 333.86Z" />
		<path id="Path 76" class="shp60" d="M373.1 395.11L392.62 439.74C396.88 449.48 406.51 455.78 417.14 455.78L511.97 455.78C511.97 455.78 506.97 438.78 488.63 445.78L417.97 430.45L403.63 395.11L373.1 395.11Z" />
		<path id="Path 77" class="shp62" d="M336.47 280.44C336.47 280.44 339.72 289.61 329.94 304.02C329.94 304.02 330.3 293.94 324.63 294.28C318.97 294.61 316.97 305.11 323.63 309.78C323.63 309.78 320.3 321.94 312.47 326.28C304.63 330.61 294.63 323.44 298.3 315.78C298.3 315.78 285.47 314.78 291.3 305.94C291.3 305.94 283.47 307.28 283.97 302.11C284.47 296.94 293.63 296.44 296.97 285.11L336.47 280.44Z" />
		<path id="Path 78" class="shp59" d="M296.97 285.11L377.19 285.11C378.47 285.11 378.69 283.27 377.44 282.98L362.07 279.35C360.24 278.91 358.81 277.52 358.31 275.71C356.47 269.07 346.93 253.36 327.8 253.36C303.55 253.36 296.97 273.11 296.97 285.11ZM367.8 333.86C387.81 333.86 408.63 401.11 408.63 401.11L373.11 401.11C373.11 401.11 365 387.27 357.67 368.93C350.33 350.6 351.79 333.86 367.8 333.86Z" />
		<path id="Path 79" class="shp19" d="M336.97 704.11L319.47 704.11L319.47 549.11L336.97 549.11L336.97 704.11Z" />
		<path id="Path 80" class="shp63" d="M336.97 604.61L319.47 585.36L319.47 549.11L336.97 549.11L336.97 604.61Z" />
		<path id="Path 81" class="shp21" d="M328.22 690.86C298.79 690.86 273 702.15 258.47 719.11L397.97 719.11C383.44 702.15 357.64 690.86 328.22 690.86ZM426.3 530.12L416.31 529.78L418.07 478.96C418.26 473.5 416.27 468.32 412.47 464.38C408.67 460.45 403.57 458.28 398.1 458.28L330.63 458.28L330.63 448.28L398.1 448.28C406.31 448.28 413.97 451.53 419.67 457.44C425.37 463.34 428.35 471.11 428.07 479.31L426.3 530.12Z" />
		<path id="Path 82" class="shp64" d="M417.21 503.78L416.3 529.78L426.3 530.12L427.21 503.78L417.21 503.78Z" />
		<path id="Path 83" class="shp65" d="M356.04 448.28L330.63 448.28L330.63 458.28L358.44 458.28L356.04 448.28Z" />
		<path id="Path 84" class="shp21" d="M415.41 525.11L357.63 525.11C350.41 525.11 344.35 519.68 343.56 512.5L326.9 361.06C326.37 356.25 322.31 352.61 317.47 352.61L233.88 352.61C220.32 352.61 209.76 364.39 211.25 377.87L229.43 543.13C230.59 553.65 239.48 561.61 250.06 561.61L416.03 561.61C426.51 561.61 434.93 552.78 434.24 542.15C433.61 532.45 425.13 525.11 415.41 525.11Z" />
		<path id="Path 85" class="shp19" d="M415.41 525.11L357.63 525.11C350.41 525.11 344.35 519.68 343.56 512.5L326.9 361.06C326.37 356.25 322.31 352.61 317.47 352.61C315.24 352.61 313.5 354.54 313.73 356.76L330.47 516.56C331.61 527.39 340.74 535.61 351.62 535.61L432.5 535.61C429.44 529.34 422.78 525.11 415.41 525.11Z" />
		<path id="Path 86" class="shp66" d="M254.67 434.32L110.92 434.32L110.92 376.82L254.67 376.82L254.67 434.32Z" />
		<path id="Path 87" class="shp18" d="M135.78 401.11L107.03 401.11L107.03 372.36L135.78 372.36L135.78 401.11Z" />
		<path id="Path 88" class="shp32" d="M164.53 401.11L135.78 401.11L135.78 372.36L164.53 372.36L164.53 401.11Z" />
		<path id="Path 89" class="shp12" d="M193.28 401.11L164.53 401.11L164.53 372.36L193.28 372.36L193.28 401.11Z" />
		<path id="Path 90" class="shp13" d="M222.03 401.11L193.28 401.11L193.28 372.36L222.03 372.36L222.03 401.11Z" />
		<path id="Path 91" class="shp67" d="M250.78 401.11L222.03 401.11L222.03 372.36L250.78 372.36L250.78 401.11Z" />
		<path id="Path 92" class="shp68" d="M135.78 429.86L107.03 429.86L107.03 401.11L135.78 401.11L135.78 429.86Z" />
		<path id="Path 93" class="shp69" d="M164.53 429.86L135.78 429.86L135.78 401.11L164.53 401.11L164.53 429.86Z" />
		<path id="Path 94" class="shp70" d="M193.28 429.86L164.53 429.86L164.53 401.11L193.28 401.11L193.28 429.86Z" />
		<path id="Path 95" class="shp71" d="M222.03 429.86L193.28 429.86L193.28 401.11L222.03 401.11L222.03 429.86Z" />
		<path id="Path 96" class="shp72" d="M250.78 429.86L222.03 429.86L222.03 401.11L250.78 401.11L250.78 429.86Z" />
		<path id="Path 97" class="shp73" d="M355.96 154.05C359.37 154.05 361.39 150.2 359.43 147.41C352.18 137.12 337.13 118.5 323.16 118.5C287.25 118.5 297.65 84.14 256.6 84.14C211.33 84.14 216.1 118.5 190 118.5C170.56 118.5 160.58 138.24 156.75 148.3C155.7 151.08 157.73 154.05 160.7 154.05L355.96 154.05Z" />
		<path id="Path 98" class="shp18" d="M346.34 149.09C349.75 149.09 351.77 145.24 349.81 142.45C342.56 132.16 327.51 113.53 313.54 113.53C277.63 113.53 288.04 79.17 246.99 79.17C201.71 79.17 206.48 113.53 180.38 113.53C160.94 113.53 150.96 133.28 147.13 143.34C146.08 146.12 148.11 149.09 151.08 149.09L346.34 149.09Z" />
		<path id="Path 99" class="shp74" d="M562.84 183.43L753.98 183.43C756.47 183.43 758.39 181.23 758.01 178.77C756.67 169.95 751.43 151.61 731.15 150.77C709.81 110.77 657.81 112.77 642.87 141.77C603.15 133.1 584.4 167.68 584.4 167.68C584.4 167.68 566.78 166.96 559.54 176.96C557.59 179.65 559.52 183.43 562.84 183.43Z" />
		<path id="Path 100" class="shp18" d="M556.34 177.93L747.48 177.93C749.97 177.93 751.89 175.73 751.51 173.27C750.17 164.45 744.93 146.11 724.64 145.27C703.31 105.27 651.31 107.27 636.37 136.27C596.64 127.6 577.89 162.18 577.89 162.18C577.89 162.18 560.28 161.47 553.04 171.46C551.09 174.15 553.02 177.93 556.34 177.93Z" />
	</g>
</svg>