<svg xmlns="http://www.w3.org/2000/svg" viewBox="0 0 880 861" width="880" height="861">
	<defs>
		<clipPath clipPathUnits="userSpaceOnUse" id="cp1">
			<path d="M-60 -84L940 -84L940 916L-60 916Z" />
		</clipPath>
	</defs>
	<style>
		tspan { white-space:pre }
		.shp0 { fill: #92e3a9 } 
		.shp1 { opacity: 0.698;fill: #ffffff } 
		.shp2 { fill: none;stroke: #263238;stroke-linecap:round;stroke-linejoin:round;stroke-width: 2.206;stroke-dasharray: 9 } 
		.shp3 { opacity: 0.502;fill: #ffffff } 
		.shp4 { fill: #ffffff;stroke: #263238;stroke-linecap:round;stroke-linejoin:round;stroke-width: 2.206 } 
		.shp5 { fill: #263238 } 
		.shp6 { opacity: 0.2;fill: #ffffff } 
		.shp7 { fill: #92e3a9;stroke: #263238;stroke-width: 2.206 } 
		.shp8 { fill: none;stroke: #263238;stroke-width: 2.206 } 
		.shp9 { opacity: 0.2;fill: #000000 } 
		.shp10 { fill: #ffffff;stroke: #222221;stroke-width: 2.206 } 
		.shp11 { fill: #ffffff } 
		.shp12 { fill: none;stroke: #263238;stroke-linecap:round;stroke-linejoin:round;stroke-width: 2.206 } 
		.shp13 { fill: none;stroke: #263238;stroke-linecap:round;stroke-linejoin:round;stroke-width: 4.412 } 
		.shp14 { fill: none;stroke: #ffffff;stroke-linecap:round;stroke-linejoin:round;stroke-width: 2.206 } 
	</style>
	<g id="Page 1" clip-path="url(#cp1)">
		<path id="Path 1" class="shp0" d="M853.1 334.21C755.61 167.26 491.2 226.72 437.19 145.51C409.54 103.93 378.6 55.73 333.73 30.67C290.95 6.78 241.35 -1.75 198.1 1.42C43.69 12.72 -21.78 150.88 7.89 302.6C47.47 504.98 226.88 711.72 440.02 713.16C551.49 713.92 657.91 674.07 741.39 617.74C742.02 617.32 742.64 616.9 743.26 616.48C826.66 559.71 927.53 461.67 853.1 334.21Z" />
		<path id="Path 2" class="shp1" d="M853.1 334.21C755.61 167.26 491.2 226.72 437.19 145.51C409.54 103.93 378.6 55.73 333.73 30.67C290.95 6.78 241.35 -1.75 198.1 1.42C43.69 12.72 -21.78 150.88 7.89 302.6C47.47 504.98 226.88 711.72 440.02 713.16C551.49 713.92 657.91 674.07 741.39 617.74C742.02 617.32 742.64 616.9 743.26 616.48C826.66 559.71 927.53 461.67 853.1 334.21Z" />
		<path id="Path 3" class="shp2" d="M96.38 346.36L85.54 346.36C61.31 346.36 41.68 366 41.68 390.22L41.68 630.91C41.68 655.13 61.31 674.77 85.54 674.77L234.26 674.77C258.49 674.77 278.12 655.13 278.12 630.91M265.93 119.26L265.93 71.72C265.93 56.88 277.96 44.85 292.79 44.85L486.19 44.85C501.03 44.85 513.06 56.88 513.06 71.72" />
		<path id="Path 4" class="shp0" d="M823.04 806.8C823.04 836.36 651.55 860.32 440 860.32C228.45 860.32 56.96 836.36 56.96 806.8C56.96 777.23 228.45 753.27 440 753.27C651.55 753.27 823.04 777.23 823.04 806.8Z" />
		<path id="Path 5" class="shp3" d="M823.04 806.8C823.04 836.36 651.55 860.32 440 860.32C228.45 860.32 56.96 836.36 56.96 806.8C56.96 777.23 228.45 753.27 440 753.27C651.55 753.27 823.04 777.23 823.04 806.8Z" />
		<path id="Path 6" class="shp4" d="M801.08 183.05L801.08 543.17C801.08 567.68 781.2 587.56 756.69 587.56L123.31 587.56C98.8 587.56 78.92 567.68 78.92 543.17L78.92 183.05C78.92 181.99 78.96 180.95 79.05 179.92C80.64 156.86 99.86 138.64 123.31 138.64L756.69 138.64C780.14 138.64 799.36 156.86 800.95 179.92C801.04 180.95 801.08 181.99 801.08 183.05Z" />
		<path id="Path 7" class="shp5" d="M740.14 570.81L142.12 570.81C119.14 570.81 100.52 552.19 100.52 529.21L100.52 196.55L781.74 196.55L781.74 529.21C781.74 552.19 763.12 570.81 740.14 570.81Z" />
		<path id="Path 8" class="shp6" d="M781.75 196.55L781.75 529.22C781.75 552.19 763.32 570.81 740.62 570.81L141.66 570.81C118.95 570.81 100.52 552.19 100.52 529.22L100.52 196.55L781.75 196.55Z" />
		<path id="Path 9" class="shp7" d="M800.95 179.92L79.05 179.92C80.64 156.86 99.86 138.64 123.31 138.64L756.69 138.64C780.14 138.64 799.36 156.86 800.95 179.92Z" />
		<path id="Path 10" class="shp5" d="M167.76 159.28C167.76 163.62 164.24 167.14 159.9 167.14C155.56 167.14 152.04 163.62 152.04 159.28C152.04 154.93 155.56 151.41 159.9 151.41C164.24 151.41 167.76 154.93 167.76 159.28ZM201.01 159.28C201.01 163.62 197.49 167.14 193.14 167.14C188.8 167.14 185.28 163.62 185.28 159.28C185.28 154.93 188.8 151.41 193.14 151.41C197.49 151.41 201.01 154.93 201.01 159.28ZM234.25 159.28C234.25 163.62 230.73 167.14 226.39 167.14C222.05 167.14 218.53 163.62 218.53 159.28C218.53 154.93 222.05 151.41 226.39 151.41C230.73 151.41 234.25 154.93 234.25 159.28Z" />
		<path id="Path 11" class="shp8" d="M781.74 196.56L781.74 529.22C781.74 552.18 763.12 570.83 740.13 570.83L142.12 570.83C121.91 570.83 105.08 556.4 101.32 537.29L101.3 537.27L101.3 537.18C100.79 534.6 100.53 531.93 100.53 529.22L100.53 196.56L781.74 196.56Z" />
		<path id="Path 12" fill-rule="evenodd" class="shp5" d="M781.76 247.6L781.76 323.27L781.03 322.81C778.12 324.44 775.01 325.74 771.78 326.64L768.06 343.32L752.17 343.32L748.47 326.64C745.22 325.74 742.11 324.46 739.2 322.81L724.77 331.98L713.54 320.75L722.72 306.33C721.06 303.39 719.78 300.26 718.9 296.99L702.2 293.26L702.2 277.38L718.9 273.67C719.78 270.45 721.06 267.34 722.72 264.41L713.7 250.07L724.93 238.84L739.27 248.01C742.18 246.38 745.29 245.08 748.53 244.2L752.24 227.5L768.12 227.5L771.85 244.2C775.07 245.1 778.18 246.38 781.1 248.01L781.76 247.6ZM780.74 285.41C780.74 274.09 771.56 264.89 760.22 264.89C748.89 264.89 739.71 274.09 739.71 285.41C739.71 296.75 748.89 305.93 760.22 305.93C771.56 305.93 780.74 296.75 780.74 285.41ZM459.69 271.96C457.77 278.75 455.06 285.28 451.64 291.46L470.85 321.88L447.18 345.56L416.76 326.21C410.6 329.65 404.07 332.39 397.28 334.31L389.4 369.47L355.91 369.47L348.1 334.31C341.28 332.39 334.73 329.67 328.55 326.21L298.15 345.56L274.46 321.88L293.81 291.46C290.34 285.26 287.65 278.64 285.77 271.78L250.56 263.93L250.56 230.44L285.77 222.6C287.65 215.79 290.34 209.24 293.81 203.08L289.7 196.55L455.9 196.55L451.64 203.26C455.08 209.43 457.77 216.01 459.69 222.8L494.9 230.61L494.9 264.1L459.69 271.96ZM416.16 247.36C416.16 223.46 396.79 204.09 372.9 204.09C349 204.09 329.63 223.46 329.63 247.36C329.63 271.25 349 290.62 372.9 290.62C396.79 290.62 416.16 271.25 416.16 247.36ZM244.48 498.84C242.72 504.15 240.29 509.23 237.29 513.97L251.37 538.95L231.56 556.75L208.26 540.14C203.18 542.63 197.89 544.51 192.37 545.74L185.4 570.8L185.4 570.83L184.7 573.36L158.13 571.95L157.91 570.83L157.91 570.8L153.37 543.69C148.03 541.88 142.91 539.41 138.15 536.34L113.17 550.44L101.32 537.29L101.3 537.27L101.3 537.18L100.53 523.39L112.02 507.31C109.51 502.28 107.61 496.96 106.38 491.47L100.53 489.81L100.53 453.83L108.58 452.51C110.39 447.17 112.82 442.09 115.86 437.35L101.74 412.4L121.55 394.57L144.9 411.21C149.93 408.71 155.22 406.82 160.69 405.6L168.37 377.98L194.93 379.39L199.7 407.63C205.04 409.46 210.11 411.91 214.88 414.89L239.81 400.79L257.63 420.58L241 443.95C243.47 448.98 245.37 454.29 246.65 459.74L274.18 467.51L272.77 494.07L244.48 498.84ZM202.21 452.57C189.51 438.45 167.75 437.3 153.63 450.01C139.51 462.72 138.37 484.47 151.07 498.59C163.78 512.71 185.53 513.84 199.65 501.13C213.77 488.42 214.92 466.69 202.21 452.57Z" />
		<path id="Path 13" fill-rule="evenodd" class="shp5" d="M501.17 468.92L499.71 471.44L491.2 486.33L470.58 479.92C467.52 482.9 464.13 485.5 460.46 487.67L460.6 490.83L461.45 509.27L442.1 514.53L432.05 495.4C427.8 495.38 423.59 494.85 419.48 493.82L405 509.57L387.59 499.6L394.01 479.09C391.03 476.08 388.44 472.71 386.29 469.07L364.71 470.09L359.43 450.71L378.56 440.64C378.58 436.41 379.11 432.2 380.14 428.09L364.16 413.57L374.15 396.19L394.78 402.56C397.8 399.61 401.17 397 404.8 394.82L403.78 373.23L423.13 367.97L433.21 387.08C437.45 387.15 441.65 387.68 445.75 388.68L460.31 372.79L477.72 382.76L471.33 403.38C474.29 406.39 476.9 409.76 479.08 413.39L500.63 412.38L505.91 431.76L486.81 441.8C486.77 446.04 486.23 450.27 485.2 454.38L501.17 468.92ZM457.65 434.33C453.9 420.54 439.66 412.38 425.83 416.14C412.04 419.89 403.88 434.13 407.64 447.95C411.39 461.75 425.63 469.91 439.46 466.15C453.25 462.4 461.41 448.16 457.65 434.33ZM677.66 490.04C675.24 495.23 672.17 500.1 668.55 504.54L679.91 531.26L657.98 546.96L636.39 527.57C631.05 529.53 625.49 530.84 619.82 531.45L608.94 558.06L582.35 553.67L580.85 524.81C575.71 522.41 570.86 519.39 566.45 515.79L539.73 527.17L524.04 505.27L543.41 483.62C541.45 478.28 540.17 472.72 539.55 467.1L517.01 458.01L512.64 456.24L517.05 429.68L546.02 428.07C546.31 427.45 546.61 426.83 546.92 426.22C549.17 421.76 551.89 417.57 555.02 413.64L543.66 386.95L565.57 371.26L587.21 390.63C592.55 388.71 598.08 387.41 603.73 386.75L614.63 359.94L641.24 364.33L642.81 393.32C647.97 395.73 652.8 398.73 657.23 402.28L683.95 390.94L699.64 412.87L680.27 434.45C682.21 439.81 683.51 445.37 684.13 451.04L711.04 461.87L706.63 488.46L677.66 490.04ZM640.07 438.68C628.88 423.06 607.13 419.44 591.49 430.65C575.87 441.84 572.25 463.59 583.46 479.21C594.64 494.85 616.4 498.45 632.04 487.26C647.66 476.08 651.28 454.32 640.07 438.68Z" />
		<path id="Path 14" class="shp7" d="M346.15 633.57L137 633.57C122.52 633.57 110.78 621.83 110.78 607.35L110.78 317.76C110.78 303.28 122.52 291.54 137 291.54L346.15 291.54C360.63 291.54 372.37 303.28 372.37 317.76L372.37 607.35C372.37 621.83 360.63 633.57 346.15 633.57Z" />
		<path id="Path 15" class="shp9" d="M346.15 633.57L137 633.57C122.52 633.57 110.78 621.83 110.78 607.35L110.78 317.76C110.78 303.28 122.52 291.54 137 291.54L346.15 291.54C360.63 291.54 372.37 303.28 372.37 317.76L372.37 607.35C372.37 621.83 360.63 633.57 346.15 633.57Z" />
		<path id="Path 16" class="shp4" d="M396.72 343.59L396.72 633.18C396.72 647.68 384.99 659.41 370.49 659.41L161.34 659.41C146.87 659.41 135.13 647.68 135.13 633.18L135.13 343.59C135.13 329.12 146.87 317.38 161.34 317.38L370.49 317.38C384.99 317.38 396.72 329.12 396.72 343.59Z" />
		<path id="Path 17" class="shp7" d="M396.72 343.59L396.72 359.1L135.13 359.1L135.13 343.59C135.13 329.12 146.87 317.38 161.34 317.38L370.49 317.38C384.99 317.38 396.72 329.12 396.72 343.59Z" />
		<path id="Path 18" class="shp0" d="M224.09 387.86L159.73 387.86L159.73 377.07L224.09 377.07L224.09 387.86ZM224.09 484.64L159.73 484.64L159.73 473.84L224.09 473.84L224.09 484.64ZM224.09 572.4L159.73 572.4L159.73 561.6L224.09 561.6L224.09 572.4Z" />
		<path id="Path 19" class="shp5" d="M342.52 411.71L159.73 411.71L159.73 403.79L342.52 403.79L342.52 411.71ZM309.56 426.66L159.73 426.66L159.73 418.95L309.56 418.95L309.56 426.66ZM329.18 441.56L159.73 441.56L159.73 433.84L329.18 433.84L329.18 441.56ZM329.18 456.44L159.73 456.44L159.73 448.73L329.18 448.73L329.18 456.44ZM342.52 499.47L159.73 499.47L159.73 491.55L342.52 491.55L342.52 499.47ZM309.56 514.42L159.73 514.42L159.73 506.71L309.56 506.71L309.56 514.42ZM329.18 529.32L159.73 529.32L159.73 521.6L329.18 521.6L329.18 529.32ZM342.52 595.84L159.73 595.84L159.73 587.92L342.52 587.92L342.52 595.84ZM309.56 610.79L159.73 610.79L159.73 603.08L309.56 603.08L309.56 610.79ZM329.18 625.69L159.73 625.69L159.73 617.98L329.18 617.98L329.18 625.69Z" />
		<path id="Path 20" class="shp10" d="M691.53 116.59L691.53 233.63C691.53 250.9 677.54 264.89 660.27 264.89L390.69 264.89C373.44 264.89 359.43 250.9 359.43 233.63L359.43 116.59C359.43 99.31 373.44 85.3 390.69 85.3L660.27 85.3C677.54 85.3 691.53 99.31 691.53 116.59Z" />
		<path id="Path 21" class="shp7" d="M691.53 116.59L691.53 119.26L359.43 119.26L359.43 116.59C359.43 99.31 373.44 85.3 390.69 85.3L660.27 85.3C677.54 85.3 691.53 99.31 691.53 116.59Z" />
		<path id="Path 22" class="shp5" d="M408.22 107.87C406.35 109.74 403.32 109.74 401.45 107.87C399.58 106 399.58 102.97 401.45 101.1C403.32 99.23 406.35 99.23 408.22 101.1C410.09 102.97 410.09 106 408.22 107.87ZM430.46 107.87C428.59 109.74 425.55 109.74 423.68 107.87C421.81 106 421.81 102.97 423.68 101.1C425.55 99.23 428.59 99.23 430.46 101.1C432.33 102.97 432.33 106 430.46 107.87ZM452.7 107.87C450.83 109.74 447.8 109.74 445.93 107.87C444.06 106 444.06 102.97 445.93 101.1C447.8 99.23 450.83 99.23 452.7 101.1C454.57 102.97 454.57 106 452.7 107.87Z" />
		<path id="Path 23" class="shp2" d="M489.16 234.62L380.61 234.62L380.61 140.78L489.16 140.78L489.16 234.62Z" />
		<path id="Path 24" class="shp5" d="M630.85 147.37L505.91 147.37L505.91 140.78L630.85 140.78L630.85 147.37ZM601.74 161.04L505.91 161.04L505.91 154.45L601.74 154.45L601.74 161.04ZM648.62 174.7L505.91 174.7L505.91 168.03L648.62 168.03L648.62 174.7ZM627.43 187.98L505.91 187.98L505.91 181.31L627.43 181.31L627.43 187.98Z" />
		<path id="Path 25" class="shp0" d="M533.73 796.93C533.73 796.93 475.72 813.57 467.63 816.43C460.26 819.04 440.29 826.03 425.31 823.87C423.83 823.65 422.4 823.34 421.03 822.94C405.85 818.42 399.04 814.21 397.05 804.65C395.04 795.08 402.61 788.08 409.89 783.58C417.17 779.08 456.66 774.38 456.66 774.38L466.19 777.19L466.22 777.19L533.73 796.93Z" />
		<path id="Path 26" class="shp11" d="M425.31 823.87C423.84 823.65 422.4 823.34 421.03 822.94C405.86 818.42 399.04 814.21 397.05 804.65C395.04 795.08 402.61 788.08 409.89 783.58C417.17 779.08 456.66 774.38 456.66 774.38L466.2 777.19C457.57 781.16 425.4 783.36 418.39 787.4C411.37 791.44 407.97 799.05 412.12 809.33C414.33 814.8 420.24 820.1 425.31 823.87Z" />
		<path id="Path 27" class="shp12" d="M525 799.29C525 799.29 481.44 810.58 464.17 817.81C446.9 825.03 413.94 828.19 402.2 813.29C390.46 798.39 400.85 785.58 412.59 782.73C424.32 779.88 448.06 775.37 461.02 777.17M426.19 823.08C426.19 823.08 404.02 810.92 411.38 793.89C416.81 781.32 446.38 784.04 461.02 777.17" />
		<path id="Path 28" class="shp0" d="M710.38 826.56C709.78 832.49 707.68 838.19 701.69 841.72C697.69 844.08 692 845.49 683.86 845.4C663.52 845.14 625.28 830.6 625.28 830.6L589.48 810.81L608.1 781.33L613.2 773.26L626.37 776.21C626.37 776.21 637.26 782.39 648.23 787.31C659.19 792.23 685.8 793.27 695.18 800.86C704.55 808.43 711.39 816.68 710.38 826.56Z" />
		<path id="Path 29" class="shp11" d="M710.38 826.56C709.78 832.49 707.68 838.19 701.69 841.72C702.81 837.1 703.74 830.73 700.67 823.85C696.7 814.87 683.66 806.95 666.54 805.62C649.44 804.3 636.31 796.29 629.45 792.72C624.09 789.94 612.8 783.87 608.1 781.33L613.2 773.26L626.37 776.21C626.37 776.21 637.26 782.39 648.23 787.31C659.19 792.23 685.8 793.27 695.18 800.86C704.55 808.43 711.39 816.68 710.38 826.56Z" />
		<path id="Path 30" class="shp12" d="M597.41 816.36C622.9 830.96 652.05 841.47 681.22 844.98C687.73 845.77 695.31 845.88 699.68 840.98C702.11 838.25 703 834.4 702.68 830.75C701.89 821.56 694.17 814.27 685.69 810.63C677.21 806.99 667.85 806.12 658.85 804.1C649.89 802.09 641.19 798.9 633.04 794.66C626.57 791.28 620.3 787.18 613.16 785.67C606.02 784.15 597.52 785.99 593.71 792.22M697.29 843.48C703.88 840.1 709.29 833.88 710.39 826.56C711.68 817.89 706.75 809.19 699.8 803.85C692.84 798.52 684.16 796.02 675.58 794.24C667 792.46 658.23 791.26 650.07 788.07C637.52 783.17 625.15 773.49 612.13 776.94" />
		<path id="Path 31" fill-rule="evenodd" class="shp0" d="M699.17 630.78C671.77 676.21 620.1 695.47 605.54 700.14C603.05 700.94 601.63 701.31 601.63 701.31C601.63 701.31 515.53 703.79 491.26 695.38C466.99 687 424.79 654.5 421.85 647.77C418.89 641.02 424.7 623.37 427.96 603.75C431.23 584.16 441.37 517.43 450.55 510.92C458.87 504.98 498.14 490.2 505.36 487.51C506.11 487.24 506.5 487.09 506.5 487.09C506.5 487.09 505.53 476.28 508.33 469.02C513.83 460.02 526.29 462.31 526.29 462.31C526.29 462.31 543.57 454.66 552.9 458.94C562.23 463.22 571.81 459.91 575.18 463.86C577.45 466.53 577.26 474.4 576.88 479.24C576.7 481.57 576.48 483.19 576.48 483.19L577.23 483.47L637.82 506.53C672.63 543.73 699.17 630.78 699.17 630.78ZM491.63 616.62L483.51 580.68L464.47 627.49L472.06 634.18C472.06 634.18 469.68 621.93 474.14 618.78C478.59 615.65 491.63 616.62 491.63 616.62ZM651.1 627.96C646.88 613.73 623.32 573.33 623.32 573.33L621.05 576.05C621.05 576.05 614.32 610.55 614.19 611.23L613.2 617.39C613.2 617.39 624.75 616.88 628.62 622C632.48 627.1 624.36 649.6 626.45 648.52C625.42 648.52 651.1 627.96 651.1 627.96Z" />
		<path id="Path 32" class="shp11" d="M523.43 360.51L492.16 393.71C492.16 393.71 487.85 397.52 489.56 407.15C491.28 416.78 495.27 425.05 498.28 425.69C501.3 426.33 505.52 426.34 505.52 426.34C505.52 426.34 512.22 440.86 516.97 446.57C516.97 446.57 518.63 468.98 517.74 475.2C517.74 475.2 528.98 485.02 539.56 486.26C550.14 487.51 566.49 471.3 566.49 471.3L570.54 451.45C570.54 451.45 580.13 436.89 580.79 433.02C581.44 429.14 585.82 430.13 587.98 428.22C590.13 426.31 595.12 417.76 595.95 409.68C596.77 401.6 596.83 392.32 587.44 395.04C579.31 392.86 584.4 375.66 584.4 375.66L570.11 363.05L523.43 360.51Z" />
		<path id="Path 33" class="shp3" d="M577.23 483.47C576.75 484.75 576.22 485.96 575.62 487.09C570.46 496.82 547.98 515.35 547.98 515.35L541.18 494.46L537.45 515.35C529.95 512.09 507.08 492.25 507.08 492.25C507.08 492.25 506.3 490.4 505.36 487.51C506.11 487.24 506.5 487.09 506.5 487.09C506.5 487.09 505.53 476.28 508.33 469.02C513.83 460.02 526.29 462.31 526.29 462.31C526.29 462.31 543.57 454.66 552.9 458.94C562.23 463.22 571.81 459.91 575.18 463.86C578.56 467.81 576.48 483.18 576.48 483.18L577.23 483.47Z" />
		<path id="Path 34" fill-rule="evenodd" class="shp9" d="M699.17 630.78C671.77 676.21 620.1 695.47 605.54 700.14L591.73 685.8L596.3 631.57L607.46 536.08C608.64 526.05 603.52 516.36 594.62 511.59C581.82 504.73 566.67 499.27 566.67 499.27L575.62 487.09L576.88 479.24C576.7 481.57 576.48 483.19 576.48 483.19L577.23 483.47L637.82 506.53C672.63 543.73 699.17 630.78 699.17 630.78ZM651.1 627.96C646.88 613.73 623.32 573.33 623.32 573.33L621.05 576.05C621.05 576.05 614.32 610.55 614.19 611.23L613.2 617.39C613.2 617.39 624.75 616.88 628.62 622C632.48 627.1 624.36 649.6 626.45 648.52C625.42 648.52 651.1 627.96 651.1 627.96ZM478.04 643.55L480.14 661.65C480.14 661.65 452.96 639.96 441.75 639.96C430.56 639.96 432.55 636.36 441.75 622C450.95 607.62 460.89 559.22 460.89 559.22L457.84 518.7C466.48 529.29 478.06 563.99 483.39 580.97L464.47 627.49L472.06 634.18C472.06 634.18 469.68 621.93 474.14 618.78C478.59 615.65 491.63 616.62 491.63 616.62L484.07 583.13C485.49 587.69 486.31 590.52 486.31 590.52L495.74 622L478.04 643.55ZM483.51 580.68L483.39 580.97C483.63 581.73 483.86 582.45 484.07 583.13L483.51 580.68Z" />
		<path id="Path 35" class="shp12" d="M516.97 446.57C516.97 446.57 518.71 463.54 516.97 471.3M568.22 469.03C568.22 469.03 568.12 460.75 570.1 452.81M572.76 373.16C572.76 373.16 583.04 386.07 582.51 395.81C581.98 405.56 581.19 417.14 581.46 428.47C581.72 439.79 563.28 463.49 553.8 465.6C544.32 467.71 536.16 468.23 530.1 462.18C524.05 456.12 517.99 447.69 510.09 436.9C502.19 426.1 504.03 402.4 504.03 402.4M548.04 411.43C547.42 414.97 547.15 418.57 547.24 422.16C547.32 425.17 547.77 428.42 549.88 430.57C551.01 431.73 552.66 432.65 552.88 434.26C553.07 435.69 551.98 436.98 550.76 437.76C549.56 438.53 548.15 439.01 547.07 439.96M531.73 441.21C531.73 441.21 532.92 448.86 543.19 450.46" />
		<path id="Path 36" class="shp5" d="M532.8 417.26C532.8 419.48 531.84 421.27 530.66 421.27C529.48 421.27 528.53 419.48 528.53 417.26C528.53 415.05 529.48 413.26 530.66 413.26C531.84 413.26 532.8 415.05 532.8 417.26ZM563.42 418.23C563.42 420.44 562.46 422.23 561.28 422.23C560.1 422.23 559.15 420.44 559.15 418.23C559.15 416.01 560.1 414.22 561.28 414.22C562.46 414.22 563.42 416.01 563.42 418.23Z" />
		<path id="Path 37" class="shp13" d="M557.24 408.53C557.24 408.53 567.2 398.57 575.62 409.68M536.18 408.72C536.18 408.72 529.87 401.64 519.91 408.72" />
		<path id="Path 38" class="shp5" d="M517.74 455.9C517.74 455.9 523.84 472.7 537.46 477.47C551.08 482.24 569.16 457.5 569.16 457.5L568.21 454.28C568.21 454.28 556.37 469.68 543.19 467.05C530 464.43 516.97 446.57 516.97 446.57L517.74 455.9Z" />
		<path id="Path 39" class="shp12" d="M505.52 425.69C505.52 425.69 497.41 428.56 495.25 422.23C493.09 415.91 485.69 399.26 492.16 393.71C498.64 388.16 503.84 401.03 503.84 401.03M581.44 429.14C581.44 429.14 588.98 430.66 591.15 424.33C593.3 418.01 600.7 401.35 594.23 395.8C587.75 390.25 582.55 403.13 582.55 403.13" />
		<path id="Path 40" class="shp5" d="M503.84 417.26C506.09 417.16 509.78 414.97 510.97 413.06C512.15 411.14 512.65 408.89 513.04 406.67C513.77 402.42 514.15 398.11 514.17 393.8C514.17 392.12 514.13 390.4 514.62 388.79C515.13 387.11 516.19 385.66 517.33 384.32C520.17 381 523.58 378.2 526.27 374.76C528.97 371.33 530.94 366.98 530.22 362.68C530.22 362.68 548.63 379.51 575.16 374.3C589.45 371.5 603.16 358.96 601.49 343.2C600.9 337.6 596.78 333.56 591.43 332.23C584.37 330.48 578.02 334.24 571.62 336.65C559.96 341.05 548.54 333.5 536.76 332.23C526.68 331.15 514.3 332.4 509.06 342.42C509.06 342.42 490.95 344.55 483.02 359.42C475.09 374.29 490.17 394.87 490.17 394.87C490.17 394.87 496.23 387.53 504.03 402.4L503.84 417.26ZM573.9 369.36C573.9 369.36 569.22 393.76 581.44 405.57C581.44 405.57 584.11 398.24 586.82 396.45C586.82 396.45 593.62 383.56 584.68 369.36C575.75 355.16 573.9 369.36 573.9 369.36Z" />
		<path id="Path 41" class="shp14" d="M596.28 341.6C594.48 348.32 588.79 353.52 582.34 356.15C565.38 363.06 548.91 355.4 531.93 353.9C518.05 352.67 502.75 365.17 501.79 379.42M491.25 375.66C491.51 364.45 498.92 353.71 509.32 349.5" />
		<path id="Path 42" class="shp12" d="M513.06 469.03C513.06 469.03 524.23 481.34 539.47 487.09C539.47 487.09 559.77 481.21 570.1 467.05M544.26 417.26C544.26 427.19 536.22 435.23 526.3 435.23C516.37 435.23 508.33 427.19 508.33 417.26C508.33 407.34 516.37 399.3 526.3 399.3C536.22 399.3 544.26 407.34 544.26 417.26ZM584.4 417.26C584.4 427.19 576.35 435.23 566.43 435.23C556.51 435.23 548.47 427.19 548.47 417.26C548.47 407.34 556.51 399.3 566.43 399.3C576.35 399.3 584.4 407.34 584.4 417.26ZM516.97 462.32C516.97 462.32 511.51 463.43 508.33 469.03C505.15 474.62 507.07 492.24 507.07 492.24C507.07 492.24 523.48 508.49 537.46 515.34L541.58 492.15L547.98 515.34C547.98 515.34 569.63 500.03 575.62 487.09C575.62 487.09 577.58 472.01 575.62 467.05C573.67 462.1 569.16 462.32 569.16 462.32M491.25 617.39C491.25 617.39 484.84 574.4 476.3 556.86M457.84 518.7C457.84 518.7 465.95 530.07 471.12 540.92M626.46 550.8C628.71 542.23 631.11 534.72 633.51 529.81M613.19 617.39C613.19 617.39 617.82 587.92 623.33 563.63M621.04 576.04C625.45 570.15 631.84 565.78 638.92 563.81M576.49 483.18C576.49 483.18 613.77 498.07 637.83 506.53C637.83 506.53 667.43 534.37 699.16 630.78C699.16 630.78 670.07 679.7 614.76 695.39M624.37 650.27L651.09 627.96C651.09 627.96 665.23 617.21 679.93 624.56M623.33 573.34C623.33 573.34 645.44 605.9 651.09 627.96M472.3 635.41L464.48 627.95C464.48 627.95 452.87 625.93 439.72 634.74M464.48 627.95C464.48 627.95 474.19 596.05 483.78 579.57M506.49 487.09C506.49 487.09 452.87 507.21 447.61 513.07C442.36 518.93 422.37 631.47 421.85 644.35C421.38 655.86 463.14 681.72 483.78 692.63" />
		<path id="Path 43" class="shp4" d="M700.62 469.03L639.52 469.03C632.3 469.03 626.45 463.18 626.45 455.96L626.45 420.12C626.45 412.9 632.3 407.05 639.52 407.05L700.62 407.05C707.83 407.05 713.68 412.9 713.68 420.12L713.68 455.96C713.68 463.18 707.83 469.03 700.62 469.03Z" />
		<path id="Path 44" class="shp12" d="M654.6 425.69L637.83 436.22L653.39 450.03M685.16 451.03L700.24 438.18L682.84 426.78M662.75 458.93L675.14 420.11" />
		<path id="Path 45" class="shp5" d="M546.59 525.11C546.59 527.06 545.01 528.64 543.06 528.64C541.12 528.64 539.54 527.06 539.54 525.11C539.54 523.16 541.12 521.59 543.06 521.59C545.01 521.59 546.59 523.16 546.59 525.11ZM608.64 713.55L486.6 713.55C485.02 713.55 483.74 712.27 483.74 710.69C483.74 709.11 485.02 707.83 486.6 707.83L608.64 707.83C610.22 707.83 611.5 709.11 611.5 710.69C611.5 712.27 610.22 713.55 608.64 713.55Z" />
		<path id="Path 46" class="shp4" d="M612.91 704.07L629.27 627.27C630.35 622.19 626.47 617.39 621.27 617.39L478.69 617.39C473.54 617.39 469.67 622.1 470.67 627.15L485.33 701.39C486.08 705.15 489.33 707.89 493.16 707.98L604.73 710.53C608.66 710.62 612.09 707.91 612.91 704.07Z" />
		<path id="Path 47" class="shp5" d="M560.88 661.65C560.88 667.94 555.78 673.03 549.49 673.03C543.21 673.03 538.11 667.94 538.11 661.65C538.11 655.36 543.21 650.27 549.49 650.27C555.78 650.27 560.88 655.36 560.88 661.65Z" />
		<path id="Path 48" class="shp12" d="M583.25 624.68L600.19 624.68M502.35 624.68L566.66 624.68" />
		<path id="Path 49" class="shp5" d="M613.19 785.54L600.19 819.66C600.19 819.66 567.05 811.3 524.58 802.6C480.17 793.5 433.79 781.72 409.73 739.51C406.79 734.36 404.84 728.28 406.22 722.52C409.69 707.94 428.65 703.98 441.16 702.52C449 701.61 456.92 701.3 464.82 701.19C468.84 701.14 482.12 699.03 485.33 701.39C485.33 701.39 493.67 707.52 500.77 710.54C507.87 713.55 611.5 707.83 611.5 707.83C611.5 707.83 614.58 701.32 614.76 695.39C631.05 687.11 668.77 680.09 684.71 683.19C709.78 688.07 724.4 702.69 721.61 718C718.83 733.32 663.52 774.4 613.19 785.54Z" />
		<path id="Path 50" class="shp14" d="M613.19 785.54C613.19 785.54 581.67 777.18 555.91 759.78C530.15 742.37 510.02 722.18 474.13 726.36M549.98 755.67C566.25 750.99 578.19 740.47 591.25 730.36C605.08 719.65 619.71 709.28 635.44 701.32" />
		<path id="Path 51" class="shp12" d="M544.26 420.11L549.03 420.11" />
	</g>
</svg>