<svg xmlns="http://www.w3.org/2000/svg" viewBox="0 0 103 137" width="103" height="137">
	<defs>
		<clipPath clipPathUnits="userSpaceOnUse" id="cp1">
			<path d="M-792 -322L875 -322L875 1345L-792 1345Z" />
		</clipPath>
	</defs>
	<style>
		tspan { white-space:pre }
		.shp0 { fill: #3cb6e6 } 
		.shp1 { fill: #0c0c0c } 
		.shp2 { fill: #ffc951 } 
		.shp3 { fill: #fbb364 } 
		.shp4 { fill: #fff8d5 } 
	</style>
	<g id="Page 1" clip-path="url(#cp1)">
		<path id="Path 336" class="shp0" d="M21.64 7.31C40.63 -3.65 64.91 2.85 75.88 21.85C86.85 40.82 80.34 65.12 61.34 76.08C42.35 87.04 18.07 80.53 7.1 61.55C-3.85 42.56 2.65 18.28 21.64 7.31Z" />
		<path id="Path 337" fill-rule="evenodd" class="shp1" d="M41.53 82.76C26.88 82.76 13.25 74.89 5.93 62.23C-5.38 42.62 1.36 17.46 20.96 6.14C27.2 2.54 34.29 0.63 41.46 0.63C56.1 0.63 69.74 8.5 77.05 21.17C82.54 30.66 84 41.72 81.16 52.32C78.32 62.92 71.52 71.77 62.02 77.25C55.78 80.85 48.69 82.76 41.53 82.76ZM41.46 3.34C34.76 3.34 28.15 5.12 22.32 8.49C4.01 19.06 -2.29 42.56 8.28 60.88C15.11 72.7 27.85 80.05 41.53 80.05C48.22 80.05 54.84 78.27 60.67 74.9C69.54 69.79 75.89 61.52 78.54 51.62C81.19 41.72 79.83 31.39 74.71 22.53C67.87 10.69 55.13 3.34 41.46 3.34Z" />
		<path id="Path 338" class="shp2" d="M66.22 72.76L74.7 87.46L64.52 93.35L56.03 78.65C57.84 77.94 59.61 77.08 61.34 76.08C63.07 75.08 64.71 73.97 66.22 72.76Z" />
		<path id="Path 339" fill-rule="evenodd" class="shp1" d="M64.52 94.7C64.4 94.7 64.29 94.69 64.17 94.66C63.82 94.57 63.53 94.34 63.35 94.03L54.86 79.32C54.66 78.98 54.62 78.57 54.75 78.2C54.88 77.82 55.17 77.53 55.54 77.38C57.26 76.71 58.99 75.88 60.66 74.91C62.35 73.94 63.93 72.86 65.37 71.7C65.68 71.46 66.09 71.35 66.47 71.43C66.86 71.5 67.2 71.74 67.4 72.08L75.87 86.79C76.25 87.43 76.02 88.26 75.38 88.63L65.2 94.52C64.99 94.64 64.76 94.7 64.52 94.7ZM57.97 79.31L65.02 91.5L72.85 86.97L65.82 74.77C64.62 75.66 63.35 76.49 62.02 77.25C60.7 78.02 59.34 78.71 57.97 79.31Z" />
		<path id="Path 340" class="shp3" d="M94.44 133.4C100.56 129.85 102.68 121.95 99.15 115.81L80.76 83.98L58.47 96.83L76.85 128.69C80.39 134.81 88.3 136.93 94.44 133.4Z" />
		<path id="Path 341" fill-rule="evenodd" class="shp1" d="M88.04 136.46C82.94 136.46 78.21 133.74 75.68 129.36L57.29 97.51C57.11 97.2 57.06 96.83 57.16 96.48C57.25 96.14 57.48 95.84 57.79 95.66L80.09 82.81C80.73 82.43 81.56 82.66 81.93 83.3L100.32 115.14C104.23 121.92 101.89 130.64 95.11 134.57C92.96 135.81 90.51 136.46 88.04 136.46ZM60.31 97.33L78.02 128.01C80.07 131.55 83.91 133.75 88.04 133.75C90.04 133.75 92.02 133.22 93.76 132.22C99.25 129.04 101.14 121.99 97.97 116.49L80.27 85.83L60.31 97.33Z" />
		<path id="Path 342" class="shp4" d="M83.96 115.26C86.43 113.82 89.57 114.67 90.99 117.15C92.42 119.6 91.57 122.74 89.11 124.18C86.65 125.59 83.5 124.75 82.07 122.29C80.66 119.82 81.5 116.67 83.96 115.26Z" />
		<path id="Path 343" fill-rule="evenodd" class="shp1" d="M86.55 126.22C84.23 126.22 82.07 124.97 80.9 122.97C79.11 119.85 80.19 115.86 83.28 114.08C84.27 113.51 85.4 113.21 86.54 113.21C88.86 113.21 91.01 114.46 92.16 116.47C93.03 117.96 93.26 119.7 92.82 121.38C92.37 123.06 91.3 124.47 89.79 125.35C88.8 125.92 87.68 126.22 86.55 126.22ZM86.54 115.91C85.87 115.91 85.22 116.09 84.64 116.43C82.83 117.47 82.2 119.8 83.25 121.62C84.25 123.34 86.68 124.01 88.43 123C89.31 122.49 89.94 121.67 90.2 120.69C90.46 119.71 90.32 118.7 89.82 117.83C89.14 116.64 87.89 115.91 86.54 115.91ZM21 44.22L23.82 43.95C24.01 44.9 24.35 45.59 24.87 46.04C25.39 46.48 26.08 46.71 26.97 46.71C27.9 46.71 28.6 46.51 29.07 46.11C29.54 45.72 29.78 45.25 29.78 44.73C29.78 44.37 29.7 44.09 29.49 43.85C29.29 43.62 28.94 43.4 28.45 43.23C28.11 43.12 27.34 42.9 26.13 42.61C24.58 42.2 23.49 41.74 22.87 41.18C21.97 40.37 21.53 39.4 21.53 38.26C21.53 37.53 21.74 36.84 22.16 36.2C22.58 35.56 23.17 35.07 23.96 34.73C24.73 34.4 25.67 34.23 26.77 34.23C28.59 34.23 29.93 34.64 30.86 35.43C31.76 36.24 32.24 37.29 32.29 38.64L29.36 38.74C29.24 38 28.97 37.46 28.57 37.14C28.17 36.8 27.56 36.64 26.75 36.64C25.89 36.64 25.25 36.82 24.78 37.16C24.46 37.39 24.31 37.7 24.31 38.07C24.31 38.4 24.46 38.71 24.75 38.94C25.12 39.26 26 39.58 27.41 39.92C28.82 40.24 29.86 40.59 30.54 40.95C31.21 41.31 31.75 41.79 32.14 42.41C32.51 43.03 32.7 43.8 32.7 44.71C32.7 45.54 32.49 46.31 32.02 47.04C31.56 47.76 30.91 48.3 30.07 48.63C29.24 48.99 28.18 49.15 26.94 49.15C25.12 49.15 23.72 48.75 22.75 47.91C21.77 47.07 21.19 45.84 21 44.22ZM35.18 48.9L35.18 34.48L45.85 34.48L45.85 36.92L38.09 36.92L38.09 40.12L45.31 40.12L45.31 42.56L38.09 42.56L38.09 46.46L46.14 46.46L46.14 48.9L35.18 48.9ZM48 41.79C48 40.32 48.22 39.08 48.66 38.08C48.99 37.34 49.43 36.69 50 36.1C50.57 35.51 51.2 35.09 51.87 34.8C52.76 34.42 53.81 34.23 54.99 34.23C57.1 34.23 58.8 34.89 60.08 36.2C61.36 37.53 62 39.36 62 41.72C62 44.04 61.36 45.88 60.1 47.19C58.84 48.5 57.14 49.15 55.02 49.15C52.88 49.15 51.16 48.51 49.9 47.2C48.64 45.89 48 44.09 48 41.79ZM51 41.68C51 43.32 51.38 44.56 52.14 45.4C52.9 46.25 53.85 46.66 55.02 46.66C56.18 46.66 57.12 46.25 57.88 45.42C58.62 44.58 58.99 43.32 58.99 41.65C58.99 39.99 58.64 38.76 57.9 37.95C57.17 37.12 56.21 36.72 55.02 36.72C53.81 36.72 52.84 37.14 52.11 37.97C51.37 38.79 51 40.02 51 41.68Z" />
	</g>
</svg>