<svg xmlns="http://www.w3.org/2000/svg" viewBox="0 0 176 148" width="176" height="148">
	<defs>
		<clipPath clipPathUnits="userSpaceOnUse" id="cp1">
			<path d="M-480 -844L1187 -844L1187 823L-480 823Z" />
		</clipPath>
	</defs>
	<style>
		tspan { white-space:pre }
		.shp0 { fill: #3cb6e6 } 
		.shp1 { fill: #0c0c0c } 
		.shp2 { fill: #90e2f9 } 
		.shp3 { fill: #ffc951 } 
	</style>
	<g id="Page 1" clip-path="url(#cp1)">
		<path id="Path 229" class="shp0" d="M21.43 34.25L21.43 1.61L163.75 1.61L163.75 111.84L143.31 111.84" />
		<path id="Path 230" class="shp1" d="M163.75 113.19L143.31 113.19C142.56 113.19 141.96 112.59 141.96 111.84C141.96 111.09 142.56 110.48 143.31 110.48L162.4 110.48L162.4 2.96L22.78 2.96L22.78 34.25C22.78 35 22.18 35.6 21.43 35.6C20.68 35.6 20.08 35 20.08 34.25L20.08 1.61C20.08 0.86 20.68 0.25 21.43 0.25L163.75 0.25C164.5 0.25 165.1 0.86 165.1 1.61L165.1 111.84C165.1 112.59 164.5 113.19 163.75 113.19Z" />
		<path id="Path 231" class="shp2" d="M1.57 145.75L1.57 35.52L143.87 35.52L143.87 145.75L1.57 145.75Z" />
		<path id="Path 232" fill-rule="evenodd" class="shp1" d="M143.87 147.11L1.57 147.11C0.82 147.11 0.21 146.5 0.21 145.75L0.21 35.52C0.21 34.77 0.82 34.16 1.57 34.16L143.87 34.16C144.61 34.16 145.22 34.77 145.22 35.52L145.22 145.75C145.22 146.5 144.61 147.11 143.87 147.11ZM2.92 144.4L142.51 144.4L142.51 61.26L54.14 61.26C53.88 61.26 53.63 61.19 53.41 61.05L42.67 54.12L2.92 54.12L2.92 144.4ZM142.51 36.87L2.92 36.87L2.92 51.41L43.07 51.41C43.33 51.41 43.59 51.49 43.81 51.63L54.54 58.55L142.51 58.55L142.51 36.87ZM120.97 49.78L116.09 49.78C115.34 49.78 114.74 49.17 114.74 48.42C114.74 47.67 115.34 47.07 116.09 47.07L120.97 47.07C121.71 47.07 122.32 47.67 122.32 48.42C122.32 49.17 121.71 49.78 120.97 49.78ZM129.15 49.78L124.27 49.78C123.52 49.78 122.92 49.17 122.92 48.42C122.92 47.67 123.52 47.07 124.27 47.07L129.15 47.07C129.9 47.07 130.51 47.67 130.51 48.42C130.51 49.17 129.9 49.78 129.15 49.78ZM137.32 49.78L132.44 49.78C131.69 49.78 131.08 49.17 131.08 48.42C131.08 47.67 131.69 47.07 132.44 47.07L137.32 47.07C138.07 47.07 138.67 47.67 138.67 48.42C138.67 49.17 138.07 49.78 137.32 49.78ZM162.72 27.33L74.01 27.33C73.75 27.33 73.5 27.25 73.28 27.11L62.56 20.21L22.71 20.21C21.96 20.21 21.35 19.6 21.35 18.85C21.35 18.1 21.96 17.5 22.71 17.5L62.95 17.5C63.21 17.5 63.47 17.57 63.69 17.71L74.41 24.62L162.72 24.62C163.47 24.62 164.08 25.22 164.08 25.98C164.08 26.72 163.47 27.33 162.72 27.33ZM140.85 15.86L135.95 15.86C135.2 15.86 134.6 15.25 134.6 14.51C134.6 13.76 135.2 13.15 135.95 13.15L140.85 13.15C141.6 13.15 142.21 13.76 142.21 14.51C142.21 15.25 141.6 15.86 140.85 15.86ZM149.02 15.86L144.14 15.86C143.39 15.86 142.78 15.25 142.78 14.51C142.78 13.76 143.39 13.15 144.14 13.15L149.02 13.15C149.77 13.15 150.37 13.76 150.37 14.51C150.37 15.25 149.77 15.86 149.02 15.86ZM157.2 15.86L152.32 15.86C151.57 15.86 150.96 15.25 150.96 14.51C150.96 13.76 151.57 13.15 152.32 13.15L157.2 13.15C157.95 13.15 158.55 13.76 158.55 14.51C158.55 15.25 157.95 15.86 157.2 15.86Z" />
		<path id="Path 233" class="shp3" d="M29.72 120.6C31.69 120.6 33.31 122.21 33.31 124.2C33.31 126.17 31.69 127.79 29.72 127.79C27.73 127.79 26.12 126.17 26.12 124.2C26.12 122.21 27.73 120.6 29.72 120.6Z" />
		<path id="Path 234" fill-rule="evenodd" class="shp1" d="M29.72 129.15C26.99 129.15 24.76 126.93 24.76 124.2C24.76 121.47 26.99 119.24 29.72 119.24C32.45 119.24 34.67 121.47 34.67 124.2C34.67 126.93 32.45 129.15 29.72 129.15ZM29.72 121.95C28.48 121.95 27.47 122.96 27.47 124.2C27.47 125.44 28.48 126.44 29.72 126.44C30.95 126.44 31.96 125.44 31.96 124.2C31.96 122.96 30.95 121.95 29.72 121.95Z" />
		<path id="Path 235" class="shp3" d="M40.79 92.31C42.79 92.31 44.38 93.93 44.38 95.92C44.38 97.9 42.79 99.51 40.79 99.51C38.8 99.51 37.19 97.9 37.19 95.92C37.19 93.93 38.8 92.31 40.79 92.31Z" />
		<path id="Path 236" fill-rule="evenodd" class="shp1" d="M40.79 100.86C38.06 100.86 35.84 98.65 35.84 95.92C35.84 93.19 38.06 90.96 40.79 90.96C43.52 90.96 45.74 93.19 45.74 95.92C45.74 98.65 43.52 100.86 40.79 100.86ZM40.79 93.67C39.55 93.67 38.54 94.68 38.54 95.92C38.54 97.15 39.55 98.15 40.79 98.15C42.03 98.15 43.03 97.15 43.03 95.92C43.03 94.68 42.03 93.67 40.79 93.67Z" />
		<path id="Path 237" class="shp3" d="M69.2 102.61C71.17 102.61 72.8 104.23 72.8 106.2C72.8 108.2 71.17 109.81 69.2 109.81C67.21 109.81 65.6 108.2 65.6 106.2C65.6 104.23 67.21 102.61 69.2 102.61Z" />
		<path id="Path 238" fill-rule="evenodd" class="shp1" d="M69.2 111.16C66.46 111.16 64.24 108.94 64.24 106.2C64.24 103.48 66.46 101.26 69.2 101.26C71.93 101.26 74.16 103.48 74.16 106.2C74.16 108.94 71.93 111.16 69.2 111.16ZM69.2 103.97C67.96 103.97 66.95 104.97 66.95 106.2C66.95 107.45 67.96 108.46 69.2 108.46C70.44 108.46 71.45 107.45 71.45 106.2C71.45 104.97 70.44 103.97 69.2 103.97Z" />
		<path id="Path 239" class="shp3" d="M78.38 73.47C80.38 73.47 81.99 75.09 81.99 77.06C81.99 79.05 80.38 80.67 78.38 80.67C76.4 80.67 74.8 79.05 74.8 77.06C74.8 75.09 76.4 73.47 78.38 73.47Z" />
		<path id="Path 240" fill-rule="evenodd" class="shp1" d="M78.38 82.02C75.66 82.02 73.44 79.8 73.44 77.06C73.44 74.34 75.66 72.12 78.38 72.12C81.12 72.12 83.35 74.34 83.35 77.06C83.35 79.8 81.12 82.02 78.38 82.02ZM78.38 74.83C77.15 74.83 76.15 75.83 76.15 77.06C76.15 78.3 77.15 79.31 78.38 79.31C79.63 79.31 80.64 78.3 80.64 77.06C80.64 75.83 79.63 74.83 78.38 74.83Z" />
		<path id="Path 241" class="shp3" d="M101.75 91.56C103.72 91.56 105.34 93.18 105.34 95.17C105.34 97.14 103.72 98.76 101.75 98.76C99.76 98.76 98.14 97.14 98.14 95.17C98.14 93.18 99.76 91.56 101.75 91.56Z" />
		<path id="Path 242" fill-rule="evenodd" class="shp1" d="M101.75 100.11C99.01 100.11 96.79 97.89 96.79 95.17C96.79 92.43 99.01 90.21 101.75 90.21C104.48 90.21 106.7 92.43 106.7 95.17C106.7 97.89 104.48 100.11 101.75 100.11ZM101.75 92.92C100.51 92.92 99.5 93.92 99.5 95.17C99.5 96.4 100.51 97.4 101.75 97.4C102.98 97.4 103.99 96.4 103.99 95.17C103.99 93.92 102.98 92.92 101.75 92.92Z" />
		<path id="Path 243" class="shp3" d="M125.9 69.13C127.88 69.13 129.5 70.72 129.5 72.72C129.5 74.71 127.88 76.33 125.9 76.33C123.91 76.33 122.3 74.71 122.3 72.72C122.3 70.72 123.91 69.13 125.9 69.13Z" />
		<path id="Path 244" fill-rule="evenodd" class="shp1" d="M125.9 77.69C124.96 77.69 124.08 77.42 123.33 76.97L105.29 93.7C105.03 93.95 104.7 94.07 104.37 94.07C104 94.07 103.64 93.92 103.38 93.63C102.87 93.09 102.9 92.23 103.45 91.72L121.49 74.98C121.14 74.3 120.94 73.54 120.94 72.72C120.94 70 123.17 67.77 125.9 67.77C128.63 67.77 130.85 70 130.85 72.72C130.85 75.46 128.63 77.69 125.9 77.69ZM125.9 70.49C124.66 70.49 123.65 71.49 123.65 72.72C123.65 73.29 123.86 73.8 124.2 74.2C124.22 74.22 124.24 74.24 124.26 74.26C124.28 74.28 124.29 74.3 124.31 74.31C124.72 74.72 125.28 74.97 125.9 74.97C127.14 74.97 128.14 73.96 128.14 72.72C128.14 71.49 127.14 70.49 125.9 70.49ZM98.9 94.32C98.61 94.32 98.32 94.22 98.07 94.03L80.39 80.34C79.8 79.88 79.69 79.03 80.15 78.44C80.61 77.85 81.46 77.74 82.05 78.2L99.73 91.89C100.32 92.35 100.42 93.2 99.97 93.79C99.7 94.14 99.3 94.32 98.9 94.32ZM70.28 104.13C70.14 104.13 70 104.11 69.87 104.07C69.16 103.85 68.76 103.08 68.99 102.37L76.02 80.1C76.25 79.39 77 78.99 77.72 79.22C78.43 79.45 78.83 80.21 78.6 80.92L71.57 103.19C71.39 103.76 70.85 104.13 70.28 104.13ZM65.81 106.34C65.65 106.34 65.5 106.31 65.35 106.26L43.72 98.41C43.02 98.16 42.66 97.38 42.91 96.68C43.17 95.97 43.95 95.61 44.65 95.87L66.27 103.71C66.97 103.96 67.34 104.74 67.08 105.44C66.88 106 66.36 106.34 65.81 106.34ZM31.03 122.2C30.87 122.2 30.7 122.17 30.54 122.11C29.84 121.84 29.5 121.05 29.77 120.35L38.22 98.77C38.5 98.07 39.29 97.73 39.98 98C40.67 98.27 41.02 99.06 40.75 99.76L32.29 121.34C32.08 121.87 31.57 122.2 31.03 122.2ZM15.44 47.25L10.81 47.25C10.06 47.25 9.45 46.64 9.45 45.89L9.45 41.26C9.45 40.51 10.06 39.91 10.81 39.91L15.44 39.91C16.19 39.91 16.79 40.51 16.79 41.26L16.79 45.89C16.79 46.64 16.19 47.25 15.44 47.25ZM12.16 44.54L14.08 44.54L14.08 42.62L12.16 42.62L12.16 44.54Z" />
		<path id="Path 245" fill-rule="evenodd" class="shp1" d="M28.2 47.25L23.57 47.25C22.82 47.25 22.21 46.64 22.21 45.89L22.21 41.26C22.21 40.51 22.82 39.91 23.57 39.91L28.2 39.91C28.94 39.91 29.55 40.51 29.55 41.26L29.55 45.89C29.55 46.64 28.94 47.25 28.2 47.25ZM24.92 44.54L26.84 44.54L26.84 42.62L24.92 42.62L24.92 44.54ZM34.78 13.67L30.17 13.67C29.42 13.67 28.81 13.07 28.81 12.32L28.81 7.69C28.81 6.94 29.42 6.33 30.17 6.33L34.78 6.33C35.53 6.33 36.14 6.94 36.14 7.69L36.14 12.32C36.14 13.07 35.53 13.67 34.78 13.67ZM31.52 10.96L33.43 10.96L33.43 9.04L31.52 9.04L31.52 10.96ZM47.56 13.67L42.93 13.67C42.18 13.67 41.57 13.07 41.57 12.32L41.57 7.69C41.57 6.94 42.18 6.33 42.93 6.33L47.56 6.33C48.3 6.33 48.91 6.94 48.91 7.69L48.91 12.32C48.91 13.07 48.3 13.67 47.56 13.67ZM44.28 10.96L46.2 10.96L46.2 9.04L44.28 9.04L44.28 10.96Z" />
		<path id="Path 248" class="shp0" d="M128.84 13.43C154.01 13.43 174.43 33.86 174.43 59.05C174.43 84.23 154.01 104.65 128.84 104.65C103.64 104.65 83.22 84.23 83.22 59.05C83.22 33.86 103.64 13.43 128.84 13.43Z" />
		<path id="Path 249" fill-rule="evenodd" class="shp1" d="M128.84 106.01C102.94 106.01 81.86 84.94 81.86 59.05C81.86 33.15 102.94 12.08 128.84 12.08C154.72 12.08 175.79 33.15 175.79 59.05C175.79 84.94 154.72 106.01 128.84 106.01ZM128.84 14.79C104.43 14.79 84.57 34.65 84.57 59.05C84.57 83.45 104.43 103.3 128.84 103.3C153.23 103.3 173.08 83.45 173.08 59.05C173.08 34.65 153.23 14.79 128.84 14.79Z" />
		<path id="Path 250" class="shp2" d="M128.81 13.43C137 13.43 144.2 21.66 148.36 34.08C148.63 34.93 148.92 35.79 149.18 36.7C137.16 38.91 125.17 39.16 113.15 37.43C125.17 39.16 137.16 38.91 149.18 36.7C137.16 38.91 125.17 39.16 113.15 37.43C113.21 37.19 113.23 36.92 113.23 36.66C113.23 34.57 111.85 32.79 109.97 32.16C114.21 20.83 121.07 13.43 128.81 13.43ZM113.15 37.43C125.17 39.16 137.16 38.91 149.18 36.7C151.08 43.29 152.17 50.93 152.17 59.05C152.17 65 151.59 70.67 150.52 75.9C150.17 75.81 149.8 75.77 149.42 75.77C146.79 75.77 144.68 77.9 144.68 80.51C144.68 82.63 146.1 84.42 148.01 85.02C143.8 96.89 136.77 104.65 128.81 104.65C120.88 104.65 113.87 96.91 109.66 85.06C111.33 84.53 112.61 83.08 112.91 81.3C113.36 78.42 111.16 75.79 108.22 75.79C107.85 75.79 107.47 75.83 107.14 75.92C106.06 70.69 105.48 65.02 105.48 59.05C105.48 52.74 106.14 46.72 107.32 41.25C107.7 41.34 108.07 41.4 108.49 41.4C110.84 41.4 112.8 39.69 113.15 37.43Z" />
		<path id="Path 251" fill-rule="evenodd" class="shp1" d="M128.81 106.01C120.58 106.01 112.94 98.35 108.38 85.51C108.26 85.17 108.28 84.79 108.44 84.46C108.61 84.13 108.9 83.88 109.25 83.77C110.45 83.39 111.36 82.33 111.57 81.07C111.73 80.09 111.44 79.09 110.79 78.32C110.14 77.56 109.23 77.14 108.22 77.14C107.94 77.14 107.69 77.17 107.5 77.22C107.14 77.32 106.75 77.27 106.43 77.08C106.11 76.88 105.88 76.56 105.81 76.19C104.78 71.16 104.21 65.85 104.13 60.41L83.22 60.41C82.47 60.41 81.86 59.8 81.86 59.05C81.86 58.3 82.47 57.7 83.22 57.7L104.13 57.7C104.22 51.91 104.85 46.29 106 40.96C106.08 40.6 106.3 40.29 106.61 40.09C106.93 39.9 107.31 39.84 107.66 39.94C109.68 40.45 111.51 39.13 111.81 37.22C111.82 37.19 111.83 37.15 111.84 37.11C111.86 37 111.87 36.85 111.87 36.66C111.87 35.22 110.92 33.9 109.55 33.45C109.2 33.34 108.91 33.08 108.75 32.75C108.59 32.42 108.57 32.04 108.7 31.69C113.36 19.23 120.69 12.08 128.81 12.08C128.82 12.08 128.83 12.08 128.83 12.08C128.83 12.08 128.84 12.08 128.84 12.08C128.84 12.08 128.84 12.08 128.85 12.08C137.36 12.1 145.13 20.16 149.64 33.65C149.95 34.61 150.22 35.43 150.47 36.3C150.48 36.31 150.48 36.32 150.49 36.34C152.36 42.85 153.4 50.21 153.51 57.7L174.43 57.7C175.18 57.7 175.79 58.3 175.79 59.05C175.79 59.8 175.18 60.41 174.43 60.41L153.51 60.41C153.43 65.85 152.87 71.15 151.84 76.17C151.77 76.54 151.54 76.86 151.22 77.06C150.9 77.26 150.51 77.3 150.15 77.21C149.96 77.15 149.71 77.13 149.42 77.13C147.56 77.13 146.04 78.64 146.04 80.51C146.04 81.99 147 83.28 148.42 83.73C148.77 83.84 149.06 84.09 149.23 84.42C149.39 84.75 149.41 85.13 149.29 85.47C144.73 98.31 137.09 105.99 128.85 106.01C128.84 106.01 128.84 106.01 128.84 106.01C128.84 106.01 128.83 106.01 128.83 106.01C128.83 106.01 128.82 106.01 128.81 106.01ZM111.36 85.76C115.27 96.05 121.17 102.42 127.48 103.21L127.48 60.41L106.84 60.41C106.92 65.23 107.38 69.94 108.22 74.44C110 74.44 111.69 75.21 112.85 76.56C114.01 77.93 114.53 79.73 114.25 81.51C113.95 83.3 112.86 84.85 111.36 85.76ZM146.31 85.74C144.49 84.66 143.33 82.69 143.33 80.51C143.33 77.15 146.06 74.42 149.42 74.42L149.43 74.42C150.27 69.93 150.73 65.23 150.8 60.41L130.19 60.41L130.19 103.21C136.5 102.4 142.41 96.02 146.31 85.74ZM148.21 38.25C142.22 39.29 136.17 39.84 130.19 39.91L130.19 57.7L150.8 57.7C150.7 50.9 149.81 44.23 148.21 38.25ZM114.14 38.93C113.24 41.21 111.04 42.75 108.49 42.75C108.46 42.75 108.42 42.75 108.39 42.75C107.44 47.53 106.92 52.55 106.84 57.7L127.48 57.7L127.48 39.91C123.05 39.85 118.57 39.52 114.14 38.93ZM147.44 35.63C147.33 35.3 147.22 34.96 147.11 34.64C143.2 22.95 136.96 15.74 130.19 14.88L130.19 37.2C135.91 37.14 141.7 36.61 147.44 35.63ZM111.69 31.48C113.35 32.5 114.44 34.27 114.57 36.26C115.05 36.32 115.53 36.38 116.01 36.44C119.87 36.9 123.69 37.15 127.48 37.2L127.48 14.87C121.38 15.65 115.59 21.71 111.69 31.48Z" />
		<path id="Path 252" fill-rule="evenodd" class="shp1" d="M108.49 42.75C105.16 42.75 102.45 40.07 102.4 36.76C98.81 35.91 95.13 34.86 91.44 33.62C90.73 33.38 90.34 32.62 90.58 31.91C90.82 31.2 91.59 30.81 92.3 31.05C95.89 32.25 99.46 33.28 102.95 34.1C103.91 32 106.07 30.56 108.49 30.56C111.71 30.56 114.36 33.08 114.57 36.26C131.5 38.5 148.58 36.75 165.35 31.05C166.06 30.82 166.82 31.19 167.07 31.9C167.31 32.61 166.93 33.38 166.22 33.62C149.03 39.46 131.52 41.24 114.15 38.94C113.28 41.18 111.06 42.75 108.49 42.75ZM105.16 36.01C105.12 36.21 105.1 36.4 105.1 36.66C105.1 38.52 106.62 40.04 108.49 40.04C110.16 40.04 111.55 38.86 111.81 37.22C111.82 37.19 111.83 37.15 111.84 37.12C111.86 36.96 111.87 36.82 111.87 36.66C111.87 34.79 110.35 33.27 108.49 33.27C106.88 33.27 105.49 34.41 105.17 35.97C105.17 35.98 105.17 35.99 105.16 36C105.16 36 105.16 36.01 105.16 36.01ZM112.89 81.11C112.23 81.11 111.65 80.63 111.55 79.95C111.44 79.21 111.95 78.52 112.69 78.42C123.41 76.84 134.26 76.83 144.96 78.38C145.7 78.49 146.21 79.17 146.1 79.91C145.99 80.65 145.31 81.15 144.57 81.06C134.13 79.55 123.54 79.56 113.09 81.1C113.02 81.11 112.95 81.11 112.89 81.11ZM165.78 86.17C165.64 86.17 165.5 86.15 165.35 86.1C161.2 84.71 157.41 83.63 153.77 82.81C153.04 82.64 152.58 81.92 152.75 81.19C152.91 80.46 153.63 80 154.37 80.17C158.1 81.01 161.97 82.11 166.21 83.53C166.92 83.77 167.31 84.54 167.07 85.25C166.88 85.81 166.35 86.17 165.78 86.17ZM91.87 86.17C91.3 86.17 90.77 85.81 90.58 85.25C90.34 84.54 90.72 83.77 91.43 83.53C95.25 82.25 99.23 81.12 103.28 80.18C104.01 80.03 104.73 80.47 104.9 81.2C105.07 81.93 104.61 82.66 103.89 82.82C99.92 83.74 96.03 84.84 92.3 86.1C92.16 86.15 92.01 86.17 91.87 86.17Z" />
	</g>
</svg>