<svg xmlns="http://www.w3.org/2000/svg" viewBox="0 0 166 237" width="166" height="237">
	<defs>
		<clipPath clipPathUnits="userSpaceOnUse" id="cp1">
			<path d="M-964 -897L703 -897L703 770L-964 770Z" />
		</clipPath>
	</defs>
	<style>
		tspan { white-space:pre }
		.shp0 { fill: #fd4a35;stroke: #0c0c0c;stroke-linecap:round;stroke-linejoin:round;stroke-width: 2.708 } 
		.shp1 { fill: #90e2f9;stroke: #0c0c0c;stroke-linecap:round;stroke-linejoin:round;stroke-width: 2.708 } 
		.shp2 { fill: #3cb6e6;stroke: #0c0c0c;stroke-linecap:round;stroke-linejoin:round;stroke-width: 2.708 } 
		.shp3 { fill: #fff8d5;stroke: #0c0c0c;stroke-linecap:round;stroke-linejoin:round;stroke-width: 2.708 } 
		.shp4 { fill: #fbb364;stroke: #0c0c0c;stroke-linecap:round;stroke-linejoin:round;stroke-width: 2.708 } 
		.shp5 { fill: #ffc951;stroke: #0c0c0c;stroke-linecap:round;stroke-linejoin:round;stroke-width: 2.708 } 
		.shp6 { fill: none;stroke: #0c0c0c;stroke-linecap:round;stroke-linejoin:round;stroke-width: 2.708 } 
		.shp7 { fill: #90e2f9 } 
		.shp8 { fill: #0c0c0c } 
		.shp9 { fill: #ffc951 } 
		.shp10 { fill: #3cb6e6 } 
	</style>
	<g id="Page 1" clip-path="url(#cp1)">
		<path id="Path 27" class="shp0" d="M108.33 123.51C108.85 123.51 109.36 123.57 109.85 123.7C113.12 124.47 115.36 127.66 114.81 131.11C114.79 131.22 114.77 131.32 114.75 131.4C114.12 134.37 111.5 136.6 108.33 136.6C107.65 136.6 107 136.5 106.37 136.32C103.71 135.48 101.8 133.01 101.8 130.06C101.8 129.69 101.82 129.32 101.9 128.98C102.39 125.89 105.05 123.51 108.33 123.51Z" />
		<path id="Path 28" class="shp0" d="M57.54 132.29C57.48 132.48 57.4 132.66 57.34 132.82C57.32 132.84 57.3 132.88 57.28 132.92C57.15 133.19 57.02 133.43 56.87 133.65C56.83 133.72 56.81 133.76 56.77 133.8C56.3 134.49 55.67 135.1 54.96 135.56C54.74 135.73 54.49 135.87 54.23 135.99C54.19 136.01 54.15 136.03 54.11 136.03C53.86 136.15 53.6 136.26 53.34 136.34C52.71 136.54 52.05 136.65 51.38 136.65C48.21 136.65 45.59 134.41 44.98 131.42C44.88 130.99 44.84 130.55 44.84 130.1C44.84 126.72 47.4 123.92 50.71 123.59C50.93 123.57 51.16 123.55 51.38 123.55C54.68 123.55 57.32 125.97 57.82 129C57.95 129.69 57.95 130.42 57.82 131.16C57.77 131.54 57.66 131.93 57.54 132.29Z" />
		<path id="Path 29" class="shp0" d="M53.79 63.24C56.24 64.05 58.05 67.37 58.27 69.13C58.3 69.24 58.3 69.36 58.3 69.46C58.3 69.82 58.27 70.17 58.2 70.51C58.15 70.9 58.05 71.29 57.91 71.64C57.7 72.18 57.44 72.69 57.12 73.16C56.49 74.09 55.61 74.86 54.57 75.36C54.39 75.44 54.21 75.52 54.05 75.58C53.92 75.64 53.8 75.68 53.68 75.7C53.48 75.78 53.27 75.82 53.05 75.86C52.62 75.96 52.18 76 51.73 76C51.18 76 50.65 75.94 50.12 75.8C47.3 75.09 45.18 72.51 45.18 69.46C45.18 69.01 45.22 68.57 45.33 68.14C45.94 65.15 48.58 62.89 51.73 62.89C52.44 62.89 53.13 63.01 53.79 63.24Z" />
		<path id="Path 30" class="shp1" d="M79.86 163.44L79.86 127.39C87.2 127.39 94.54 127.92 101.88 128.98L101.9 128.98C101.82 129.32 101.8 129.69 101.8 130.06C101.8 133.01 103.71 135.48 106.37 136.32C100.54 152.68 90.84 163.41 79.86 163.44Z" />
		<path id="Path 31" class="shp1" d="M57.82 131.16C57.95 130.42 57.95 129.69 57.82 129C65.17 127.92 72.53 127.39 79.86 127.39L79.86 163.44L79.84 163.44C68.87 163.44 59.17 152.72 53.34 136.34C53.6 136.26 53.84 136.18 54.11 136.03C54.15 136.03 54.19 136.01 54.23 135.99C54.47 135.87 54.72 135.73 54.96 135.56C55.67 135.12 56.28 134.51 56.77 133.8C56.81 133.76 56.83 133.72 56.87 133.65C57.03 133.43 57.15 133.19 57.28 132.92C57.3 132.88 57.32 132.84 57.34 132.82C57.4 132.64 57.48 132.48 57.54 132.29C57.66 131.93 57.77 131.54 57.82 131.16Z" />
		<path id="Path 32" class="shp1" d="M79.86 100.4L79.86 127.39C72.53 127.39 65.17 127.92 57.82 129C57.32 125.97 54.68 123.55 51.38 123.55C51.16 123.55 50.93 123.57 50.71 123.59C50.41 123.61 50.14 123.65 49.86 123.71C48.37 116.5 47.58 108.65 47.58 100.4L79.86 100.4Z" />
		<path id="Path 33" class="shp1" d="M79.86 100.4L112.1 100.4C112.1 108.61 111.31 116.48 109.85 123.67L109.85 123.7C109.36 123.57 108.85 123.51 108.33 123.51C105.05 123.51 102.39 125.89 101.9 128.98L101.88 128.98C94.54 127.92 87.2 127.39 79.86 127.39L79.86 100.4Z" />
		<path id="Path 34" class="shp1" d="M112.1 100.4L79.86 100.4L79.86 72.08C82.34 72.08 84.85 72.02 87.33 71.9L87.33 72.59C87.65 75.98 90.21 78.63 93.28 78.63L105.35 78.63L110.13 78.63C111.42 85.42 112.1 92.75 112.1 100.4Z" />
		<path id="Path 35" class="shp1" d="M79.86 72.08L79.86 100.4L47.58 100.4C47.58 91.68 48.47 83.36 50.12 75.8C50.65 75.94 51.18 76 51.73 76C52.18 76 52.62 75.96 53.05 75.86C53.25 75.82 53.48 75.78 53.68 75.7C53.8 75.68 53.92 75.64 54.05 75.58C54.23 75.52 54.39 75.44 54.57 75.36C55.61 74.86 56.49 74.09 57.12 73.16C57.46 72.69 57.72 72.18 57.91 71.64C58.05 71.29 58.15 70.9 58.2 70.51C65.41 71.55 72.63 72.08 79.86 72.08Z" />
		<path id="Path 36" class="shp1" d="M79.86 72.08L79.86 37.36C82.36 37.36 84.87 37.52 87.3 37.79L87.3 39.96L87.33 71.9C84.85 72.02 82.34 72.08 79.86 72.08Z" />
		<path id="Path 37" class="shp2" d="M44.98 131.42C45.59 134.41 48.21 136.65 51.38 136.65C52.05 136.65 52.71 136.54 53.34 136.34C59.17 152.72 68.87 163.44 79.84 163.44C58.44 163.44 39.53 152.76 28.15 136.44L28.76 136.01L44.96 131.42L44.98 131.42Z" />
		<path id="Path 38" class="shp2" d="M16.82 100.4L47.58 100.4C47.58 108.65 48.37 116.5 49.86 123.71C50.14 123.65 50.41 123.61 50.71 123.59C47.4 123.92 44.84 126.72 44.84 130.1C44.84 130.55 44.88 130.99 44.98 131.42L44.96 131.42C39.57 132.68 34.17 134.2 28.76 136.01L28.15 136.44C21.01 126.24 16.82 113.79 16.82 100.4Z" />
		<path id="Path 39" class="shp2" d="M28.77 63.46C34.31 65.31 39.79 66.87 45.33 68.14C45.22 68.57 45.18 69.01 45.18 69.46C45.18 72.51 47.3 75.09 50.12 75.8C48.47 83.36 47.58 91.68 47.58 100.4L16.82 100.4C16.82 86.6 21.26 73.85 28.77 63.46Z" />
		<path id="Path 40" class="shp2" d="M78.85 37.38C68.56 38.01 59.48 48.05 53.79 63.24C53.13 63.01 52.44 62.89 51.73 62.89C48.58 62.89 45.94 65.15 45.33 68.14L28.77 63.46C40.04 47.91 58.23 37.68 78.85 37.38Z" />
		<path id="Path 41" class="shp1" d="M58.2 70.51C58.27 70.17 58.3 69.82 58.3 69.46C58.3 69.36 58.3 69.24 58.27 69.13C58.15 66.37 56.3 64.05 53.79 63.24C59.48 48.05 68.56 38.01 78.85 37.38C79.17 37.36 79.52 37.36 79.84 37.36L79.86 37.36L79.86 72.08C72.63 72.08 65.41 71.55 58.2 70.51Z" />
		<path id="Path 42" class="shp2" d="M108.33 136.6C111.5 136.6 114.12 134.37 114.75 131.4L130.93 136.01L131.58 136.46C120.18 152.76 101.25 163.44 79.86 163.44C90.84 163.41 100.54 152.68 106.37 136.32C107 136.5 107.65 136.6 108.33 136.6Z" />
		<path id="Path 43" class="shp2" d="M112.1 100.4C112.1 92.75 111.42 85.42 110.13 78.63L118.39 78.63L139.02 78.63C141.52 85.42 142.9 92.75 142.9 100.4L112.1 100.4Z" />
		<path id="Path 44" class="shp2" d="M142.9 100.4C142.9 113.82 138.72 126.25 131.58 136.46L130.93 136.01C125.55 134.19 120.13 132.64 114.75 131.4C114.77 131.32 114.79 131.22 114.81 131.11C115.36 127.66 113.12 124.47 109.85 123.7L109.85 123.67C111.31 116.48 112.1 108.61 112.1 100.4L142.9 100.4Z" />
		<path id="Path 45" class="shp3" d="M122.74 53.07C122.74 50.45 124.85 48.35 127.48 48.35C130.07 48.35 132.19 50.45 132.19 53.07C132.19 54.86 131.22 56.39 129.77 57.2L129.77 64.74L125.17 64.74L125.17 57.2C123.71 56.39 122.74 54.86 122.74 53.07Z" />
		<path id="Path 46" class="shp3" d="M110.05 18.82L110.05 31.14L98.65 31.14L98.65 20.99C98.65 10.14 107.53 1.25 118.39 1.25C129.22 1.25 138.1 10.14 138.1 20.99L138.1 31.14L126.72 31.14L126.72 18.82C126.72 14.25 122.98 10.48 118.39 10.48C113.79 10.48 110.05 14.25 110.05 18.82Z" />
		<path id="Path 47" class="shp3" d="M105.35 39.96L87.3 39.96L87.3 37.79L87.3 31.14L98.65 31.14L110.05 31.14L118.39 31.14L126.72 31.14L138.1 31.14L149.49 31.14L149.49 39.96L114.48 39.96L105.35 39.96Z" />
		<path id="Path 48" class="shp4" d="M87.3 39.96L105.35 39.96L105.35 78.63L93.28 78.63C90.21 78.63 87.65 75.98 87.33 72.59L87.33 71.9L87.3 39.96Z" />
		<path id="Path 49" fill-rule="evenodd" class="shp5" d="M149.49 39.96L149.49 71.84C149.49 75.58 146.79 78.63 143.49 78.63L105.35 78.63L105.35 39.96L149.49 39.96ZM127.48 48.35C124.85 48.35 122.74 50.45 122.74 53.07C122.74 54.86 123.71 56.39 125.17 57.2L125.17 64.74L129.77 64.74L129.77 57.2C131.22 56.39 132.19 54.86 132.19 53.07C132.19 50.45 130.07 48.35 127.48 48.35Z" />
		<path id="Path 50" class="shp6" d="M79.84 37.36L79.86 37.36C82.36 37.36 84.87 37.52 87.3 37.79M79.84 163.44C58.44 163.44 39.53 152.76 28.15 136.44C21.01 126.24 16.82 113.79 16.82 100.4C16.82 86.6 21.26 73.85 28.77 63.46C40.04 47.91 58.23 37.68 78.85 37.38M139.02 78.63C141.52 85.42 142.9 92.75 142.9 100.4C142.9 113.82 138.72 126.25 131.58 136.46C120.18 152.76 101.25 163.44 79.86 163.44M57.12 73.16C57.44 72.69 57.7 72.18 57.91 71.64M54.05 75.58C54.21 75.52 54.39 75.44 54.57 75.36M51.73 76C52.18 76 52.62 75.96 53.05 75.86C53.25 75.82 53.48 75.78 53.68 75.7M50.71 123.59C50.41 123.61 50.14 123.65 49.86 123.71C48.37 116.5 47.58 108.65 47.58 100.4C47.58 91.68 48.47 83.36 50.12 75.8M57.34 132.82C57.4 132.66 57.48 132.48 57.54 132.29M56.87 133.65C57.02 133.43 57.15 133.19 57.28 132.92M54.23 135.99C54.49 135.87 54.74 135.73 54.96 135.56C55.67 135.1 56.3 134.49 56.77 133.8M106.37 136.32C100.54 152.68 90.84 163.41 79.86 163.44L79.84 163.44C68.87 163.44 59.17 152.72 53.34 136.34C53.6 136.26 53.86 136.15 54.11 136.03M110.13 78.63C111.42 85.42 112.1 92.75 112.1 100.4C112.1 108.61 111.31 116.48 109.85 123.67M58.27 69.13C58.05 67.37 56.24 64.05 53.79 63.24C59.48 48.05 68.56 38.01 78.85 37.38C79.17 37.36 79.52 37.36 79.84 37.36M142.9 100.4L112.1 100.4M112.1 100.4L79.86 100.4M79.86 100.4L47.58 100.4M47.58 100.4L16.82 100.4M79.86 163.44L79.86 127.39M79.86 127.39L79.86 100.4M79.86 100.4L79.86 72.08M79.86 72.08L79.86 37.36M45.33 68.14C45.94 65.15 48.58 62.89 51.73 62.89C52.44 62.89 53.13 63.01 53.79 63.24C56.3 64.05 58.15 66.37 58.27 69.13C58.3 69.24 58.3 69.36 58.3 69.46C58.3 69.82 58.27 70.17 58.2 70.51C58.15 70.9 58.05 71.29 57.91 71.64C57.72 72.18 57.46 72.69 57.12 73.16C56.49 74.09 55.61 74.86 54.57 75.36C54.39 75.44 54.23 75.52 54.05 75.58C53.92 75.64 53.8 75.68 53.68 75.7C53.48 75.78 53.27 75.82 53.05 75.86C52.62 75.96 52.18 76 51.73 76C51.18 76 50.65 75.94 50.12 75.8C47.3 75.09 45.18 72.51 45.18 69.46C45.18 69.01 45.22 68.57 45.33 68.14ZM58.2 70.51C65.41 71.55 72.63 72.08 79.86 72.08C82.34 72.08 84.85 72.02 87.33 71.9M28.76 63.46L28.77 63.46C34.31 65.31 39.79 66.87 45.33 68.14L28.77 63.46M114.75 131.4C120.13 132.64 125.55 134.19 130.93 136.01L114.75 131.4ZM57.82 129C65.17 127.92 72.53 127.39 79.86 127.39C87.2 127.39 94.54 127.92 101.88 128.98M28.76 136.01C34.17 134.2 39.57 132.68 44.96 131.42L28.76 136.01ZM101.9 128.98C102.39 125.89 105.05 123.51 108.33 123.51C108.85 123.51 109.36 123.57 109.85 123.7C113.12 124.47 115.36 127.66 114.81 131.11C114.79 131.22 114.77 131.32 114.75 131.4C114.12 134.37 111.5 136.6 108.33 136.6C107.65 136.6 107 136.5 106.37 136.32C103.71 135.48 101.8 133.01 101.8 130.06C101.8 129.69 101.82 129.32 101.9 128.98ZM51.38 123.55C54.68 123.55 57.32 125.97 57.82 129C57.95 129.69 57.95 130.42 57.82 131.16C57.77 131.54 57.66 131.93 57.54 132.29C57.48 132.48 57.4 132.64 57.34 132.82C57.32 132.84 57.3 132.88 57.28 132.92C57.15 133.19 57.03 133.43 56.87 133.65C56.83 133.72 56.81 133.76 56.77 133.8C56.28 134.51 55.67 135.12 54.96 135.56C54.72 135.73 54.47 135.87 54.23 135.99C54.19 136.01 54.15 136.03 54.11 136.03C53.84 136.18 53.6 136.26 53.34 136.34C52.71 136.54 52.05 136.65 51.38 136.65C48.21 136.65 45.59 134.41 44.98 131.42C44.88 130.99 44.84 130.55 44.84 130.1C44.84 126.72 47.4 123.92 50.71 123.59C50.93 123.57 51.16 123.55 51.38 123.55ZM105.35 78.63L93.28 78.63C90.21 78.63 87.65 75.98 87.33 72.59L87.33 71.9L87.3 39.96L87.3 37.79L87.3 31.14L98.65 31.14L110.05 31.14L118.39 31.14L126.72 31.14L138.1 31.14L149.49 31.14L149.49 39.96L149.49 71.84C149.49 75.58 146.79 78.63 143.49 78.63L139.02 78.63L118.39 78.63L110.13 78.63L105.35 78.63ZM138.1 31.14L138.1 20.99C138.1 10.14 129.22 1.25 118.39 1.25C107.53 1.25 98.65 10.14 98.65 20.99L98.65 31.14M110.05 31.14L110.05 18.82C110.05 14.25 113.79 10.48 118.39 10.48C122.98 10.48 126.72 14.25 126.72 18.82L126.72 31.14M87.3 39.96L105.35 39.96L114.48 39.96L149.49 39.96M105.35 39.96L105.35 78.63M127.48 48.35C130.07 48.35 132.19 50.45 132.19 53.07C132.19 54.86 131.22 56.39 129.77 57.2L129.77 64.74L125.17 64.74L125.17 57.2C123.71 56.39 122.74 54.86 122.74 53.07C122.74 50.45 124.85 48.35 127.48 48.35Z" />
		<path id="Path 185" class="shp7" d="M126.19 78.35L153.67 78.35C156.57 78.35 159.22 79.54 161.13 81.45C163.06 83.38 164.25 86.03 164.25 88.94L164.25 190.47C164.25 193.38 163.06 196.04 161.16 197.94C159.22 199.85 156.57 201.06 153.67 201.06L12.65 201.06C9.74 201.06 7.09 199.85 5.18 197.94L5.07 197.82C3.23 195.92 2.07 193.31 2.07 190.47L2.07 88.94C2.07 86.03 3.27 83.38 5.18 81.45C7.09 79.54 9.74 78.35 12.65 78.35L130.02 78.35" />
		<path id="Path 186" fill-rule="evenodd" class="shp8" d="M153.67 202.41L12.65 202.41C9.48 202.41 6.49 201.16 4.22 198.9C1.91 196.5 0.71 193.56 0.71 190.47L0.71 88.94C0.71 85.78 1.96 82.78 4.22 80.5C6.47 78.24 9.46 77 12.65 77L153.67 77C156.85 77 159.84 78.24 162.09 80.49C164.36 82.76 165.6 85.75 165.6 88.94L165.6 190.47C165.6 193.66 164.36 196.65 162.11 198.9C159.81 201.17 156.82 202.41 153.67 202.41ZM12.65 79.71C10.19 79.71 7.87 80.67 6.14 82.4C4.39 84.17 3.42 86.5 3.42 88.94L3.42 190.47C3.42 192.85 4.35 195.13 6.04 196.88C7.89 198.74 10.2 199.7 12.65 199.7L153.67 199.7C156.1 199.7 158.42 198.74 160.2 196.97C161.94 195.25 162.9 192.94 162.9 190.47L162.9 88.94C162.9 86.48 161.93 84.16 160.17 82.41C158.44 80.67 156.13 79.71 153.67 79.71L12.65 79.71Z" />
		<path id="Path 187" class="shp9" d="M99.84 201.06L66.5 201.06L59.89 226.1L106.44 226.1L99.84 201.06Z" />
		<path id="Path 188" fill-rule="evenodd" class="shp8" d="M106.44 227.45L59.89 227.45C59.47 227.45 59.08 227.26 58.82 226.92C58.56 226.59 58.48 226.16 58.58 225.75L65.19 200.71C65.34 200.12 65.88 199.7 66.5 199.7L99.84 199.7C100.46 199.7 101 200.12 101.15 200.71L107.75 225.75C107.86 226.16 107.77 226.59 107.52 226.92C107.26 227.26 106.86 227.45 106.44 227.45ZM61.65 224.74L104.69 224.74L98.8 202.41L67.54 202.41L61.65 224.74Z" />
		<path id="Path 189" class="shp9" d="M123.1 226.1L42.95 226.1L43.08 235L123.23 235L123.1 226.1Z" />
		<path id="Path 190" fill-rule="evenodd" class="shp8" d="M123.23 236.36L43.08 236.36C42.34 236.36 41.74 235.76 41.73 235.02L41.59 226.12C41.59 225.75 41.73 225.4 41.98 225.15C42.24 224.89 42.59 224.74 42.95 224.74L123.1 224.74C123.84 224.74 124.44 225.34 124.45 226.08L124.59 234.98C124.59 235.35 124.45 235.7 124.2 235.95C123.94 236.21 123.59 236.36 123.23 236.36ZM44.41 233.65L121.86 233.65L121.76 227.45L44.32 227.45L44.41 233.65ZM32.29 110.01C31.95 110.01 31.61 109.88 31.35 109.62L24.87 103.35C24.6 103.09 24.45 102.74 24.45 102.37C24.45 102.01 24.6 101.66 24.87 101.4L31.35 95.12C31.89 94.6 32.75 94.62 33.26 95.15C33.79 95.69 33.77 96.55 33.23 97.07L27.75 102.37L33.23 107.68C33.77 108.2 33.79 109.06 33.26 109.59C33 109.87 32.65 110.01 32.29 110.01ZM49.9 110.01C49.54 110.01 49.19 109.87 48.92 109.59C48.4 109.06 48.42 108.2 48.95 107.68L54.44 102.37L48.95 97.07C48.42 96.55 48.4 95.69 48.92 95.15C49.44 94.62 50.3 94.6 50.84 95.12L57.32 101.4C57.59 101.66 57.74 102.01 57.74 102.37C57.74 102.74 57.59 103.09 57.32 103.35L50.84 109.62C50.58 109.88 50.24 110.01 49.9 110.01ZM45.15 107.91L37.59 107.91C36.84 107.91 36.24 107.31 36.24 106.56C36.24 105.81 36.84 105.2 37.59 105.2L45.15 105.2C45.9 105.2 46.51 105.81 46.51 106.56C46.51 107.31 45.9 107.91 45.15 107.91ZM95.63 121.17L24.69 121.17C23.94 121.17 23.34 120.56 23.34 119.81C23.34 119.06 23.94 118.46 24.69 118.46L95.63 118.46C96.38 118.46 96.99 119.06 96.99 119.81C96.99 120.56 96.38 121.17 95.63 121.17ZM69.38 134.86L24.69 134.86C23.94 134.86 23.34 134.26 23.34 133.51C23.34 132.76 23.94 132.15 24.69 132.15L69.38 132.15C70.13 132.15 70.73 132.76 70.73 133.51C70.73 134.26 70.13 134.86 69.38 134.86ZM85.87 134.86L75.1 134.86C74.35 134.86 73.75 134.26 73.75 133.51C73.75 132.76 74.35 132.15 75.1 132.15L85.87 132.15C86.61 132.15 87.22 132.76 87.22 133.51C87.22 134.26 86.61 134.86 85.87 134.86ZM69.38 147.28L24.69 147.28C23.94 147.28 23.34 146.67 23.34 145.92C23.34 145.18 23.94 144.57 24.69 144.57L69.38 144.57C70.13 144.57 70.73 145.18 70.73 145.92C70.73 146.67 70.13 147.28 69.38 147.28ZM85.87 147.28L75.1 147.28C74.35 147.28 73.75 146.67 73.75 145.92C73.75 145.18 74.35 144.57 75.1 144.57L85.87 144.57C86.61 144.57 87.22 145.18 87.22 145.92C87.22 146.67 86.61 147.28 85.87 147.28ZM69.38 162.51L24.69 162.51C23.94 162.51 23.34 161.91 23.34 161.16C23.34 160.41 23.94 159.8 24.69 159.8L69.38 159.8C70.13 159.8 70.73 160.41 70.73 161.16C70.73 161.91 70.13 162.51 69.38 162.51ZM85.87 162.51L75.1 162.51C74.35 162.51 73.75 161.91 73.75 161.16C73.75 160.41 74.35 159.8 75.1 159.8L85.87 159.8C86.61 159.8 87.22 160.41 87.22 161.16C87.22 161.91 86.61 162.51 85.87 162.51ZM110.77 172.27C110.43 172.27 110.09 172.15 109.83 171.89L103.34 165.59C103.07 165.34 102.92 164.99 102.92 164.62C102.93 164.25 103.08 163.9 103.34 163.65L109.83 157.37C110.36 156.85 111.22 156.86 111.74 157.4C112.26 157.94 112.25 158.79 111.71 159.31L106.22 164.62L111.71 169.95C112.25 170.47 112.26 171.32 111.74 171.86C111.48 172.14 111.12 172.27 110.77 172.27ZM128.37 172.27C128.01 172.27 127.66 172.14 127.4 171.86C126.88 171.32 126.89 170.46 127.43 169.95L132.93 164.62L127.43 159.31C126.89 158.8 126.88 157.94 127.4 157.4C127.92 156.86 128.77 156.84 129.31 157.36L135.82 163.65C136.09 163.9 136.24 164.25 136.24 164.62C136.24 164.99 136.09 165.34 135.82 165.59L129.31 171.89C129.05 172.15 128.71 172.27 128.37 172.27ZM123.62 170.16L116.09 170.16C115.34 170.16 114.74 169.56 114.74 168.81C114.74 168.06 115.34 167.45 116.09 167.45L123.62 167.45C124.37 167.45 124.98 168.06 124.98 168.81C124.98 169.56 124.37 170.16 123.62 170.16Z" />
		<path id="Path 191" class="shp10" d="M106.23 94.33L147.21 94.33L147.21 139.02L106.23 139.02L106.23 94.33Z" />
		<path id="Path 192" fill-rule="evenodd" class="shp8" d="M147.21 140.37L106.23 140.37C105.48 140.37 104.88 139.77 104.88 139.02L104.88 94.33C104.88 93.58 105.48 92.97 106.23 92.97L147.21 92.97C147.96 92.97 148.56 93.58 148.56 94.33L148.56 139.02C148.56 139.77 147.96 140.37 147.21 140.37ZM107.59 137.66L145.85 137.66L145.85 95.69L107.59 95.69L107.59 137.66Z" />
	</g>
</svg>